<?xml version="1.0" encoding="UTF-8" standalone="no"?>
<!-- Created with Inkscape (http://www.inkscape.org/) -->

<svg
   width="100.40922mm"
   height="204.4814mm"
   viewBox="0 0 100.40922 204.4814"
   version="1.1"
   id="svg5"
   xmlns="http://www.w3.org/2000/svg"
   xmlns:svg="http://www.w3.org/2000/svg">
  <defs
     id="defs2" />
  <g
     id="layer2"
     transform="translate(-105.84786,-46.080168)">
    <g
       aria-label="Apouna Beniamin"
       transform="rotate(90)"
       id="text5947"
       style="font-size:11.2889px;line-height:0;font-family:'CS New Athanasius';-inkscape-font-specification:'CS New Athanasius';text-align:center;text-anchor:middle;fill:none;stroke:#000000;stroke-width:0.25">
      <path
         d="m 139.81027,-153.1145 q 0.0717,0.011 0.12127,0.011 0.35829,0 0.7276,-0.20946 0.37483,-0.20395 0.53468,-0.68902 0.14883,-0.48507 0.19844,-0.81029 0.0386,-0.32521 0.0386,-0.63389 0,-0.24805 -0.006,-0.65595 -0.0165,-0.41341 -0.0165,-0.46302 0,-1.22921 -0.20946,-1.70326 -0.20395,-0.47956 -0.43546,-0.55122 -0.23152,-0.0772 -0.30869,-0.0772 -0.1378,0 -0.21497,0.0221 -0.0882,0.0331 -0.11576,0.0496 0.18191,0.1819 0.36381,0.41893 0.1819,0.24804 0.1819,0.50711 0,0.38034 -0.30868,0.62288 -0.31971,0.23702 -0.73863,0.23702 -0.37483,0 -0.66146,-0.37483 -0.29215,-0.3638 -0.29215,-0.79375 0,-0.8158 0.74415,-1.21818 0.74965,-0.39688 1.80247,-0.39688 0.97565,0 1.87965,0.55122 0.90399,0.56775 1.33394,1.33394 0.41892,0.77721 0.61185,1.37253 0.19844,0.5898 0.39688,1.20165 0.20395,0.60634 0.45199,1.10794 0.23703,0.50712 0.49058,0.78273 0.24805,0.28663 0.62839,0.47956 0.18741,0.0606 0.30868,0.0992 0.12678,0.0331 0.12678,0.13781 0,0.24805 -0.29766,0.3638 -0.29214,0.11024 -0.67248,0.11024 -0.59531,0 -1.16858,-0.41892 -0.56775,-0.41892 -0.61736,-0.55673 -0.22048,0.3638 -0.72209,0.67249 -0.4961,0.30316 -0.98668,0.30316 -0.36931,0 -0.79926,-0.22599 -0.42444,-0.226 -0.62839,-0.48507 -0.12678,0.19843 -0.66146,0.46853 -0.52916,0.27561 -0.8654,0.27561 -0.0772,0 -0.41893,-0.0496 -0.34726,-0.0386 -0.79926,-0.51815 -0.44649,-0.48507 -0.44649,-1.08038 0,-0.42443 0.30317,-0.72209 0.29766,-0.30317 0.7221,-0.30317 0.39687,0 0.70555,0.29214 0.31419,0.28664 0.31419,0.678 0,0.0772 -0.0386,0.23702 -0.0386,0.15986 -0.23702,0.35829 -0.19844,0.19844 -0.31971,0.24254 z m 2.35921,-3.59393 q 0,0.44649 -0.0496,1.19063 -0.0441,0.75516 -0.0441,0.9536 0,0.56775 0.19844,1.03629 0.20395,0.46302 0.65594,0.46302 0.452,0 0.77171,-0.30317 0.32521,-0.30868 0.32521,-0.76619 0,-0.78273 -0.15985,-1.53238 -0.15434,-0.74965 -0.50161,-1.51033 -0.35829,-0.74966 -0.73311,-1.11346 -0.36932,-0.36931 -0.63941,-0.48507 -0.2701,-0.12127 -0.34727,-0.12127 0.17088,0.42995 0.34727,0.98668 0.17639,0.55122 0.17639,1.20165 z"
         id="path955" />
      <path
         d="m 152.27877,-155.94775 v 2.83325 q 0.0551,-0.0386 0.12678,-0.0717 0.0441,-0.0165 0.0827,-0.0165 0.0331,0 0.0606,0.011 0.10473,0.022 0.15985,0.11024 0.0551,0.0882 0.0551,0.19844 0,0.27561 -0.23151,0.47404 -0.226,0.19844 -0.53468,0.19844 -0.32521,0 -0.55121,-0.24253 -0.226,-0.24254 -0.226,-0.57878 v -2.91593 h -1.24024 v 2.91593 q 0,0.33624 -0.22048,0.57878 -0.23151,0.24253 -0.55673,0.24253 -0.30317,0 -0.52917,-0.20395 -0.24253,-0.19844 -0.24253,-0.46853 0,-0.26458 0.21497,-0.30868 0.0331,-0.011 0.0551,-0.011 0.0551,0 0.10473,0.0276 0.0662,0.0276 0.11025,0.0606 v -2.83325 h -0.76068 v -0.68902 h 4.88928 v 0.68902 z"
         id="path957" />
      <path
         d="m 155.72939,-156.54306 q 0.89848,0 1.53238,0.62287 0.63389,0.61736 0.63389,1.49931 0,0.87643 -0.59531,1.52135 -0.59531,0.64492 -1.4497,0.64492 -0.85438,0 -1.4497,-0.62838 -0.59531,-0.61736 -0.59531,-1.4938 0,-0.87092 0.55122,-1.51584 0.55121,-0.65043 1.37253,-0.65043 z m -0.61737,1.31189 v 1.52136 q 0,0.38033 0.18742,0.67799 0.19292,0.29766 0.52916,0.29766 0.32522,0 0.52917,-0.2701 0.20395,-0.27009 0.20395,-0.6339 v -1.59301 q 0,-0.31971 -0.22049,-0.55673 -0.23151,-0.23151 -0.54019,-0.23151 -0.29765,0 -0.49609,0.23151 -0.19293,0.23151 -0.19293,0.55673 z"
         id="path959" />
      <path
         d="m 161.30769,-155.84853 q 0.3197,-0.34176 0.73863,-0.678 0.41892,-0.34175 0.95911,-0.34175 0.11025,0 0.30317,0.0276 0.1819,0.0331 0.30317,0.25356 0.12678,0.22048 0.16537,0.59531 0,0.0386 0,0.0772 0,0.34176 -0.21498,0.70005 -0.24805,0.41341 -0.50712,0.41341 -0.0717,0 -0.14331,-0.0661 -0.0772,-0.0551 -0.0772,-0.1819 0,-0.0606 0.011,-0.18741 0.0165,-0.13229 0.0165,-0.19293 0,-0.17639 -0.15434,-0.25356 -0.17088,-0.0772 -0.38034,-0.0772 -0.19293,0 -0.39137,0.17088 -0.19843,0.16536 -0.23151,0.25356 0.0496,0.0496 0.26459,0.66697 0.21497,0.61736 0.21497,1.03077 0,0.55122 -0.24253,1.00322 -0.23703,0.45199 -0.66146,0.45199 -0.37483,0 -0.63941,-0.46302 -0.25907,-0.45751 -0.25907,-0.99219 0,-0.42995 0.21497,-0.98116 0.21497,-0.55122 0.41892,-0.75517 -0.0606,-0.14331 -0.11575,-0.21497 -0.0496,-0.0772 -0.21498,-0.226 -0.15985,-0.15434 -0.4079,-0.24805 0.19293,0.22049 0.19293,0.54571 0,0.34726 -0.2701,0.56224 -0.27009,0.226 -0.66145,0.226 -0.36932,0 -0.63941,-0.28112 -0.26459,-0.28664 -0.26459,-0.66698 0,-0.47404 0.33624,-0.81579 0.34176,-0.34727 0.81029,-0.34727 0.49609,0 0.98668,0.41341 0.49609,0.4079 0.54019,0.57878 z"
         id="path961" />
      <path
         d="m 166.00405,-155.47922 q 0.006,-0.0551 0.0386,-0.15434 0.0221,-0.0992 0.11025,-0.0992 0.16536,0 0.35829,0.29766 0.19292,0.29766 0.32521,0.73312 0.1323,0.44648 0.452,0.74965 0.14883,0.11024 0.30868,0.21497 v 1.33946 h 1.02526 v -3.43408 q 0.0882,0.011 0.13229,0.011 0.0882,0 0.13781,-0.0165 0.0551,-0.022 0.0717,-0.0992 0.0165,-0.0827 0.0165,-0.12678 0,-0.29214 -0.226,-0.5016 -0.22048,-0.20395 -0.55121,-0.20395 -0.30317,0 -0.42995,0.23702 -0.1378,0.23702 -0.1378,0.57878 v 0.2756 q 0,0.13781 -0.10473,0.23152 -0.0992,0.0937 -0.23703,0.0937 -0.20946,0 -0.34726,-0.25907 -0.11025,-0.24805 -0.22049,-0.50161 -0.16536,-0.28663 -0.44648,-0.48507 -0.28664,-0.18741 -0.55122,-0.18741 -0.15434,0 -0.44648,0.14883 -0.30317,0.15985 -0.30317,0.61736 v 2.83325 q -0.0551,-0.0386 -0.12678,-0.0717 -0.0386,-0.0165 -0.0772,-0.0165 -0.0331,0 -0.0662,0.011 -0.0992,0.0221 -0.15985,0.11024 -0.0551,0.0882 -0.0551,0.19844 0,0.27561 0.23151,0.47405 0.23151,0.19843 0.54019,0.19843 0.3197,0 0.52917,-0.23702 0.20946,-0.24253 0.20946,-0.58429 z"
         id="path963" />
      <path
         d="m 171.1524,-155.32488 -0.49609,-0.80477 h -0.49609 v -0.49058 h 2.53008 v 0.49058 h -0.64493 l 1.24575,2.41432 q 0.19844,0.38585 0.34176,0.4961 0.1378,0.12126 0.3197,0.12126 0.0717,0 0.19844,-0.0882 0.11575,-0.0772 0.18741,-0.0772 0.11024,0 0.15985,0.0882 0.0551,0.0882 0.0551,0.20395 0,0.28664 -0.29215,0.47956 -0.28663,0.18742 -0.61185,0.18742 -0.48507,0 -0.72209,-0.27561 -0.24805,-0.28112 -0.39688,-0.56775 l -0.79375,0.57326 q -0.22048,0.15985 -0.40238,0.23702 -0.18191,0.0717 -0.4079,0.0717 -0.0827,0 -0.35278,-0.0331 -0.2701,-0.0221 -0.58429,-0.3638 -0.30868,-0.34727 -0.30868,-0.84888 0,-0.59531 0.55673,-1.05282 z m -0.4079,2.02296 q 0,0.12678 0.15986,0.25908 0.15985,0.12678 0.33624,0.12678 0.11575,0 0.22048,-0.0772 0.0937,-0.0827 0.14332,-0.11025 l 0.6339,-0.48507 -0.50161,-0.77721 -0.67248,0.54019 q -0.14883,0.11576 -0.23151,0.25356 -0.0882,0.13229 -0.0882,0.27009 z"
         id="path965" />
      <path
         d="m 183.13584,-152.30421 h -5.04363 v -0.61737 h 0.30868 q 0.0551,0 0.11024,0 0.0551,0.006 0.11025,0.006 0.10473,0 0.17639,-0.0717 0.0661,-0.0606 0.0661,-0.18742 -0.011,-0.11024 -0.011,-0.17638 v -5.52319 q 0.011,-0.11575 0.011,-0.16536 0,-0.0882 -0.0496,-0.14332 -0.0496,-0.0606 -0.12678,-0.0772 -0.0772,-0.0165 -0.19292,-0.0165 h -0.40239 v -0.64493 h 3.90261 q 0.92604,0 1.60955,0.46854 0.67799,0.47955 0.67799,1.33945 0,0.42995 -0.28663,0.87643 -0.29214,0.44098 -0.64492,0.67249 0.0551,0 0.45751,0.38034 0.4079,0.37482 0.76619,1.00321 0.34726,0.62287 0.34726,1.40009 0,0.9536 -0.45199,1.21818 -0.45751,0.25908 -1.33394,0.25908 z m -1.30639,-6.95635 h -1.11896 v 2.40881 h 0.97565 q 0.50712,0 0.84887,-0.39687 0.33073,-0.39688 0.33073,-0.93156 0,-0.5016 -0.29215,-0.79375 -0.30316,-0.28663 -0.74414,-0.28663 z m 0,3.11437 h -1.11896 v 3.21359 h 0.97565 q 0.57326,0 0.93706,-0.36932 0.36381,-0.37482 0.36381,-1.04731 0,-0.6835 -0.29766,-1.24023 -0.29214,-0.55673 -0.8599,-0.55673 z"
         id="path967" />
      <path
         d="m 188.71414,-155.53985 q -0.1819,-0.19844 -0.44648,-0.38034 -0.25908,-0.1819 -0.68351,-0.1819 -0.51814,0 -0.51814,0.42443 v 0.77171 h 1.57096 v 0.64492 h -1.59301 v 0.8158 q 0,0.24253 0.20946,0.38585 0.21497,0.14332 0.49609,0.14332 0.24254,0 0.47405,-0.19844 0.22049,-0.18742 0.39687,-0.38034 l 0.41342,0.34727 q -0.26459,0.44097 -0.59532,0.65594 -0.33073,0.20946 -0.81028,0.20946 -0.8158,0 -1.36151,-0.67799 -0.55673,-0.68351 -0.55673,-1.58199 0,-0.87092 0.50161,-1.53238 0.42444,-0.56224 1.27882,-0.56224 0.32522,0 0.52917,0.0276 0.20946,0.022 0.41892,0.1378 0.43546,0.2701 0.65044,0.59532 z"
         id="path969" />
      <path
         d="m 191.32139,-155.47922 q 0.006,-0.0551 0.0386,-0.15434 0.022,-0.0992 0.11024,-0.0992 0.16536,0 0.35829,0.29766 0.19292,0.29766 0.32522,0.73312 0.13229,0.44648 0.45199,0.74965 0.14883,0.11024 0.30868,0.21497 v 1.33946 h 1.02527 v -3.43408 q 0.0882,0.011 0.13229,0.011 0.0882,0 0.1378,-0.0165 0.0551,-0.022 0.0717,-0.0992 0.0165,-0.0827 0.0165,-0.12678 0,-0.29214 -0.226,-0.5016 -0.22049,-0.20395 -0.55122,-0.20395 -0.30317,0 -0.42995,0.23702 -0.1378,0.23702 -0.1378,0.57878 v 0.2756 q 0,0.13781 -0.10473,0.23152 -0.0992,0.0937 -0.23702,0.0937 -0.20947,0 -0.34727,-0.25907 -0.11024,-0.24805 -0.22049,-0.50161 -0.16536,-0.28663 -0.44648,-0.48507 -0.28663,-0.18741 -0.55122,-0.18741 -0.15434,0 -0.44648,0.14883 -0.30317,0.15985 -0.30317,0.61736 v 2.83325 q -0.0551,-0.0386 -0.12678,-0.0717 -0.0386,-0.0165 -0.0772,-0.0165 -0.0331,0 -0.0662,0.011 -0.0992,0.0221 -0.15985,0.11024 -0.0551,0.0882 -0.0551,0.19844 0,0.27561 0.23151,0.47405 0.23151,0.19843 0.54019,0.19843 0.31971,0 0.52917,-0.23702 0.20946,-0.24253 0.20946,-0.58429 z"
         id="path971" />
      <path
         d="m 195.35629,-153.31294 v -2.69544 q 0,-0.27561 0.19293,-0.47405 0.1819,-0.19293 0.46853,-0.19293 0.29766,0 0.57878,0.23703 0.27009,0.24804 0.27009,0.57326 0,0.11024 -0.0386,0.19293 -0.0331,0.0772 -0.12127,0.10473 -0.0221,0.011 -0.0496,0.011 -0.0386,0 -0.0772,-0.0165 -0.0717,-0.022 -0.12127,-0.0496 v 2.82773 q 0,0.22049 -0.17087,0.36381 -0.18742,0.14882 -0.42995,0.14882 -0.32522,0 -0.57878,-0.25356 -0.26458,-0.24253 -0.26458,-0.51263 0,-0.14331 0.0331,-0.20946 0.0331,-0.0551 0.0937,-0.0772 0.0496,-0.0165 0.0882,-0.0165 0.0165,0 0.0331,0 0.0551,0.0165 0.0937,0.0386 z"
         id="path973" />
      <path
         d="m 199.04944,-155.32488 -0.4961,-0.80477 h -0.49609 v -0.49058 h 2.53008 v 0.49058 h -0.64492 l 1.24575,2.41432 q 0.19843,0.38585 0.34175,0.4961 0.1378,0.12126 0.3197,0.12126 0.0717,0 0.19844,-0.0882 0.11576,-0.0772 0.18742,-0.0772 0.11024,0 0.15985,0.0882 0.0551,0.0882 0.0551,0.20395 0,0.28664 -0.29215,0.47956 -0.28663,0.18742 -0.61184,0.18742 -0.48507,0 -0.7221,-0.27561 -0.24804,-0.28112 -0.39687,-0.56775 l -0.79375,0.57326 q -0.22049,0.15985 -0.40239,0.23702 -0.1819,0.0717 -0.4079,0.0717 -0.0827,0 -0.35278,-0.0331 -0.27009,-0.0221 -0.58429,-0.3638 -0.30868,-0.34727 -0.30868,-0.84888 0,-0.59531 0.55673,-1.05282 z m -0.4079,2.02296 q 0,0.12678 0.15985,0.25908 0.15985,0.12678 0.33624,0.12678 0.11576,0 0.22049,-0.0772 0.0937,-0.0827 0.14331,-0.11025 l 0.6339,-0.48507 -0.5016,-0.77721 -0.67249,0.54019 q -0.14883,0.11576 -0.23151,0.25356 -0.0882,0.13229 -0.0882,0.27009 z"
         id="path975" />
      <path
         d="m 207.25153,-153.35152 q -0.18742,-0.19293 -0.35829,-0.61737 -0.16537,-0.42994 -0.16537,-0.87643 0,-0.65595 0.28663,-1.19614 0.27561,-0.52917 0.83234,-0.52917 0.452,0 0.63941,0.47405 0.19292,0.46853 0.19292,1.11346 0,0.34726 -0.24253,0.9095 -0.25356,0.56224 -0.452,0.76068 0.0276,0.0331 0.20395,0.16537 0.16537,0.1378 0.29215,0.22048 0.12678,0.0772 0.20395,0.11024 0.0827,0.0276 0.26458,0.0937 l -0.0882,0.47405 q -0.18742,-0.0331 -0.3142,-0.0717 -0.12126,-0.0386 -0.30868,-0.12678 -0.1819,-0.0937 -0.3638,-0.23702 -0.17639,-0.14332 -0.28112,-0.24805 -0.20395,0.20946 -0.52917,0.41892 -0.3197,0.20395 -0.90399,0.20395 -0.47956,0 -0.82683,-0.23151 -0.35829,-0.23151 -0.61736,-0.47956 -0.0717,0.0662 -0.23702,0.19293 -0.15985,0.12127 -0.35278,0.22049 -0.19844,0.11024 -0.38585,0.1819 -0.19844,0.0717 -0.42995,0.12127 l -0.14331,-0.44649 q 0.14331,-0.0441 0.25356,-0.0937 0.10473,-0.0386 0.29214,-0.15985 0.19293,-0.11575 0.33624,-0.25356 0.14332,-0.12678 0.226,-0.21497 -0.18741,-0.18742 -0.4079,-0.678 -0.226,-0.49609 -0.226,-0.82682 v -0.12127 q 0.0661,-0.62287 0.30868,-1.05282 0.24254,-0.43546 0.7221,-0.43546 0.49609,0 0.70004,0.47404 0.19844,0.48507 0.19844,1.15756 0,0.45199 -0.15986,0.87643 -0.16536,0.41892 -0.3638,0.61736 0.23151,0.22049 0.52366,0.43546 0.29214,0.21498 0.61736,0.21498 0.39687,0 0.64492,-0.17639 0.24805,-0.1819 0.41893,-0.3638 z"
         id="path977" />
      <path
         d="m 210.02966,-153.31294 v -2.69544 q 0,-0.27561 0.19292,-0.47405 0.18191,-0.19293 0.46854,-0.19293 0.29765,0 0.57877,0.23703 0.2701,0.24804 0.2701,0.57326 0,0.11024 -0.0386,0.19293 -0.0331,0.0772 -0.12127,0.10473 -0.0221,0.011 -0.0496,0.011 -0.0386,0 -0.0772,-0.0165 -0.0717,-0.022 -0.12127,-0.0496 v 2.82773 q 0,0.22049 -0.17088,0.36381 -0.18741,0.14882 -0.42994,0.14882 -0.32522,0 -0.57878,-0.25356 -0.26458,-0.24253 -0.26458,-0.51263 0,-0.14331 0.0331,-0.20946 0.0331,-0.0551 0.0937,-0.0772 0.0496,-0.0165 0.0882,-0.0165 0.0165,0 0.0331,0 0.0551,0.0165 0.0937,0.0386 z"
         id="path979" />
      <path
         d="m 213.76139,-155.47922 q 0.006,-0.0551 0.0386,-0.15434 0.0221,-0.0992 0.11025,-0.0992 0.16536,0 0.35829,0.29766 0.19292,0.29766 0.32522,0.73312 0.13229,0.44648 0.45199,0.74965 0.14883,0.11024 0.30868,0.21497 v 1.33946 h 1.02526 v -3.43408 q 0.0882,0.011 0.1323,0.011 0.0882,0 0.1378,-0.0165 0.0551,-0.022 0.0717,-0.0992 0.0165,-0.0827 0.0165,-0.12678 0,-0.29214 -0.22599,-0.5016 -0.22049,-0.20395 -0.55122,-0.20395 -0.30317,0 -0.42995,0.23702 -0.1378,0.23702 -0.1378,0.57878 v 0.2756 q 0,0.13781 -0.10473,0.23152 -0.0992,0.0937 -0.23703,0.0937 -0.20946,0 -0.34726,-0.25907 -0.11024,-0.24805 -0.22049,-0.50161 -0.16536,-0.28663 -0.44648,-0.48507 -0.28664,-0.18741 -0.55122,-0.18741 -0.15434,0 -0.44648,0.14883 -0.30317,0.15985 -0.30317,0.61736 v 2.83325 q -0.0551,-0.0386 -0.12678,-0.0717 -0.0386,-0.0165 -0.0772,-0.0165 -0.0331,0 -0.0662,0.011 -0.0992,0.0221 -0.15985,0.11024 -0.0551,0.0882 -0.0551,0.19844 0,0.27561 0.23151,0.47405 0.23151,0.19843 0.54019,0.19843 0.31971,0 0.52917,-0.23702 0.20946,-0.24253 0.20946,-0.58429 z"
         id="path981" />
    </g>
    <g
       id="g1836"
       transform="translate(51.052418,21.228623)"
       style="display:inline">
      <path
         id="path1832"
         style="display:inline;fill:none;stroke:#aa0000;stroke-width:1;stroke-dasharray:none;stroke-opacity:1"
         d="M 104.99979,25.558647 83.786617,46.771305 94.393722,57.37841 87.322319,64.449813 76.715214,53.842708 55.502555,75.055884 76.715731,96.269059 87.322319,85.662472 l 7.071403,7.070886 -10.607105,10.607102 10.606588,10.60659 v 82.85954 l -10.606071,10.60607 21.213176,21.21318 21.21317,-21.21318 -10.6071,-10.6071 v -82.85799 l 10.60659,-10.60711 -10.60659,-10.606585 7.0714,-7.071403 10.60659,10.606587 21.21318,-21.212658 -21.21318,-21.213693 -10.6071,10.607105 -7.07089,-7.071403 10.60659,-10.606588 z" />
      <path
         id="path1834"
         style="display:inline;fill:none;stroke:#0000ff;stroke-width:0.5;stroke-dasharray:none;stroke-opacity:1"
         d="m 89.037109,46.775391 c 3.530327,3.534125 7.06286,7.066051 10.591797,10.601562 -4.10116,4.103912 -8.20418,8.205982 -12.308594,12.306641 -3.535513,-3.528935 -7.067435,-7.061472 -10.601562,-10.591797 -5.320964,5.321614 -10.641927,10.643229 -15.962891,15.964844 5.320964,5.320963 10.641927,10.641927 15.962891,15.96289 3.534126,-3.530326 7.066052,-7.062859 10.601562,-10.591797 4.104416,4.100657 8.207431,8.202732 12.308594,12.306641 -3.532907,3.535452 -7.065045,7.071673 -10.597656,10.607425 3.022158,3.02471 6.044135,6.04961 9.066406,9.07422 0,28.64062 0,57.28125 0,85.92187 -3.020935,3.02269 -6.041649,6.04559 -9.0625,9.06836 5.321615,5.32161 10.643229,10.64323 15.964844,15.96484 5.32161,-5.32161 10.64323,-10.64323 15.96484,-15.96484 -3.0215,-3.02342 -6.04286,-6.04698 -9.06445,-9.07031 0,-28.63998 0,-57.27995 0,-85.91992 3.02227,-3.02461 6.04425,-6.04951 9.06641,-9.07422 -3.53196,-3.535101 -7.06345,-7.07067 -10.59571,-10.605472 4.10124,-4.104489 8.20411,-8.207357 12.3086,-12.308594 3.53551,3.528935 7.06743,7.061472 10.60156,10.591797 5.32096,-5.320963 10.64193,-10.641927 15.96289,-15.96289 -5.32096,-5.321615 -10.64193,-10.64323 -15.96289,-15.964844 -3.53413,3.530327 -7.06605,7.062859 -10.60156,10.591797 -4.10442,-4.100657 -8.20743,-8.202732 -12.3086,-12.306641 3.52894,-3.535513 7.06148,-7.067435 10.5918,-10.601562 C 115.64193,41.454427 110.32096,36.133464 105,30.8125 99.679036,36.133464 94.358073,41.454427 89.037109,46.775391 Z" />
      <g
         aria-label="Pi`;ronoc               `mPiouro "
         id="text2771"
         style="font-size:7.76111px;line-height:0;font-family:'CS New Athanasius';-inkscape-font-specification:'CS New Athanasius';text-align:center;text-anchor:middle;display:inline;fill:none;stroke:#000000;stroke-width:0.25;stroke-dasharray:none"
         transform="translate(-38.6924,3.5826296)">
        <path
           d="m 106.48354,73.402779 h -0.42444 v 0.394119 h 2.12597 V 73.387621 H 107.628 v -4.320149 h 0.59118 V 68.627877 H 103.035 v 0.439595 h 0.59118 v 4.320149 h -0.52297 v 0.409277 h 2.19039 v -0.394119 h -0.45854 v -4.335307 h 1.64848 z"
           id="path3499"
           style="stroke-width:0.25;stroke-dasharray:none" />
        <path
           d="m 108.95815,73.1034 v -1.853116 q 0,-0.18948 0.13264,-0.325906 0.12505,-0.132636 0.32211,-0.132636 0.20464,0 0.39791,0.162953 0.18569,0.170532 0.18569,0.394118 0,0.07579 -0.0265,0.132637 -0.0227,0.05305 -0.0834,0.072 -0.0152,0.0076 -0.0341,0.0076 -0.0265,0 -0.0531,-0.01137 -0.0493,-0.01516 -0.0834,-0.03411 v 1.944067 q 0,0.151584 -0.11748,0.250114 -0.12884,0.102319 -0.29558,0.102319 -0.22359,0 -0.39791,-0.174321 -0.1819,-0.166743 -0.1819,-0.352434 0,-0.09853 0.0227,-0.144005 0.0227,-0.0379 0.0644,-0.05305 0.0341,-0.01137 0.0606,-0.01137 0.0114,0 0.0227,0 0.0379,0.01137 0.0644,0.02653 z"
           id="path3501"
           style="stroke-width:0.25;stroke-dasharray:none" />
        <path
           d="m 111.41003,69.696546 -0.82614,-0.181901 q -0.23874,-0.06063 -0.37517,-0.147795 -0.14021,-0.09095 -0.14021,-0.28801 0,-0.178111 0.11368,-0.291799 0.11369,-0.117478 0.29559,-0.117478 0.12506,0 0.23117,0.06442 0.1099,0.06821 0.26906,0.19706 l 0.53812,0.485069 z"
           id="path3503"
           style="stroke-width:0.25;stroke-dasharray:none" />
        <path
           d="m 112.53175,72.095366 v -0.450963 q 0,-0.208429 -0.13643,-0.356223 -0.14021,-0.140216 -0.34485,-0.140216 -0.1819,0 -0.31075,0.144005 -0.12885,0.155374 -0.12885,0.352434 v 0.450963 z m -0.92088,0.37517 v 0.394119 q 0,0.238745 0.12506,0.413067 0.12506,0.181901 0.33728,0.181901 0.20464,0 0.33348,-0.170532 0.12506,-0.162953 0.12506,-0.38275 v -0.435805 z m 1.73564,0 q 0,0.458542 -0.39033,0.894347 -0.39032,0.432015 -0.90571,0.432015 -0.49265,0 -0.86403,-0.435805 -0.36759,-0.435804 -0.36759,-0.890557 h -0.33728 v -0.37517 h 0.34486 q 0,-0.522966 0.3638,-0.905716 0.36001,-0.375171 0.88298,-0.375171 0.52296,0 0.89813,0.375171 0.37896,0.375171 0.37896,0.905716 h 0.33349 v 0.37517 z"
           id="path3505"
           style="stroke-width:0.25;stroke-dasharray:none" />
        <path
           d="m 115.80218,73.353514 q 0.39791,0 0.66697,-0.397908 0.27285,-0.397909 0.27285,-0.894347 0,-0.515386 -0.28801,-0.913295 -0.29559,-0.401698 -0.75792,-0.401698 -0.23117,0 -0.4017,0.121268 -0.16674,0.121267 -0.30317,0.344854 -0.11369,-0.144005 -0.24632,-0.200849 -0.13643,-0.06063 -0.25012,-0.09853 -0.1099,-0.0379 -0.1819,-0.0379 -0.12505,0 -0.144,0.106109 0,0.01137 0,0.02274 0,0.08337 0.10232,0.162953 0.11368,0.09474 0.15916,0.181901 0.0379,0.08716 0.0568,0.185691 0.0227,0.09853 0.0227,0.234956 v 2.830834 q -0.0379,-0.03032 -0.0872,-0.04927 -0.0265,-0.01137 -0.053,-0.01137 -0.0227,0 -0.0455,0.0038 -0.0682,0.01516 -0.1099,0.07579 -0.0379,0.06063 -0.0379,0.136426 0,0.19327 0.15916,0.329695 0.15916,0.136426 0.37138,0.136426 0.2198,0 0.36001,-0.170532 0.14022,-0.170532 0.14022,-0.397909 V 73.11098 q 0.0568,0.05306 0.24253,0.147795 0.18948,0.09474 0.35244,0.09474 z m -0.61392,-0.901926 v -0.818554 q 0,-0.181901 0.10232,-0.322117 0.10232,-0.144005 0.26906,-0.144005 0.18948,0 0.3297,0.125057 0.13642,0.132637 0.13642,0.322117 v 0.807185 q 0,0.185691 -0.12505,0.322117 -0.12506,0.136426 -0.31075,0.136426 -0.19706,0 -0.29938,-0.117478 -0.10232,-0.121267 -0.10232,-0.310748 z"
           id="path3507"
           style="stroke-width:0.25;stroke-dasharray:none" />
        <path
           d="m 118.58754,70.882692 q 0.6177,0 1.05351,0.428225 0.4358,0.424436 0.4358,1.030773 0,0.602547 -0.40928,1.045931 -0.40927,0.443383 -0.99666,0.443383 -0.58739,0 -0.99667,-0.432015 -0.40928,-0.424435 -0.40928,-1.026982 0,-0.598758 0.37897,-1.042142 0.37896,-0.447173 0.94361,-0.447173 z m -0.42444,0.901926 v 1.045931 q 0,0.261482 0.12885,0.466121 0.13263,0.204639 0.3638,0.204639 0.22359,0 0.3638,-0.185691 0.14022,-0.18569 0.14022,-0.435804 v -1.095196 q 0,-0.219797 -0.15159,-0.38275 -0.15916,-0.159163 -0.37138,-0.159163 -0.20464,0 -0.34106,0.159163 -0.13264,0.159163 -0.13264,0.38275 z"
           id="path3509"
           style="stroke-width:0.25;stroke-dasharray:none" />
        <path
           d="m 121.61164,71.614086 q 0.004,-0.0379 0.0265,-0.106109 0.0152,-0.06821 0.0758,-0.06821 0.11369,0 0.24633,0.204639 0.13263,0.204638 0.22358,0.504017 0.0909,0.306958 0.31075,0.515386 0.10232,0.07579 0.21222,0.147795 v 0.920874 h 0.70486 v -2.360924 q 0.0606,0.0076 0.091,0.0076 0.0606,0 0.0947,-0.01137 0.0379,-0.01516 0.0493,-0.06821 0.0114,-0.05684 0.0114,-0.08716 0,-0.200849 -0.15538,-0.344854 -0.15158,-0.140216 -0.37896,-0.140216 -0.20842,0 -0.29559,0.162953 -0.0947,0.162953 -0.0947,0.397909 v 0.18948 q 0,0.09474 -0.072,0.159163 -0.0682,0.06442 -0.16295,0.06442 -0.14401,0 -0.23875,-0.178112 -0.0758,-0.170532 -0.15158,-0.344854 -0.11369,-0.197059 -0.30696,-0.333485 -0.19706,-0.128846 -0.37896,-0.128846 -0.10611,0 -0.30696,0.102319 -0.20842,0.109898 -0.20842,0.424436 v 1.947856 q -0.0379,-0.02653 -0.0872,-0.04927 -0.0265,-0.01137 -0.053,-0.01137 -0.0227,0 -0.0455,0.0076 -0.0682,0.01516 -0.10989,0.07579 -0.0379,0.06063 -0.0379,0.136426 0,0.18948 0.15916,0.325906 0.15917,0.136425 0.37138,0.136425 0.2198,0 0.36381,-0.162953 0.144,-0.166742 0.144,-0.401698 z"
           id="path3511"
           style="stroke-width:0.25;stroke-dasharray:none" />
        <path
           d="m 125.4922,70.882692 q 0.6177,0 1.05351,0.428225 0.4358,0.424436 0.4358,1.030773 0,0.602547 -0.40928,1.045931 -0.40927,0.443383 -0.99666,0.443383 -0.58739,0 -0.99667,-0.432015 -0.40928,-0.424435 -0.40928,-1.026982 0,-0.598758 0.37896,-1.042142 0.37896,-0.447173 0.94362,-0.447173 z m -0.42444,0.901926 v 1.045931 q 0,0.261482 0.12885,0.466121 0.13263,0.204639 0.3638,0.204639 0.22359,0 0.3638,-0.185691 0.14022,-0.18569 0.14022,-0.435804 v -1.095196 q 0,-0.219797 -0.15159,-0.38275 -0.15916,-0.159163 -0.37138,-0.159163 -0.20464,0 -0.34106,0.159163 -0.13264,0.159163 -0.13264,0.38275 z"
           id="path3513"
           style="stroke-width:0.25;stroke-dasharray:none" />
        <path
           d="m 129.44475,71.962729 0.61392,-0.303168 q -0.11369,-0.348644 -0.40928,-0.568441 -0.2918,-0.216007 -0.81097,-0.216007 -0.55328,0 -0.95498,0.435804 -0.40928,0.439595 -0.40928,1.030773 0,0.598757 0.42065,1.023193 0.41306,0.432015 1.00424,0.432015 0.39791,0 0.68971,-0.238745 0.29559,-0.234956 0.43959,-0.644233 l -0.66318,-0.257693 q -0.0303,0.261483 -0.12884,0.522965 -0.0985,0.261483 -0.43581,0.261483 -0.32969,0 -0.41307,-0.280431 -0.0796,-0.28043 -0.0796,-0.769289 0,-0.507807 0.0985,-0.822345 0.0985,-0.318326 0.42444,-0.318326 0.28422,0 0.40928,0.234955 0.12505,0.234956 0.20463,0.47749 z"
           id="path3515"
           style="stroke-width:0.25;stroke-dasharray:none" />
        <path
           d="m 160.08421,69.696546 -0.82613,-0.181901 q -0.23875,-0.06063 -0.37517,-0.147795 -0.14022,-0.09095 -0.14022,-0.28801 0,-0.178111 0.11369,-0.291799 0.11369,-0.117478 0.29559,-0.117478 0.12506,0 0.23116,0.06442 0.1099,0.06821 0.26907,0.19706 l 0.53812,0.485069 z"
           id="path3517"
           style="stroke-width:0.25;stroke-dasharray:none" />
        <path
           d="m 161.96385,73.076873 q -0.12884,-0.132636 -0.24632,-0.424436 -0.11369,-0.295589 -0.11369,-0.602547 0,-0.450963 0.19706,-0.822344 0.18948,-0.363802 0.57223,-0.363802 0.31075,0 0.4396,0.325906 0.13263,0.322116 0.13263,0.7655 0,0.238745 -0.16674,0.625285 -0.17432,0.38654 -0.31075,0.522965 0.0189,0.02274 0.14022,0.113688 0.11369,0.09474 0.20085,0.151585 0.0872,0.05305 0.14021,0.07579 0.0568,0.01895 0.1819,0.06442 l -0.0606,0.325906 q -0.12885,-0.02274 -0.21601,-0.04927 -0.0834,-0.02653 -0.21222,-0.08716 -0.12505,-0.06442 -0.25011,-0.162953 -0.12127,-0.09853 -0.19327,-0.170532 -0.14022,0.144005 -0.3638,0.28801 -0.2198,0.140215 -0.6215,0.140215 -0.32969,0 -0.56844,-0.159163 -0.24632,-0.159163 -0.42443,-0.329696 -0.0493,0.04548 -0.16296,0.132636 -0.10989,0.08337 -0.24253,0.151585 -0.13643,0.07579 -0.26527,0.125057 -0.13643,0.04926 -0.29559,0.08337 l -0.0985,-0.306958 q 0.0985,-0.03032 0.17432,-0.06442 0.072,-0.02653 0.20085,-0.109899 0.13263,-0.07958 0.23116,-0.174322 0.0985,-0.08716 0.15538,-0.147794 -0.12885,-0.128847 -0.28043,-0.466122 -0.15538,-0.341064 -0.15538,-0.56844 v -0.08337 q 0.0455,-0.428225 0.21222,-0.723814 0.16674,-0.299379 0.49644,-0.299379 0.34106,0 0.48128,0.325906 0.13643,0.333485 0.13643,0.795817 0,0.310748 -0.1099,0.602547 -0.11369,0.28801 -0.25012,0.424436 0.15917,0.151584 0.36002,0.299379 0.20084,0.147794 0.42443,0.147794 0.27285,0 0.44338,-0.121267 0.17054,-0.125057 0.28801,-0.250114 z"
           id="path3519"
           style="stroke-width:0.25;stroke-dasharray:none" />
        <path
           d="m 167.07603,73.402779 h -0.42443 v 0.394119 h 2.12597 v -0.409277 h -0.55708 v -4.320149 h 0.59118 v -0.439595 h -5.18418 v 0.439595 h 0.59118 v 4.320149 h -0.52296 v 0.409277 h 2.19039 v -0.394119 h -0.45855 v -4.335307 h 1.64848 z"
           id="path3521"
           style="stroke-width:0.25;stroke-dasharray:none" />
        <path
           d="m 169.55065,73.1034 v -1.853116 q 0,-0.18948 0.13263,-0.325906 0.12506,-0.132636 0.32212,-0.132636 0.20464,0 0.39791,0.162953 0.18569,0.170532 0.18569,0.394118 0,0.07579 -0.0265,0.132637 -0.0227,0.05305 -0.0834,0.072 -0.0152,0.0076 -0.0341,0.0076 -0.0265,0 -0.053,-0.01137 -0.0493,-0.01516 -0.0834,-0.03411 v 1.944067 q 0,0.151584 -0.11748,0.250114 -0.12885,0.102319 -0.29559,0.102319 -0.22359,0 -0.39791,-0.174321 -0.1819,-0.166743 -0.1819,-0.352434 0,-0.09853 0.0227,-0.144005 0.0227,-0.0379 0.0644,-0.05305 0.0341,-0.01137 0.0606,-0.01137 0.0114,0 0.0227,0 0.0379,0.01137 0.0644,0.02653 z"
           id="path3523"
           style="stroke-width:0.25;stroke-dasharray:none" />
        <path
           d="m 172.43074,70.882692 q 0.61771,0 1.05351,0.428225 0.43581,0.424436 0.43581,1.030773 0,0.602547 -0.40928,1.045931 -0.40928,0.443383 -0.99667,0.443383 -0.58739,0 -0.99666,-0.432015 -0.40928,-0.424435 -0.40928,-1.026982 0,-0.598758 0.37896,-1.042142 0.37896,-0.447173 0.94361,-0.447173 z m -0.42443,0.901926 v 1.045931 q 0,0.261482 0.12884,0.466121 0.13264,0.204639 0.3638,0.204639 0.22359,0 0.36381,-0.185691 0.14021,-0.18569 0.14021,-0.435804 v -1.095196 q 0,-0.219797 -0.15158,-0.38275 -0.15917,-0.159163 -0.37138,-0.159163 -0.20464,0 -0.34107,0.159163 -0.13263,0.159163 -0.13263,0.38275 z"
           id="path3525"
           style="stroke-width:0.25;stroke-dasharray:none" />
        <path
           d="m 176.26582,71.360182 q 0.2198,-0.234955 0.50781,-0.466121 0.28801,-0.234956 0.65939,-0.234956 0.0758,0 0.20843,0.01895 0.12506,0.02274 0.20843,0.174322 0.0872,0.151584 0.11369,0.409278 0,0.02653 0,0.05305 0,0.234955 -0.1478,0.48128 -0.17053,0.28422 -0.34864,0.28422 -0.0493,0 -0.0985,-0.04547 -0.053,-0.0379 -0.053,-0.125057 0,-0.04169 0.008,-0.128847 0.0114,-0.09095 0.0114,-0.132636 0,-0.121267 -0.10611,-0.174322 -0.11747,-0.05305 -0.26148,-0.05305 -0.13263,0 -0.26906,0.117478 -0.13643,0.113688 -0.15916,0.174321 0.0341,0.03411 0.1819,0.458543 0.14779,0.424435 0.14779,0.708656 0,0.37896 -0.16674,0.689708 -0.16295,0.310747 -0.45475,0.310747 -0.2577,0 -0.4396,-0.318327 -0.17811,-0.314537 -0.17811,-0.682128 0,-0.29559 0.1478,-0.67455 0.14779,-0.37896 0.28801,-0.519176 -0.0417,-0.09853 -0.0796,-0.147794 -0.0341,-0.05305 -0.14779,-0.155374 -0.1099,-0.106109 -0.28043,-0.170532 0.13264,0.151584 0.13264,0.375171 0,0.238745 -0.1857,0.386539 -0.18569,0.155374 -0.45475,0.155374 -0.2539,0 -0.43959,-0.19327 -0.1819,-0.197059 -0.1819,-0.458542 0,-0.325906 0.23116,-0.560861 0.23496,-0.238746 0.55707,-0.238746 0.34107,0 0.67834,0.284221 0.34107,0.280431 0.37138,0.397908 z"
           id="path3527"
           style="stroke-width:0.25;stroke-dasharray:none" />
        <path
           d="m 180.08196,73.353514 q 0.39791,0 0.66697,-0.397908 0.27285,-0.397909 0.27285,-0.894347 0,-0.515386 -0.28801,-0.913295 -0.29559,-0.401698 -0.75792,-0.401698 -0.23117,0 -0.4017,0.121268 -0.16674,0.121267 -0.30317,0.344854 -0.11369,-0.144005 -0.24632,-0.200849 -0.13643,-0.06063 -0.25012,-0.09853 -0.1099,-0.0379 -0.1819,-0.0379 -0.12505,0 -0.144,0.106109 0,0.01137 0,0.02274 0,0.08337 0.10232,0.162953 0.11368,0.09474 0.15916,0.181901 0.0379,0.08716 0.0568,0.185691 0.0227,0.09853 0.0227,0.234956 v 2.830834 q -0.0379,-0.03032 -0.0872,-0.04927 -0.0265,-0.01137 -0.0531,-0.01137 -0.0227,0 -0.0455,0.0038 -0.0682,0.01516 -0.1099,0.07579 -0.0379,0.06063 -0.0379,0.136426 0,0.19327 0.15916,0.329695 0.15916,0.136426 0.37138,0.136426 0.2198,0 0.36001,-0.170532 0.14022,-0.170532 0.14022,-0.397909 V 73.11098 q 0.0568,0.05306 0.24253,0.147795 0.18948,0.09474 0.35244,0.09474 z m -0.61392,-0.901926 v -0.818554 q 0,-0.181901 0.10232,-0.322117 0.10232,-0.144005 0.26906,-0.144005 0.18948,0 0.3297,0.125057 0.13642,0.132637 0.13642,0.322117 v 0.807185 q 0,0.185691 -0.12505,0.322117 -0.12506,0.136426 -0.31075,0.136426 -0.19706,0 -0.29938,-0.117478 -0.10232,-0.121267 -0.10232,-0.310748 z"
           id="path3529"
           style="stroke-width:0.25;stroke-dasharray:none" />
        <path
           d="m 182.86732,70.882692 q 0.6177,0 1.05351,0.428225 0.4358,0.424436 0.4358,1.030773 0,0.602547 -0.40928,1.045931 -0.40927,0.443383 -0.99666,0.443383 -0.58739,0 -0.99667,-0.432015 -0.40927,-0.424435 -0.40927,-1.026982 0,-0.598758 0.37896,-1.042142 0.37896,-0.447173 0.94361,-0.447173 z m -0.42444,0.901926 v 1.045931 q 0,0.261482 0.12885,0.466121 0.13263,0.204639 0.3638,0.204639 0.22359,0 0.3638,-0.185691 0.14022,-0.18569 0.14022,-0.435804 v -1.095196 q 0,-0.219797 -0.15159,-0.38275 -0.15916,-0.159163 -0.37138,-0.159163 -0.20464,0 -0.34106,0.159163 -0.13264,0.159163 -0.13264,0.38275 z"
           id="path3531"
           style="stroke-width:0.25;stroke-dasharray:none" />
      </g>
      <g
         aria-label="A"
         id="text1946-3"
         style="font-size:14.1111px;line-height:0;font-family:'CS New Athanasius';-inkscape-font-specification:'CS New Athanasius';text-align:center;text-anchor:middle;fill:none;stroke:#000000;stroke-width:0.499999"
         transform="translate(-38.6924,3.5826296)">
        <path
           d="m 139.78263,45.11355 q 0.0896,0.01378 0.15158,0.01378 0.44786,0 0.90951,-0.261827 0.46853,-0.254937 0.66834,-0.861274 0.18604,-0.606336 0.24805,-1.012857 0.0482,-0.406521 0.0482,-0.792371 0,-0.310059 -0.007,-0.819932 -0.0207,-0.516764 -0.0207,-0.578776 0,-1.536511 -0.26183,-2.129067 -0.25493,-0.599446 -0.54432,-0.689019 -0.28939,-0.09646 -0.38585,-0.09646 -0.17226,0 -0.26872,0.02756 -0.11024,0.04134 -0.14469,0.06201 0.22737,0.227376 0.45475,0.523654 0.22738,0.310058 0.22738,0.633897 0,0.475423 -0.38585,0.778591 -0.39964,0.296278 -0.92329,0.296278 -0.46853,0 -0.82682,-0.468532 -0.36518,-0.454753 -0.36518,-0.992187 0,-1.019748 0.93017,-1.522731 0.93707,-0.496094 2.25309,-0.496094 1.21957,0 2.34956,0.689019 1.12999,0.709689 1.66742,1.667425 0.52366,0.971516 0.76481,1.715656 0.24805,0.73725 0.4961,1.502061 0.25493,0.75792 0.56499,1.384927 0.29628,0.633897 0.61323,0.978406 0.31006,0.35829 0.78548,0.599446 0.23427,0.07579 0.38585,0.124024 0.15847,0.04134 0.15847,0.172254 0,0.310059 -0.37207,0.454753 -0.36518,0.137803 -0.8406,0.137803 -0.74414,0 -1.46072,-0.523654 -0.70969,-0.523654 -0.7717,-0.695908 -0.27561,0.454752 -0.90261,0.840602 -0.62012,0.37896 -1.23335,0.37896 -0.46164,0 -0.99907,-0.282497 -0.53055,-0.282498 -0.78548,-0.606337 -0.15848,0.248047 -0.82683,0.585666 -0.66145,0.344509 -1.08176,0.344509 -0.0965,0 -0.52365,-0.06201 -0.43408,-0.04823 -0.99908,-0.647678 -0.5581,-0.606336 -0.5581,-1.350476 0,-0.530544 0.37896,-0.902614 0.37207,-0.378961 0.90261,-0.378961 0.4961,0 0.88195,0.36518 0.39274,0.35829 0.39274,0.847493 0,0.09646 -0.0482,0.296278 -0.0482,0.199815 -0.29628,0.447862 -0.24805,0.248047 -0.39963,0.303168 z m 2.949,-4.492401 q 0,0.558105 -0.062,1.48828 -0.0551,0.943956 -0.0551,1.192003 0,0.709689 0.24805,1.295354 0.25494,0.578776 0.81993,0.578776 0.565,0 0.96463,-0.37896 0.40652,-0.385851 0.40652,-0.957736 0,-0.978406 -0.19982,-1.915472 -0.19292,-0.937065 -0.627,-1.88791 -0.44787,-0.937066 -0.9164,-1.391818 -0.46164,-0.461642 -0.79926,-0.606336 -0.33762,-0.151584 -0.43408,-0.151584 0.21359,0.537434 0.43408,1.233343 0.22049,0.689018 0.22049,1.50206 z"
           style="stroke-width:0.25;stroke-dasharray:none"
           id="path3562" />
      </g>
      <g
         aria-label="W"
         id="text1950-9"
         style="font-size:14.1111px;line-height:0;font-family:'CS New Athanasius';-inkscape-font-specification:'CS New Athanasius';text-align:center;text-anchor:middle;display:inline;fill:none;stroke:#000000;stroke-width:0.25;stroke-dasharray:none"
         transform="translate(-38.6924,3.5826296)">
        <path
           d="m 143.59945,199.9865 q -0.33762,0 -0.92329,1.30914 -0.59944,1.30913 -0.59944,2.5976 0,0.88194 0.3514,1.81212 0.33762,0.93706 0.81304,1.6123 -0.17226,0.25494 -0.50298,0.57189 -0.32384,0.31694 -0.75103,0.31694 -0.72347,0 -1.09554,-0.627 -0.38585,-0.62012 -0.50988,-1.46761 -0.11713,-0.8406 -0.11713,-1.83279 0,-0.90951 0.24116,-1.94303 0.24804,-1.03353 0.50298,-1.74322 0.24805,-0.71658 0.32384,-0.83371 h -2.96967 q -0.26872,0 -0.42719,0.0344 -0.15159,0.0276 -0.19982,0.13091 -0.007,0.0345 -0.007,0.062 0,0.11714 0.17226,0.24805 0.23426,0.17914 0.37207,0.26872 l 1.15755,0.74414 q -0.0689,0.0689 -0.38585,0.75103 -0.31695,0.67524 -0.60634,1.57785 -0.28939,0.90261 -0.28939,1.59852 0,1.44694 1.13688,2.65961 1.14377,1.20579 2.28754,1.20579 0.76481,0 1.17134,-0.2136 0.40652,-0.22048 0.94395,-0.76481 0.37207,0.37207 0.97841,0.66835 0.60633,0.31006 1.12999,0.31006 1.1231,0 2.27376,-1.21268 1.15066,-1.21956 1.15066,-2.65272 0,-0.71658 -0.2825,-1.60541 -0.2825,-0.88883 -0.60633,-1.56407 -0.31695,-0.68213 -0.39274,-0.75792 l 1.15755,-0.74414 q 0.39963,-0.26183 0.49609,-0.36518 0.062,-0.062 0.062,-0.13092 0,-0.0413 -0.0207,-0.0827 -0.0413,-0.0965 -0.2067,-0.1378 -0.17915,-0.0276 -0.42031,-0.0276 h -2.96967 q 0.0345,0.0482 0.32384,0.8406 0.27561,0.80615 0.51677,1.79834 0.22737,0.99907 0.22737,1.88102 0,0.9853 -0.11713,1.83279 -0.13091,0.86816 -0.50987,1.48139 -0.37207,0.61322 -1.09554,0.61322 -0.40652,0 -0.74414,-0.32383 -0.3514,-0.33073 -0.50988,-0.565 0.45476,-0.64079 0.81304,-1.59852 0.3514,-0.96463 0.3514,-1.8259 0,-1.38493 -0.57877,-2.64583 -0.57189,-1.26091 -1.11621,-1.26091 z"
           style="stroke-width:0.25;stroke-dasharray:none"
           id="path3565" />
      </g>
      <g
         aria-label="¨"
         id="text1954-1"
         style="font-size:14.1111px;line-height:0;font-family:'CS New Athanasius';-inkscape-font-specification:'CS New Athanasius';text-align:center;text-anchor:middle;display:inline;fill:none;stroke:#000000;stroke-width:0.25;stroke-dasharray:none"
         transform="translate(-38.6924,3.5826296)">
        <path
           d="m 139.58247,100.13812 q -0.24116,0.90261 -0.39963,1.14377 -0.16537,0.25493 -0.50299,0.25493 -0.41341,0 -0.72347,-0.44097 -0.1378,-0.22737 -0.17914,-0.52365 -0.0758,-0.1378 -0.0758,-0.26872 v -0.29628 l -0.0138,-0.530541 q 0,-0.992186 0.26871,-1.626084 0.2825,-0.537434 0.72347,-0.537434 0.64768,0 0.90262,1.329806 l 0.81304,-0.564995 q -0.68902,-1.11621 -1.71566,-1.11621 -0.22737,0 -0.80615,0.144693 -0.6339,0.220486 -0.95085,0.826823 -0.31694,0.606336 -0.35139,1.543401 0,1.171331 0.57877,1.832791 0.60634,0.6339 1.55718,0.6339 0.62012,0 1.0542,-0.39274 0.45475,-0.4961 0.6339,-0.90262 z m 2.11528,-2.191082 q 0.15159,-0.234266 0.2825,-0.282498 0.11024,-0.0689 0.37896,-0.0689 l 0.2825,0.117133 0.25494,0.220486 0.21359,0.282497 0.16537,0.282498 -0.33762,0.73725 -0.19982,0.489203 -0.12402,0.372073 -0.0276,0.32383 0.0276,0.37896 0.0689,0.36518 0.13091,0.32384 0.11025,0.22738 0.28249,0.33762 q 0.15848,0.11713 0.26872,0.11713 0.37896,-0.14469 0.565,-0.53743 0.0965,-0.25494 0.1378,-0.57878 l 0.0896,-0.68902 q 0,-0.25493 -0.15847,-0.806147 l -0.37896,-1.019748 q 0.16536,-0.310058 0.44786,-0.461642 0.31006,-0.199816 0.46853,-0.199816 0.15159,0.04134 0.23427,0.213596 0.0896,0.165364 0.0896,0.551215 v 0.254937 q 0.32384,0 0.43408,-0.254937 0.13092,-0.268717 0.13092,-0.399631 0,-1.054198 -0.81994,-1.054198 -0.68901,0 -1.24023,1.054198 -0.53743,-1.012857 -1.24023,-1.012857 -0.25494,0 -0.47542,0.151584 -0.22049,0.144694 -0.34451,0.344509 l -0.0965,0.192925 q -0.062,0.103353 -0.062,0.199816 l -0.0413,0.37896 q 0,0.323839 0.19982,0.564995 0.22737,0.199816 0.44786,0.199816 0.29628,0 0.47542,-0.241157 0.17915,-0.241156 0.17915,-0.523654 0,-0.151584 -0.20671,-0.3514 -0.20671,-0.199815 -0.61323,-0.199815 z m 5.69819,0.08957 q 0.26871,0.05512 0.45475,0.323838 l 0.24116,0.3514 0.29627,0.537434 0.23427,0.406521 0.34451,0.523659 q 0.26183,0.31006 0.51676,0.31006 v 1.6812 h 1.07487 v -3.837835 q 0.25494,-0.427191 0.25494,-0.537434 l -0.62012,-0.606336 q -0.45475,0 -0.58566,0.158474 -0.12403,0.151584 -0.12403,0.248047 v 2.218639 q -0.2067,0 -0.4203,-0.296278 l -0.6339,-0.964626 -0.37207,-0.516763 -0.37896,-0.509874 q -0.33761,-0.337619 -0.59255,-0.337619 -0.36518,0 -0.565,0.151584 -0.1378,0.186035 -0.1378,0.537434 v 3.362417 q -0.29628,0.29627 -0.29628,0.44786 l 0.75792,0.48231 q 0.32384,0 0.41341,-0.11713 0.13781,-0.0965 0.13781,-0.3514 z m -5.84288,-3.541556 0.0276,0.502984 0.0896,0.39963 q 0.11025,0.378961 0.37896,0.702799 0.48232,0.606337 1.39871,0.606337 0.39274,0 0.68902,-0.110243 0.29628,-0.117133 0.51676,-0.303168 0.22049,-0.192926 0.3514,-0.427192 0.13781,-0.241156 0.19293,-0.509874 0.0965,-0.254937 0.0965,-0.413411 l 0.0138,-0.447862 h 0.41341 v -0.620117 h -0.35829 l -0.0551,-0.468532 -0.11024,-0.392741 q -0.17226,-0.399631 -0.43408,-0.702799 -0.26183,-0.303168 -0.61323,-0.440972 -0.36518,-0.172254 -0.80615,-0.172254 -0.4203,0 -0.75792,0.172254 -0.33762,0.165365 -0.565,0.461643 -0.22737,0.296278 -0.3514,0.695909 -0.11713,0.39274 -0.11713,0.847492 h -0.46164 v 0.620117 z m 1.07487,-0.620117 q 0,-0.964626 0.17225,-1.343586 0.26872,-0.39274 0.57878,-0.39274 0.31006,0.04134 0.43408,0.124023 0.15847,0.0689 0.24116,0.296278 0.11024,0.227376 0.11024,0.482313 l 0.0413,0.833712 z m 0,0.620117 h 1.57785 l -0.0551,0.930175 -0.1378,0.551215 q -0.15848,0.241156 -0.26872,0.282498 l -0.31006,0.04134 q -0.38585,0 -0.59945,-0.413411 -0.2067,-0.420302 -0.2067,-1.391818 z m 0.81993,12.567698 0.50987,0.34451 0.22049,0.11025 q 0.29628,0.1378 0.79237,0.1378 0.40652,0 0.70969,-0.20671 0.30317,-0.19981 0.51676,-0.55121 0.25494,-0.33762 0.33762,-0.80615 0.11714,-0.33762 0.11714,-0.94396 l -0.0276,-0.40652 -0.0758,-0.37207 q -0.0827,-0.37896 -0.2067,-0.60634 -0.19982,-0.32383 -0.4203,-0.59255 -0.22049,-0.26872 -0.44097,-0.46164 l -0.60634,0.68901 0.12402,0.12403 0.29628,0.29628 0.0827,0.11713 0.1447,0.17914 0.11024,0.1447 q 0.10335,0.1378 0.10335,0.36518 l 0.0276,0.14469 v 0.15159 0.22737 q 0,0.39274 -0.0896,0.74414 -0.26872,0.81993 -0.64768,1.04731 -0.36518,0.17226 -0.62011,0.17226 l -0.3514,-0.11714 -0.29628,-0.31006 0.25494,-0.53743 0.17914,-0.40652 0.0896,-0.39274 0.0276,-0.15848 v -0.15158 -0.2136 -0.10335 l -0.0276,-0.3514 -0.0758,-0.37896 -0.23427,-0.68902 -0.14469,-0.29628 -0.1378,-0.21359 q -0.15848,-0.19982 -0.25494,-0.19982 -0.18603,0.10336 -0.2136,0.19982 l -0.17225,0.32384 -0.12402,0.31006 q -0.13781,0.25493 -0.22738,0.76481 l -0.0827,0.68901 0.0276,0.45476 0.0965,0.40652 0.17226,0.43408 0.26871,0.50987 q -0.15847,0.24116 -0.37207,0.33073 -0.2067,0.0965 -0.4892,0.0965 -0.2825,-0.0758 -0.44786,-0.19293 -0.15848,-0.11713 -0.31695,-0.37207 -0.19293,-0.25494 -0.2825,-0.60634 -0.0827,-0.34451 -0.0827,-0.79237 l 0.0138,-0.40652 0.0551,-0.33073 0.13092,-0.24804 0.12402,-0.19982 0.21359,-0.25494 0.29628,-0.31006 -0.55121,-0.70279 q -0.37896,0.33762 -0.59256,0.67523 l -0.21359,0.33762 -0.13781,0.29628 q -0.14469,0.25494 -0.18603,0.59256 l -0.0413,0.55121 q 0,0.59256 0.13091,1.06109 0.11024,0.31006 0.2136,0.50987 0.11024,0.20671 0.19292,0.31695 0.26872,0.33762 0.55122,0.46854 0.28249,0.15158 0.53743,0.15158 l 0.44786,-0.0413 0.36518,-0.0965 q 0.42719,-0.2136 0.70969,-0.45476 z"
           style="stroke-width:0.25;stroke-dasharray:none"
           id="path3568" />
      </g>
    </g>
  </g>
</svg>
