<?xml version="1.0" encoding="UTF-8" standalone="no"?>
<!-- Created with Inkscape (http://www.inkscape.org/) -->

<svg
   width="113.16599mm"
   height="113.16579mm"
   viewBox="0 0 113.16599 113.16579"
   version="1.1"
   id="svg5"
   inkscape:version="1.2.1 (9c6d41e410, 2022-07-14)"
   sodipodi:docname="wordcross.svg"
   xmlns:inkscape="http://www.inkscape.org/namespaces/inkscape"
   xmlns:sodipodi="http://sodipodi.sourceforge.net/DTD/sodipodi-0.dtd"
   xmlns="http://www.w3.org/2000/svg"
   xmlns:svg="http://www.w3.org/2000/svg">
  <sodipodi:namedview
     id="namedview7"
     pagecolor="#ffffff"
     bordercolor="#000000"
     borderopacity="0.25"
     inkscape:showpageshadow="2"
     inkscape:pageopacity="0.0"
     inkscape:pagecheckerboard="0"
     inkscape:deskcolor="#d1d1d1"
     inkscape:document-units="mm"
     showgrid="false"
     inkscape:zoom="0.84096521"
     inkscape:cx="-85.021353"
     inkscape:cy="551.15241"
     inkscape:window-width="1920"
     inkscape:window-height="1112"
     inkscape:window-x="-8"
     inkscape:window-y="-8"
     inkscape:window-maximized="1"
     inkscape:current-layer="layer2" />
  <defs
     id="defs2" />
  <g
     inkscape:groupmode="layer"
     id="layer2"
     inkscape:label="Back"
     style="display:inline"
     transform="translate(-48.417001,-149.64964)">
    <path
       id="path1253-8"
       style="display:inline;fill:none;stroke:#0000ff;stroke-width:0.25"
       d="m 104.62499,150.19921 c -9.189772,9.19109 -18.382156,18.37957 -27.570305,27.57227 2.379241,2.38508 4.76198,4.76667 7.142578,7.15039 -0.355271,0.69563 -0.754679,0.40027 -1.132673,-0.11277 -2.175144,-2.17403 -4.350564,-4.34779 -6.525531,-6.52199 -9.316729,9.31347 -18.631838,18.62858 -27.945312,27.94531 9.313473,9.31673 18.628585,18.63184 27.945312,27.94531 2.383038,-2.38128 4.766997,-4.76165 7.150391,-7.14258 0.698569,0.35322 0.398651,0.7533 -0.112684,1.13082 -2.174076,2.17574 -4.347739,4.35191 -6.522081,6.52739 9.313473,9.31673 18.628584,18.63184 27.945305,27.94531 9.31673,-9.31347 18.63185,-18.62858 27.94532,-27.94531 -2.37924,-2.38508 -4.76198,-4.76667 -7.14258,-7.15039 0.35528,-0.69563 0.75468,-0.40027 1.13268,0.11277 2.17514,2.17403 4.35056,4.34779 6.52553,6.52199 9.31673,-9.31347 18.63184,-18.62858 27.94531,-27.94531 -9.31347,-9.31673 -18.62858,-18.63184 -27.94531,-27.94531 -2.38304,2.38128 -4.767,4.76165 -7.15039,7.14258 -0.69884,-0.35287 -0.39761,-0.75091 0.11259,-1.12895 2.17413,-2.17635 4.34769,-4.35327 6.52217,-6.52926 -9.31347,-9.31673 -18.62859,-18.63184 -27.94532,-27.94531 -0.125,0.12435 -0.25,0.24869 -0.375,0.37304 z"
       inkscape:label="referenceouter" />
    <g
       aria-label="¨"
       id="text2457"
       style="font-size:50.8px;line-height:0;font-family:'CS New Athanasius';-inkscape-font-specification:'CS New Athanasius';text-align:center;text-anchor:middle;fill:#ff0000;stroke:#000000;stroke-width:0.25"
       inkscape:label="cyntheo">
      <path
         d="m 90.204001,207.89445 q -0.868164,3.24941 -1.438672,4.11757 -0.595312,0.91778 -1.810742,0.91778 -1.488281,0 -2.604492,-1.5875 -0.496094,-0.81856 -0.644922,-1.88516 -0.272852,-0.49609 -0.272852,-0.96738 v -1.0666 l -0.04961,-1.90996 q 0,-3.57188 0.967383,-5.85391 1.016992,-1.93477 2.604492,-1.93477 2.331641,0 3.249414,4.78731 l 2.926953,-2.03399 q -2.480469,-4.01835 -6.176367,-4.01835 -0.818555,0 -2.902148,0.52089 -2.282032,0.79375 -3.423047,2.97657 -1.141016,2.18281 -1.265039,5.55625 0,4.21679 2.083594,6.59804 2.182812,2.28203 5.605859,2.28203 2.232422,0 3.795117,-1.41386 1.637109,-1.78594 2.282031,-3.24942 z m 7.615039,-7.88789 q 0.545703,-0.84336 1.016992,-1.017 0.396875,-0.24804 1.364258,-0.24804 l 1.01699,0.42168 0.91778,0.79375 0.76894,1.01699 0.59531,1.01699 -1.21543,2.6541 -0.71933,1.76113 -0.44649,1.33946 -0.0992,1.16582 0.0992,1.36426 0.24805,1.31464 0.47129,1.16582 0.39687,0.81856 1.017,1.21543 q 0.5705,0.42168 0.96738,0.42168 1.36426,-0.5209 2.03398,-1.93477 0.34727,-0.91777 0.4961,-2.08359 l 0.32246,-2.48047 q 0,-0.91777 -0.57051,-2.90215 l -1.36426,-3.67109 q 0.59532,-1.11621 1.61231,-1.66192 1.11621,-0.71933 1.68672,-0.71933 0.5457,0.14883 0.84336,0.76894 0.32246,0.59532 0.32246,1.98438 v 0.91777 q 1.16582,0 1.56269,-0.91777 0.47129,-0.96738 0.47129,-1.43867 0,-3.79512 -2.95176,-3.79512 -2.48047,0 -4.46484,3.79512 -1.93477,-3.64629 -4.464844,-3.64629 -0.917774,0 -1.711524,0.5457 -0.79375,0.5209 -1.240234,1.24024 l -0.347266,0.69453 q -0.223242,0.37207 -0.223242,0.71933 l -0.148828,1.36426 q 0,1.16582 0.719336,2.03398 0.818555,0.71934 1.612305,0.71934 1.066601,0 1.711527,-0.86816 0.64492,-0.86817 0.64492,-1.88516 0,-0.5457 -0.74414,-1.26504 -0.744143,-0.71933 -2.20762,-0.71933 z m 20.51348,0.32246 q 0.96738,0.19843 1.63711,1.16582 l 0.86816,1.26504 1.0666,1.93476 0.84336,1.46348 1.24023,1.88515 q 0.94258,1.11622 1.86036,1.11622 v 6.05234 h 3.86953 v -13.81621 q 0.91777,-1.53789 0.91777,-1.93477 l -2.23242,-2.18281 q -1.63711,0 -2.1084,0.57051 -0.44648,0.5457 -0.44648,0.89297 v 7.98711 q -0.74414,0 -1.51309,-1.06661 l -2.28203,-3.47265 -1.33945,-1.86035 -1.36426,-1.83555 q -1.21543,-1.21543 -2.1332,-1.21543 -1.31465,0 -2.03399,0.5457 -0.49609,0.66973 -0.49609,1.93477 v 12.10469 q -1.0666,1.0666 -1.0666,1.6123 l 2.72851,1.73633 q 1.16582,0 1.48828,-0.42168 0.4961,-0.34727 0.4961,-1.26504 z m -21.034378,-12.74961 0.09922,1.81074 0.322461,1.43867 q 0.396875,1.36426 1.364258,2.53008 1.736329,2.18281 5.035349,2.18281 1.41387,0 2.48047,-0.39687 1.0666,-0.42168 1.86035,-1.09141 0.79375,-0.69453 1.26504,-1.53789 0.49609,-0.86816 0.69453,-1.83555 0.34727,-0.91777 0.34727,-1.48828 l 0.0496,-1.6123 h 1.48828 v -2.23242 h -1.28985 l -0.19843,-1.68672 -0.39688,-1.41387 q -0.62012,-1.43867 -1.56269,-2.53008 -0.94258,-1.0914 -2.20762,-1.5875 -1.31465,-0.62012 -2.90215,-0.62012 -1.51309,0 -2.72852,0.62012 -1.215423,0.59531 -2.033978,1.66192 -0.818554,1.0666 -1.265039,2.50527 -0.421679,1.41387 -0.421679,3.05098 H 95.63622 v 2.23242 z m 3.869528,-2.23242 q 0,-3.47266 0.62012,-4.83692 0.96738,-1.41387 2.08359,-1.41387 1.11621,0.14883 1.5627,0.44649 0.57051,0.24805 0.86816,1.0666 0.39688,0.81855 0.39688,1.73633 l 0.14883,3.00137 z m 0,2.23242 h 5.68028 l -0.19844,3.34863 -0.4961,1.98438 q -0.5705,0.86816 -0.96738,1.01699 l -1.11621,0.14883 q -1.38906,0 -2.15801,-1.48829 -0.74414,-1.51308 -0.74414,-5.01054 z m 2.95176,45.24375 1.83555,1.24023 0.79375,0.39688 q 1.0666,0.49609 2.85254,0.49609 1.46347,0 2.55488,-0.74414 1.09141,-0.71934 1.86035,-1.98438 0.91777,-1.21543 1.21543,-2.90214 0.42168,-1.21543 0.42168,-3.39825 l -0.0992,-1.46347 -0.27285,-1.33946 q -0.29766,-1.36425 -0.74414,-2.18281 -0.71934,-1.16582 -1.51309,-2.1332 -0.79375,-0.96738 -1.5875,-1.66192 l -2.18281,2.48047 0.44649,0.44649 1.0666,1.0666 0.29765,0.42168 0.5209,0.64492 0.39688,0.5209 q 0.37207,0.49609 0.37207,1.31465 l 0.0992,0.5209 v 0.5457 0.81855 q 0,1.41387 -0.32247,2.67891 -0.96738,2.95176 -2.33164,3.77031 -1.31464,0.62012 -2.23242,0.62012 l -1.26504,-0.42168 -1.0666,-1.11621 0.91777,-1.93477 0.64493,-1.46347 0.32246,-1.41387 0.0992,-0.57051 v -0.5457 -0.76895 -0.37207 l -0.0992,-1.26504 -0.27285,-1.36425 -0.84336,-2.48047 -0.5209,-1.0666 -0.4961,-0.76895 q -0.5705,-0.71934 -0.91777,-0.71934 -0.66973,0.37207 -0.76894,0.71934 l -0.62012,1.16582 -0.44649,1.11621 q -0.49609,0.91778 -0.81855,2.75332 l -0.29766,2.48047 0.0992,1.63711 0.34727,1.46348 0.62011,1.56269 0.96739,1.83555 q -0.57051,0.86816 -1.33946,1.19062 -0.74414,0.34727 -1.76113,0.34727 -1.01699,-0.27285 -1.612303,-0.69453 -0.570508,-0.42168 -1.141015,-1.33945 -0.694532,-0.91778 -1.016993,-2.18282 -0.297656,-1.24023 -0.297656,-2.85254 l 0.04961,-1.46347 0.198437,-1.19063 0.471289,-0.89297 0.446484,-0.71933 0.768946,-0.91778 1.066601,-1.11621 -1.984375,-2.53008 q -1.364257,1.21543 -2.133203,2.43086 l -0.768945,1.21543 -0.496094,1.06661 q -0.520898,0.91777 -0.669726,2.1332 l -0.148828,1.98437 q 0,2.13321 0.471289,3.81993 0.396875,1.11621 0.768945,1.83554 0.396875,0.74414 0.694531,1.14102 0.967383,1.21543 1.984375,1.68672 1.016992,0.5457 1.934766,0.5457 l 1.612305,-0.14883 1.31465,-0.34726 q 1.53789,-0.76895 2.55488,-1.63711 z"
         id="path2459" />
    </g>
  </g>
</svg>
