<?xml version="1.0" encoding="UTF-8" standalone="no"?>
<!-- Created with Inkscape (http://www.inkscape.org/) -->

<svg
   width="210mm"
   height="297mm"
   viewBox="0 0 210 297"
   version="1.1"
   id="svg1"
   inkscape:version="1.3 (0e150ed6c4, 2023-07-21)"
   sodipodi:docname="drawing.svg"
   xmlns:inkscape="http://www.inkscape.org/namespaces/inkscape"
   xmlns:sodipodi="http://sodipodi.sourceforge.net/DTD/sodipodi-0.dtd"
   xmlns="http://www.w3.org/2000/svg"
   xmlns:svg="http://www.w3.org/2000/svg">
  <sodipodi:namedview
     id="namedview1"
     pagecolor="#ffffff"
     bordercolor="#000000"
     borderopacity="0.25"
     inkscape:showpageshadow="2"
     inkscape:pageopacity="0.0"
     inkscape:pagecheckerboard="0"
     inkscape:deskcolor="#d1d1d1"
     inkscape:document-units="mm"
     inkscape:zoom="1"
     inkscape:cx="176"
     inkscape:cy="433.5"
     inkscape:window-width="1920"
     inkscape:window-height="1009"
     inkscape:window-x="-8"
     inkscape:window-y="-8"
     inkscape:window-maximized="1"
     inkscape:current-layer="layer1" />
  <defs
     id="defs1" />
  <g
     inkscape:label="Layer 1"
     inkscape:groupmode="layer"
     id="layer1"
     style="display:inline">
    <g
       id="g75"
       style="display:inline">
      <path
         id="path42"
         style="display:inline;fill:#ffb380;stroke-width:0.201388"
         d="m 58.187663,94.863977 -2.242757,2.242757 h 2.24224 z m 1.999878,5.17e-4 v 2.241723 h 2.241723 z m -4.243152,4.241601 2.242757,2.242755 v -2.242755 z m 4.243152,5.17e-4 -5.17e-4,2.242238 2.242757,-2.242238 z" />
      <path
         id="path38"
         style="display:inline;fill:#ffb380;stroke-width:0.201388"
         d="m 48.459574,66.690503 4.364075,4.363558 4.363558,-4.363558 z m 12.727389,0 4.364075,4.364075 4.364074,-4.364075 z m 10.142533,1.413867 -4.364074,4.364592 4.364074,4.364074 z m -24.284306,5.17e-4 v 8.727633 l 4.363558,-4.363558 z m 0,12.727388 v 8.72815 l 4.364075,-4.364075 z m 24.284306,5.17e-4 -4.364074,4.364075 4.364074,4.363558 z m -18.505847,5.777942 -4.364591,4.364075 h 8.728666 z m 12.727905,0 -4.364074,4.364075 h 8.727632 z" />
      <path
         id="path36"
         style="display:inline;fill:#ff6600;stroke-width:0.201388"
         d="m 58.187663,68.518815 -3.94963,3.94963 2.924369,2.924369 A 4,4 0 0 1 58.187663,74.967 Z m 1.999878,0 v 6.441467 a 4,4 0 0 1 1.030945,0.426848 l 2.918684,-2.918685 z m 5.364013,5.364014 -2.919201,2.918685 a 4,4 0 0 1 0.427364,1.031461 h 6.441984 z m -12.728422,5.17e-4 -3.949629,3.949629 h 6.448185 a 4,4 0 0 1 0.425814,-1.02526 z m -3.949629,5.949507 3.949629,3.94963 2.92437,-2.924369 a 4,4 0 0 1 -0.425297,-1.025261 z m 14.178979,0 a 4,4 0 0 1 -0.425297,1.025261 l 2.924369,2.923852 3.949113,-3.949113 z m -5.890596,2.439128 -2.92437,2.924886 3.950147,3.950146 v -6.448702 a 4,4 0 0 1 -1.025777,-0.42633 z m 4.050915,5.17e-4 a 4,4 0 0 1 -1.02526,0.425297 v 6.448185 l 3.949113,-3.949113 z" />
      <path
         id="path30"
         style="display:inline;fill:#ffb380;stroke-width:0.201388"
         d="m 77.584412,75.590218 -2.242241,2.242757 h 2.242241 z m 2.000394,5.17e-4 v 2.241723 h 2.241724 z m -4.243668,4.241601 2.243274,2.242758 v -2.242758 z m 4.243668,0 -5.16e-4,2.242758 2.242757,-2.242758 z" />
      <path
         id="path28"
         style="display:inline;fill:#ffb380;stroke-width:0.201388"
         d="m 38.930957,75.590218 -2.24224,2.242757 h 2.24224 z m 2.000395,5.17e-4 v 2.241723 h 2.241723 z m -4.243669,4.241601 2.243274,2.242758 v -2.242758 z m 4.243669,0 -5.17e-4,2.242758 2.242757,-2.242758 z" />
      <path
         id="path14"
         style="display:inline;fill:#ffb380;stroke-width:0.201388"
         d="m 58.187663,56.013118 -2.242757,2.242758 h 2.24224 z m 1.999878,5.17e-4 v 2.241724 h 2.241723 z m -4.243152,4.241602 2.242757,2.242757 v -2.242757 z m 4.243152,5.17e-4 -5.17e-4,2.24224 2.242757,-2.24224 z" />
    </g>
    <path
       id="path139"
       style="display:inline;fill:none;stroke:#000000;stroke-width:0.264583"
       d="m 58.187663,56.013118 -2.242757,2.242758 h 2.24224 z m 1.999878,0 v 2.242241 h 2.24224 z m -4.243152,4.242119 2.242757,2.242757 v -2.242757 z m 4.243152,5.17e-4 -5.17e-4,2.24224 2.242757,-2.24224 z m -11.727967,6.434749 4.364075,4.363558 4.363558,-4.363558 z m 12.727389,0 4.364075,4.364075 4.364074,-4.364075 z m 10.142533,1.413867 -4.364074,4.364592 4.364074,4.364074 z m -24.284306,5.17e-4 v 8.727633 l 4.363558,-4.363558 z m 11.142473,0.413928 -3.94963,3.94963 2.924369,2.924369 A 4,4 0 0 1 58.187663,74.967 Z m 1.999878,0 v 6.441467 a 4,4 0 0 1 1.030945,0.426848 l 2.918684,-2.918685 z m 5.364013,5.364014 -2.919201,2.918685 a 4,4 0 0 1 0.427364,1.031461 h 6.441984 z m -12.728422,5.17e-4 -3.949629,3.949629 h 6.448185 a 4,4 0 0 1 0.425814,-1.02526 z m -13.892175,1.706872 -2.24224,2.242757 h 2.24224 z m 2.000395,0 v 2.24224 h 2.24224 z m 36.65306,0 -2.242241,2.242757 h 2.242241 z m 2.000394,0 v 2.24224 h 2.242241 z m -42.897123,4.242118 2.243274,2.242758 v -2.242758 z m 4.243669,0 -5.17e-4,2.242758 2.242757,-2.242758 z m 34.409786,0 2.243274,2.242758 v -2.242758 z m 4.243668,0 -5.16e-4,2.242758 2.242757,-2.242758 z m -30.711303,5.17e-4 3.949629,3.94963 2.92437,-2.924369 a 4,4 0 0 1 -0.425297,-1.025261 z m 14.178979,0 a 4,4 0 0 1 -0.425297,1.025261 l 2.924369,2.923852 3.949113,-3.949113 z M 47.04519,80.832275 v 8.72815 l 4.364075,-4.364075 z m 24.284306,5.17e-4 -4.364074,4.364075 4.364074,4.363558 z m -14.16761,1.439189 -2.92437,2.924886 3.950147,3.950146 v -6.448702 a 4,4 0 0 1 -1.025777,-0.42633 z m 4.050915,5.17e-4 a 4,4 0 0 1 -1.02526,0.425297 v 6.448185 l 3.949113,-3.949113 z m -8.389152,4.338236 -4.364591,4.364075 h 8.728666 z m 12.727905,0 -4.364074,4.364075 h 8.727632 z m -7.363891,8.253243 -2.242757,2.242757 h 2.24224 z m 1.999878,0 v 2.24224 h 2.24224 z m -4.243152,4.242118 2.242757,2.242755 v -2.242755 z m 4.243152,5.17e-4 -5.17e-4,2.236038 a 5,5 0 0 1 0.0057,5.2e-4 l 2.237073,-2.236558 z" />
    <path
       style="display:inline;fill:none;stroke:#ff2a2a;stroke-width:0.264583"
       d="m 59.187602,51.598918 a 2,2 0 0 0 -1.414384,0.585494 2,2 0 0 0 -0.508496,1.922363 l -3.22616,3.22616 a 2,2 0 0 0 -1.922363,0.508496 2,2 0 0 0 5.16e-4,2.828251 2,2 0 0 0 1.922364,0.508496 l 3.225643,3.225643 a 2,2 0 0 0 -0.03824,0.286804 h -9.490893 a 2,2 0 0 0 -1.690337,-0.999939 2,2 0 0 0 -1.999877,1.999878 2,2 0 0 0 0.999938,1.690336 v 9.495028 l -3.191536,-3.191537 a 2,2 0 0 0 -0.508496,-1.922363 2,2 0 0 0 -2.828768,-5.17e-4 2,2 0 0 0 -0.507979,1.922364 l -3.22616,3.226159 a 2,2 0 0 0 -1.922363,0.508496 2,2 0 0 0 0,2.828251 2,2 0 0 0 1.922363,0.508497 l 3.22616,3.225642 a 2,2 0 0 0 0.507979,1.922364 2,2 0 0 0 2.828768,5.16e-4 2,2 0 0 0 0.508496,-1.922363 l 3.191536,-3.191536 v 9.494511 a 2,2 0 0 0 -0.999938,1.690336 2,2 0 0 0 1.999877,1.999878 2,2 0 0 0 1.690337,-0.999939 h 9.51208 l -3.209106,3.209106 a 2,2 0 0 0 -1.922363,0.508496 2,2 0 0 0 5.16e-4,2.828768 2,2 0 0 0 1.922364,0.507983 l 2.231388,2.2319 a 5,5 0 0 0 -2.012797,3.99356 5,5 0 0 0 2.157491,4.10207 v 52.09088 a 5.5,5 0 0 0 -2.657202,4.27157 5.5,5 0 0 0 5.499923,4.9997 5.5,5 0 0 0 5.499922,-4.9997 5.5,5 0 0 0 -2.657719,-4.27932 v -52.08313 a 5,5 0 0 0 2.157491,-4.10207 5,5 0 0 0 -2.08566,-4.06125 l 2.164209,-2.16421 a 2,2 0 0 0 1.922363,-0.507983 2,2 0 0 0 -5.17e-4,-2.828768 2,2 0 0 0 -1.922363,-0.508496 L 61.126502,92.974687 H 70.6391 a 2,2 0 0 0 1.690336,0.999939 2,2 0 0 0 1.999878,-1.999878 2,2 0 0 0 -0.999939,-1.690336 V 80.76923 a 2,2 0 0 0 0.106454,-0.01395 l 3.226159,3.225642 a 2,2 0 0 0 0.50798,1.922364 2,2 0 0 0 2.828768,5.16e-4 2,2 0 0 0 0.508496,-1.922363 l 3.226159,-3.226159 a 2,2 0 0 0 1.922364,-0.508497 2,2 0 0 0 -5.17e-4,-2.828251 2,2 0 0 0 -1.922363,-0.508496 l -3.225643,-3.225643 a 2,2 0 0 0 -0.508496,-1.922363 2,2 0 0 0 -2.828768,-5.17e-4 2,2 0 0 0 -0.50798,1.922364 l -3.226159,3.226159 a 2,2 0 0 0 -0.106454,-0.01395 V 67.3809 a 2,2 0 0 0 0.999939,-1.690336 2,2 0 0 0 -1.999878,-1.999878 2,2 0 0 0 -1.690336,0.999939 h -9.474874 a 2,2 0 0 0 -0.05426,-0.286287 l 3.22616,-3.22616 a 2,2 0 0 0 1.922363,-0.508496 2,2 0 0 0 -5.17e-4,-2.828251 2,2 0 0 0 -1.922363,-0.508496 l -3.225643,-3.225643 a 2,2 0 0 0 -0.508496,-1.922364 2,2 0 0 0 -1.413868,-0.58601 z"
       id="path107" />
  </g>
  <g
     inkscape:groupmode="layer"
     id="layer2"
     inkscape:label="Ref"
     style="display:none">
    <path
       id="path11"
       style="display:inline;fill:none;stroke:#000000;stroke-width:0.264583"
       d="m 59.187602,51.598918 a 2,2 0 0 0 -1.414384,0.585494 2,2 0 0 0 -0.508496,1.922363 l -3.22616,3.22616 a 2,2 0 0 0 -1.922363,0.508496 2,2 0 0 0 5.16e-4,2.828251 2,2 0 0 0 1.922364,0.508496 l 3.225643,3.225643 a 2,2 0 0 0 -0.03824,0.286804 h -9.490893 a 2,2 0 0 0 -1.690337,-0.999939 2,2 0 0 0 -1.999877,1.999878 2,2 0 0 0 0.999938,1.690336 v 9.495028 l -3.191536,-3.191537 a 2,2 0 0 0 -0.508496,-1.922363 2,2 0 0 0 -2.828768,-5.17e-4 2,2 0 0 0 -0.507979,1.922364 l -3.22616,3.226159 a 2,2 0 0 0 -1.922363,0.508496 2,2 0 0 0 0,2.828251 2,2 0 0 0 1.922363,0.508497 l 3.22616,3.225642 a 2,2 0 0 0 0.507979,1.922364 2,2 0 0 0 2.828768,5.16e-4 2,2 0 0 0 0.508496,-1.922363 l 3.191536,-3.191536 v 9.494511 a 2,2 0 0 0 -0.999938,1.690336 2,2 0 0 0 1.999877,1.999878 2,2 0 0 0 1.690337,-0.999939 h 9.51208 l -3.209106,3.209106 a 2,2 0 0 0 -1.922363,0.508496 2,2 0 0 0 5.16e-4,2.828768 2,2 0 0 0 1.922364,0.507983 l 2.231388,2.2319 a 5,5 0 0 0 -2.012797,3.99356 5,5 0 0 0 2.157491,4.10207 v 52.09088 a 5.5,5 0 0 0 -2.657202,4.27157 5.5,5 0 0 0 5.499923,4.9997 5.5,5 0 0 0 5.499922,-4.9997 5.5,5 0 0 0 -2.657719,-4.27932 v -52.08313 a 5,5 0 0 0 2.157491,-4.10207 5,5 0 0 0 -2.08566,-4.06125 l 2.164209,-2.16421 a 2,2 0 0 0 1.922363,-0.507983 2,2 0 0 0 -5.17e-4,-2.828768 2,2 0 0 0 -1.922363,-0.508496 L 61.126502,92.974687 H 70.6391 a 2,2 0 0 0 1.690336,0.999939 2,2 0 0 0 1.999878,-1.999878 2,2 0 0 0 -0.999939,-1.690336 V 80.76923 a 2,2 0 0 0 0.106454,-0.01395 l 3.226159,3.225642 a 2,2 0 0 0 0.50798,1.922364 2,2 0 0 0 2.828768,5.16e-4 2,2 0 0 0 0.508496,-1.922363 l 3.226159,-3.226159 a 2,2 0 0 0 1.922364,-0.508497 2,2 0 0 0 -5.17e-4,-2.828251 2,2 0 0 0 -1.922363,-0.508496 l -3.225643,-3.225643 a 2,2 0 0 0 -0.508496,-1.922363 2,2 0 0 0 -2.828768,-5.17e-4 2,2 0 0 0 -0.50798,1.922364 l -3.226159,3.226159 a 2,2 0 0 0 -0.106454,-0.01395 V 67.3809 a 2,2 0 0 0 0.999939,-1.690336 2,2 0 0 0 -1.999878,-1.999878 2,2 0 0 0 -1.690336,0.999939 h -9.474874 a 2,2 0 0 0 -0.05426,-0.286287 l 3.22616,-3.22616 a 2,2 0 0 0 1.922363,-0.508496 2,2 0 0 0 -5.17e-4,-2.828251 2,2 0 0 0 -1.922363,-0.508496 l -3.225643,-3.225643 a 2,2 0 0 0 -0.508496,-1.922364 2,2 0 0 0 -1.413868,-0.58601 z m -0.999939,4.4142 -5.17e-4,2.242758 h -2.24224 z m 1.999878,0 2.24224,2.242241 h -2.24224 z m -4.243152,4.242119 h 2.242757 v 2.242757 z m 4.243152,5.17e-4 h 2.24224 l -2.242757,2.24224 z m -11.727967,6.434749 h 8.727633 l -4.363558,4.363558 z m 12.727389,0 h 8.728149 l -4.364074,4.364075 z m 10.142533,1.413867 v 8.728666 l -4.364074,-4.364074 z m -24.284306,5.17e-4 4.363558,4.364075 -4.363558,4.363558 z m 11.142473,0.413928 V 74.967 a 4,4 0 0 0 -1.025261,0.425814 l -2.924369,-2.924369 z m 1.999878,0 3.949629,3.94963 -2.918684,2.918685 a 4,4 0 0 0 -1.030945,-0.426848 z m 5.364013,5.364014 3.950147,3.950146 h -6.441984 a 4,4 0 0 0 -0.427364,-1.031461 z m -12.728422,5.17e-4 2.92437,2.924369 a 4,4 0 0 0 -0.425814,1.02526 h -6.448185 z m -13.892175,1.706872 v 2.242757 h -2.24224 z m 2.000395,0 2.24224,2.24224 h -2.24224 z m 36.65306,0 v 2.242757 h -2.242241 z m 2.000394,0 2.242241,2.24224 h -2.242241 z m -42.897123,4.242118 h 2.243274 v 2.242758 z m 4.243669,0 h 2.24224 l -2.242757,2.242758 z m 34.409786,0 h 2.243274 v 2.242758 z m 4.243668,0 h 2.242241 l -2.242757,2.242758 z m -30.711303,5.17e-4 h 6.448702 a 4,4 0 0 0 0.425297,1.025261 l -2.92437,2.924369 z m 14.178979,0 h 6.448185 l -3.949113,3.949113 -2.924369,-2.923852 a 4,4 0 0 0 0.425297,-1.025261 z m -16.007292,0.999422 4.364075,4.364075 -4.364075,4.364075 z m 24.284306,5.17e-4 v 8.727633 l -4.364074,-4.363558 z m -14.16761,1.439189 a 4,4 0 0 0 1.025777,0.42633 v 6.448702 l -3.950147,-3.950146 z m 4.050915,5.17e-4 2.923853,2.924369 -3.949113,3.949113 v -6.448185 a 4,4 0 0 0 1.02526,-0.425297 z m -8.389152,4.338236 4.364075,4.364075 h -8.728666 z m 12.727905,0 4.363558,4.364075 H 61.18748 Z m -7.363891,8.253243 -5.17e-4,2.242757 h -2.24224 z m 1.999878,0 2.24224,2.24224 h -2.24224 z m -4.243152,4.242118 h 2.242757 v 2.242755 z m 4.243152,5.17e-4 h 2.24224 l -2.237073,2.236558 a 5,5 0 0 0 -0.0057,-5.2e-4 z" />
  </g>
</svg>
