<?xml version="1.0" encoding="UTF-8" standalone="no"?>
<!-- Created with Inkscape (http://www.inkscape.org/) -->

<svg
   width="210mm"
   height="297mm"
   viewBox="0 0 210 297"
   version="1.1"
   id="svg5"
   inkscape:version="1.2.1 (9c6d41e410, 2022-07-14)"
   sodipodi:docname="drawing.svg"
   xmlns:inkscape="http://www.inkscape.org/namespaces/inkscape"
   xmlns:sodipodi="http://sodipodi.sourceforge.net/DTD/sodipodi-0.dtd"
   xmlns="http://www.w3.org/2000/svg"
   xmlns:svg="http://www.w3.org/2000/svg">
  <sodipodi:namedview
     id="namedview7"
     pagecolor="#ffffff"
     bordercolor="#000000"
     borderopacity="0.25"
     inkscape:showpageshadow="2"
     inkscape:pageopacity="0.0"
     inkscape:pagecheckerboard="0"
     inkscape:deskcolor="#d1d1d1"
     inkscape:document-units="mm"
     showgrid="false"
     inkscape:zoom="0.73851712"
     inkscape:cx="319.55928"
     inkscape:cy="533.50151"
     inkscape:window-width="1536"
     inkscape:window-height="889"
     inkscape:window-x="-8"
     inkscape:window-y="-8"
     inkscape:window-maximized="1"
     inkscape:current-layer="layer1" />
  <defs
     id="defs2" />
  <g
     inkscape:label="Layer 1"
     inkscape:groupmode="layer"
     id="layer1">
    <g
       aria-label="Pi¾ af`[ro "
       id="text790"
       style="font-size:22.5778px;line-height:0;font-family:Impact;-inkscape-font-specification:Impact;text-align:center;text-anchor:middle;fill:#ffffff;stroke:#40800e;stroke-width:0"
       inkscape:export-filename="test.svg"
       inkscape:export-xdpi="96"
       inkscape:export-ydpi="96">
      <path
         d="m 63.801121,68.356485 h -1.234723 v 1.146529 h 6.184641 V 68.312387 H 67.130465 V 55.744666 h 1.719793 v -1.27882 H 53.768993 v 1.27882 h 1.719793 v 12.567721 h -1.521355 v 1.190627 h 6.372055 V 68.356485 H 59.005543 V 55.744666 h 4.795578 z"
         style="font-family:'CS New Athanasius';-inkscape-font-specification:'CS New Athanasius';fill:#000000"
         id="path3230" />
      <path
         d="m 71.000001,67.485564 v -5.390891 q 0,-0.551216 0.385851,-0.948092 0.363802,-0.385851 0.937067,-0.385851 0.595313,0 1.157553,0.474046 0.540191,0.496094 0.540191,1.146529 0,0.220486 -0.07717,0.385851 -0.06615,0.15434 -0.242535,0.209462 -0.0441,0.02205 -0.09922,0.02205 -0.07717,0 -0.15434,-0.03307 -0.143316,-0.0441 -0.242535,-0.09922 v 5.655474 q 0,0.440973 -0.341754,0.727605 -0.374827,0.297657 -0.859896,0.297657 -0.650435,0 -1.157554,-0.507119 -0.529167,-0.48507 -0.529167,-1.025261 0,-0.286632 0.06615,-0.418924 0.06615,-0.110243 0.187413,-0.154341 0.09922,-0.03307 0.176389,-0.03307 0.03307,0 0.06615,0 0.110243,0.03307 0.187414,0.07717 z"
         style="font-family:'CS New Athanasius';-inkscape-font-specification:'CS New Athanasius';fill:#000000"
         id="path3232" />
      <path
         d="M 89.201147,63.119934 V 62.282086 H 75.398703 v 0.837848 z m -12.711037,3.31832 q 0,0.474045 0.231511,0.79375 0.198438,0.33073 0.650435,0.705557 0.507118,0.297656 0.815799,0.518143 0.319705,0.220486 0.319705,0.606337 0,0.551216 -0.650435,0.551216 -0.463021,0 -0.694532,0.0441 -0.253559,0.05512 -0.253559,0.286632 0,0.308681 0.540192,0.451997 0.540191,0.143316 1.223699,0.143316 0.705556,0 1.289845,-0.48507 0.595313,-0.474045 0.595313,-1.058334 0,-0.529167 -0.418924,-0.981164 -0.418924,-0.451997 -1.04731,-0.8158 -0.628386,-0.363802 -0.926043,-0.771702 -0.319705,-0.418924 -0.319705,-0.859896 0,-0.429949 0.231511,-0.661459 0.242535,-0.242535 0.617362,-0.242535 h 1.322918 7.033514 V 63.836515 H 75.398703 v 0.837848 h 1.984377 q -0.297657,0.319705 -0.584289,0.738629 -0.308681,0.429948 -0.308681,1.025262 z m 11.917287,-0.121268 1.411112,-0.705556 q -0.264583,-0.804775 -0.915018,-1.30087 -0.672483,-0.48507 -1.874134,-0.48507 -1.267796,0 -2.193839,0.992189 -0.915018,1.003213 -0.915018,2.370228 0,1.367015 0.948091,2.326131 0.937067,0.992188 2.293058,0.992188 0.903994,0 1.598526,-0.56224 0.683507,-0.540191 1.003213,-1.477258 l -1.53238,-0.56224 q -0.07717,0.595313 -0.308681,1.190626 -0.220487,0.595313 -0.97014,0.595313 -0.903994,0 -1.014237,-0.760678 -0.110244,-0.760678 -0.110244,-1.642623 0,-1.146529 0.220487,-1.86311 0.23151,-0.727605 0.981164,-0.727605 0.617362,0 0.926043,0.540192 0.275608,0.540192 0.451997,1.080383 z M 83.005481,59.393715 V 57.54163 q 0,-0.429948 0.220487,-0.749654 0.23151,-0.319705 0.617361,-0.319705 0.429949,0 0.760678,0.286632 0.319705,0.308681 0.319705,0.73863 v 1.830036 q 0,0.429949 -0.286632,0.738629 -0.308681,0.308681 -0.71658,0.308681 -0.463022,0 -0.694532,-0.275608 -0.220487,-0.275608 -0.220487,-0.705556 z m 1.411113,2.083596 q 0.903994,0 1.521356,-0.915018 0.617361,-0.926043 0.617361,-2.050523 0,-1.190626 -0.672483,-2.116669 -0.661459,-0.903994 -1.719793,-0.903994 -0.529168,0 -0.915019,0.286632 -0.374826,0.275608 -0.694532,0.782727 -0.253559,-0.308681 -0.540191,-0.451997 -0.297657,-0.121268 -0.584289,-0.220487 -0.286632,-0.110243 -0.463021,-0.110243 -0.25356,0 -0.297657,0.25356 0,0.02205 0,0.03307 0,0.209462 0.242535,0.4079 0.253559,0.242535 0.396876,0.540192 0.15434,0.286632 0.15434,0.826823 v 14.265466 q -0.09922,-0.06615 -0.209462,-0.110243 -0.06615,-0.03307 -0.121267,-0.03307 -0.05512,0 -0.09922,0.02205 -0.154341,0.02205 -0.25356,0.15434 -0.09922,0.143316 -0.09922,0.319706 0,0.429948 0.363802,0.738629 0.374827,0.319705 0.859897,0.319705 0.496094,0 0.815799,-0.374827 0.308681,-0.385851 0.308681,-0.903994 V 60.904047 q 0.03307,0.03307 0.496094,0.30868 0.463022,0.264584 0.89297,0.264584 z"
         style="font-family:'CS New Athanasius';-inkscape-font-specification:'CS New Athanasius';fill:#000000"
         id="path3234" />
      <path
         d="m 99.861663,63.461688 -0.992188,-1.60955 h -0.992189 v -0.981164 h 5.060164 v 0.981164 h -1.28985 l 2.4915,4.828651 q 0.39687,0.771702 0.68351,0.992188 0.2756,0.242535 0.63941,0.242535 0.14331,0 0.39687,-0.176389 0.23151,-0.154341 0.37483,-0.154341 0.22048,0 0.3197,0.17639 0.11025,0.176389 0.11025,0.407899 0,0.573265 -0.58429,0.959116 -0.57327,0.374827 -1.2237,0.374827 -0.97014,0 -1.44419,-0.551216 -0.49609,-0.56224 -0.79375,-1.135505 l -1.5875,1.146529 q -0.44097,0.319705 -0.80477,0.474046 -0.363807,0.143316 -0.815804,0.143316 -0.165365,0 -0.705556,-0.06615 -0.540192,-0.0441 -1.168578,-0.727605 -0.617362,-0.694532 -0.617362,-1.697745 0,-1.190626 1.113456,-2.105644 z m -0.815799,4.045924 q 0,0.25356 0.319705,0.518143 0.319705,0.253559 0.672481,0.253559 0.23151,0 0.44097,-0.15434 0.18742,-0.165365 0.28664,-0.220486 l 1.26779,-0.97014 -1.00321,-1.554429 -1.344966,1.080383 q -0.297657,0.231511 -0.463021,0.507119 -0.176389,0.264583 -0.176389,0.540191 z"
         style="font-family:'CS New Athanasius';-inkscape-font-specification:'CS New Athanasius';fill:#000000"
         id="path3236" />
      <path
         d="m 114.81064,67.14381 v 5.79879 h 1.98437 V 60.430001 h -2.3151 v 0.429948 h 0.37482 v 3.990803 q 0,0.859897 -0.50711,1.333942 -0.51815,0.496095 -0.87093,0.617362 -0.35277,0.110243 -0.81579,0.110243 -0.33073,0 -1.03629,-0.110243 -0.71658,-0.08819 -1.41111,-0.771702 -0.68351,-0.683508 -0.8158,-1.367015 -0.12127,-0.683508 -0.14332,-0.793751 -0.011,-0.09922 -0.011,-0.319705 0,-0.848873 0.61736,-1.741842 0.0772,0.507118 0.30868,1.014237 0.24253,0.507118 1.06936,0.507118 0.63941,0 1.11345,-0.396875 0.48507,-0.4079 0.48507,-1.003213 0,-0.738629 -0.48507,-1.245748 -0.50711,-0.496094 -1.30086,-0.496094 -1.33395,0 -2.1277,1.069359 -0.8158,1.058334 -0.8158,2.546617 0,1.68672 1.27882,2.943492 1.2678,1.245748 2.8553,1.245748 0.8158,0 1.37804,-0.176389 0.54019,-0.165365 1.19063,-0.672483 z"
         style="font-family:'CS New Athanasius';-inkscape-font-specification:'CS New Athanasius';fill:#000000"
         id="path3238" />
      <path
         d="m 120.91811,57.574703 -2.4033,-0.529167 q -0.69453,-0.176389 -1.09141,-0.429949 -0.4079,-0.264583 -0.4079,-0.837848 0,-0.518143 0.33073,-0.848872 0.33073,-0.341754 0.8599,-0.341754 0.3638,0 0.67248,0.187413 0.31971,0.198438 0.78273,0.573265 l 1.56545,1.411112 z"
         style="font-family:'CS New Athanasius';-inkscape-font-specification:'CS New Athanasius';fill:#000000"
         id="path3240" />
      <path
         d="m 120.12436,61.841113 q -0.022,-0.09922 -0.022,-0.242535 -0.011,-0.143316 -0.011,-0.286632 0,-1.378039 0.73862,-2.138717 0.74966,-0.749654 1.2237,-0.915018 0.47405,-0.17639 1.06936,-0.17639 0.31971,0 1.27882,0.110244 0.97014,0.121267 1.38907,0.121267 1.23472,0 1.9954,-0.209462 0.7717,-0.220486 1.49931,-0.837848 0.73862,-0.628386 1.06935,-0.981164 0.33073,-0.363803 0.33073,-0.661459 0,-0.09922 -0.0441,-0.198438 -0.0221,-0.01102 -0.0441,-0.01102 -0.16537,0 -0.82682,0.286632 -0.84888,0.352778 -1.11346,0.418924 -0.25356,0.05512 -0.60634,0.08819 -0.34175,0.03307 -0.70555,0.03307 -0.31971,0 -1.00322,-0.0441 -0.6835,-0.05512 -1.06936,-0.05512 -0.16536,0 -0.37482,0.02205 -0.22049,0.01103 -1.01424,0.07717 -0.79375,0.06614 -1.83004,0.573264 -1.02526,0.507119 -2.0395,1.60955 -1.03628,1.135505 -1.41111,2.326131 -0.38585,1.179602 -0.38585,2.899395 0,2.326131 1.11346,4.112071 1.12448,1.785939 3.11988,1.785939 1.65365,0 2.71198,-1.355991 1.04731,-1.367015 1.04731,-3.163979 0,-1.741842 -1.01424,-3.14193 -1.01423,-1.37804 -2.50252,-1.37804 -0.82682,0 -1.43316,0.319705 -0.59531,0.33073 -1.1355,1.014237 z m 0.14331,4.508946 v -2.590714 q 0,-0.826824 0.50712,-1.45521 0.50712,-0.639411 1.2678,-0.639411 0.68351,0 1.08038,0.639411 0.37483,0.628386 0.37483,1.45521 v 2.601738 q 0,0.793751 -0.3638,1.400089 -0.36381,0.595313 -1.00322,0.595313 -0.83784,0 -1.35599,-0.595313 -0.50712,-0.595314 -0.50712,-1.411113 z"
         style="font-family:'CS New Athanasius';-inkscape-font-specification:'CS New Athanasius';fill:#000000"
         id="path3242" />
      <path
         d="m 132.28418,68.213169 q 1.15755,0 1.94028,-1.157554 0.79375,-1.157553 0.79375,-2.601738 0,-1.499308 -0.83785,-2.656861 -0.8599,-1.168577 -2.20486,-1.168577 -0.67249,0 -1.16858,0.352778 -0.48507,0.352778 -0.88195,1.003213 -0.33073,-0.418924 -0.71658,-0.584289 -0.39687,-0.176389 -0.7276,-0.286632 -0.31971,-0.110244 -0.52917,-0.110244 -0.3638,0 -0.41892,0.308681 0,0.03307 0,0.06615 0,0.242535 0.29765,0.474046 0.33073,0.275608 0.46302,0.529167 0.11025,0.253559 0.16537,0.540191 0.0661,0.286633 0.0661,0.683508 v 8.235165 q -0.11024,-0.08819 -0.25356,-0.143316 -0.0772,-0.03307 -0.15434,-0.03307 -0.0661,0 -0.13229,0.01102 -0.19844,0.0441 -0.3197,0.220486 -0.11025,0.176389 -0.11025,0.396876 0,0.56224 0.46303,0.959115 0.46302,0.396876 1.08038,0.396876 0.63941,0 1.04731,-0.496095 0.4079,-0.496094 0.4079,-1.157553 v -4.486897 q 0.16536,0.154341 0.70555,0.429949 0.55122,0.275608 1.02527,0.275608 z m -1.78594,-2.623788 v -2.381252 q 0,-0.529167 0.29765,-0.937067 0.29766,-0.418924 0.78273,-0.418924 0.55122,0 0.95912,0.363802 0.39687,0.385851 0.39687,0.937067 v 2.34818 q 0,0.540191 -0.3638,0.937067 -0.3638,0.396875 -0.904,0.396875 -0.57326,0 -0.87092,-0.341754 -0.29765,-0.352778 -0.29765,-0.903994 z"
         style="font-family:'CS New Athanasius';-inkscape-font-specification:'CS New Athanasius';fill:#000000"
         id="path3244" />
      <path
         d="m 140.38705,61.025314 q 1.79697,0 3.06476,1.245748 1.2678,1.234723 1.2678,2.998614 0,1.752866 -1.19063,3.042711 -1.19062,1.289845 -2.89939,1.289845 -1.70877,0 -2.8994,-1.256772 -1.19062,-1.234723 -1.19062,-2.987589 0,-1.741843 1.10243,-3.031688 1.10243,-1.300869 2.74505,-1.300869 z m -1.23472,2.623787 v 3.042712 q 0,0.760678 0.37483,1.355991 0.38585,0.595313 1.05833,0.595313 0.65044,0 1.05834,-0.540192 0.4079,-0.540191 0.4079,-1.267796 v -3.186028 q 0,-0.63941 -0.44098,-1.113456 -0.46302,-0.463021 -1.08038,-0.463021 -0.59531,0 -0.99219,0.463021 -0.38585,0.463022 -0.38585,1.113456 z"
         style="font-family:'CS New Athanasius';-inkscape-font-specification:'CS New Athanasius';fill:#000000"
         id="path3246" />
    </g>
    <text
       xml:space="preserve"
       style="font-style:normal;font-variant:normal;font-weight:normal;font-stretch:normal;font-size:22.5778px;line-height:0;font-family:'CS New Athanasius';-inkscape-font-specification:'CS New Athanasius';text-align:center;text-anchor:middle;fill:#000000;stroke:#40800e;stroke-width:0;stroke-dasharray:none"
       x="74.876961"
       y="120.37636"
       id="text3347"><tspan
         sodipodi:role="line"
         id="tspan3345"
         style="stroke-width:0"></tspan></text>
  </g>
</svg>
