<?xml version="1.0" encoding="UTF-8" standalone="no"?>
<!-- Created with Inkscape (http://www.inkscape.org/) -->

<svg
   width="62.750412mm"
   height="60.303001mm"
   viewBox="0 0 62.750412 60.303001"
   version="1.1"
   id="svg5"
   xmlns:inkscape="http://www.inkscape.org/namespaces/inkscape"
   xmlns:sodipodi="http://sodipodi.sourceforge.net/DTD/sodipodi-0.dtd"
   xmlns="http://www.w3.org/2000/svg"
   xmlns:svg="http://www.w3.org/2000/svg">
  <sodipodi:namedview
     id="namedview7"
     pagecolor="#ffffff"
     bordercolor="#000000"
     borderopacity="0.25"
     inkscape:showpageshadow="2"
     inkscape:pageopacity="0.0"
     inkscape:pagecheckerboard="0"
     inkscape:deskcolor="#d1d1d1"
     inkscape:document-units="mm"
     showgrid="false" />
  <defs
     id="defs2" />
  <g
     inkscape:label="Layer 1"
     inkscape:groupmode="layer"
     id="layer1"
     transform="translate(-70.254961,-76.175115)">
    <g
       aria-label="P=,=c
P`svyr
`mmyi"
       id="text2258"
       style="font-size:22.5778px;line-height:1;font-family:'CS New Athanasius';-inkscape-font-specification:'CS New Athanasius';text-align:center;text-anchor:middle;stroke:#40800e;stroke-width:0"
       inkscape:export-filename="text2258.svg"
       inkscape:export-xdpi="96"
       inkscape:export-ydpi="96">
      <path
         d="M 92.854804,90.065751 H 91.62008 v 1.146529 h 6.184642 V 90.021654 H 96.184147 V 77.453933 h 1.719794 V 76.175112 H 82.822676 v 1.278821 h 1.719793 v 12.567721 h -1.521356 v 1.190626 h 6.372055 V 90.065751 H 88.059226 V 77.453933 h 4.795578 z"
         id="path3774" />
      <path
         d="M 99.370176,78.346901 H 112.2576 v 1.245748 H 99.370176 Z"
         id="path3776" />
      <path
         d="m 106.43676,87.827815 1.23473,2.480471 q 0.14331,0.286633 0.26458,0.463022 0.13229,0.176389 0.25356,0.242535 0.13229,0.05512 0.23151,0.05512 0.0772,0 0.22049,0 -0.0992,-0.15434 -0.18742,-0.363802 -0.0992,-0.187414 -0.0992,-0.396876 0,-0.507118 0.44098,-0.826823 0.45199,-0.319706 1.01423,-0.319706 0.71658,0 1.19063,0.496095 0.47405,0.496094 0.47405,1.256772 0,0.771702 -0.51815,1.300869 -0.50712,0.540192 -0.95911,0.584289 -0.44098,0.0441 -0.62839,0.0441 -1.44418,0 -2.17179,-1.300869 l -1.52136,-2.811201 -1.9513,2.57969 q -0.89297,1.157553 -2.33715,1.157553 -0.58429,0 -1.20165,-0.418924 -0.617367,-0.407899 -0.617367,-0.79375 0,-0.08819 0.05512,-0.187414 0.05512,-0.09922 0.242535,-0.09922 0.0441,0 0.496092,0.06615 0.36381,0.06615 0.50712,0.06615 0.0221,0 0.0441,0 0.29766,-0.0441 0.54019,-0.220486 0.25356,-0.176389 0.69453,-0.8158 l 2.33716,-3.230124 -1.25677,-2.480472 q -0.14332,-0.286632 -0.26459,-0.451997 -0.13229,-0.176389 -0.26458,-0.242535 -0.12127,-0.06615 -0.19844,-0.06615 -0.0992,0 -0.24253,0 0.0992,0.165365 0.19843,0.352779 0.0882,0.209462 0.0882,0.407899 0,0.507119 -0.44097,0.826824 -0.44098,0.319705 -1.01424,0.319705 -0.71658,0 -1.190629,-0.48507 -0.474046,-0.496094 -0.474046,-1.256772 0,-0.782726 0.518143,-1.322918 0.507122,-0.518143 0.948092,-0.573264 0.452,-0.0441 0.63941,-0.0441 1.44419,0 2.17179,1.30087 l 1.52136,2.811201 1.9513,-2.568666 q 0.89297,-1.157554 2.33716,-1.157554 0.58429,0 1.20165,0.4079 0.61736,0.4079 0.61736,0.793751 0,0.09922 -0.0441,0.187413 -0.0661,0.09922 -0.25356,0.09922 -0.0441,0 -0.48507,-0.07717 -0.35278,-0.05512 -0.51814,-0.05512 -0.0221,0 -0.0441,0 -0.29765,0.05512 -0.55121,0.231511 -0.24254,0.165365 -0.68351,0.804775 z"
         id="path3778" />
      <path
         d="m 108.1896,78.346901 h 12.88743 v 1.245748 H 108.1896 Z"
         id="path3780"
         style="display:inline" />
      <path
         d="m 118.64068,85.876511 1.78594,-0.881945 q -0.33073,-1.014238 -1.19062,-1.653648 -0.84888,-0.628386 -2.35921,-0.628386 -1.60955,0 -2.77813,1.267796 -1.19062,1.278821 -1.19062,2.998615 0,1.741842 1.2237,2.976565 1.20165,1.256772 2.92144,1.256772 1.15755,0 2.00643,-0.694532 0.85989,-0.683507 1.27882,-1.874134 l -1.92926,-0.749653 q -0.0882,0.760678 -0.37483,1.521356 -0.28663,0.760677 -1.26779,0.760677 -0.95912,0 -1.20165,-0.815799 -0.23151,-0.815799 -0.23151,-2.237936 0,-1.477259 0.28663,-2.392277 0.28663,-0.926043 1.23472,-0.926043 0.82683,0 1.19063,0.683508 0.3638,0.683508 0.59531,1.389064 z"
         id="path3782" />
      <path
         d="m 80.287083,112.64355 h -1.234724 v 1.14653 h 6.184642 v -1.19063 H 83.616426 V 100.03173 H 85.33622 V 98.752913 H 70.254954 v 1.278817 h 1.719794 v 12.56772 h -1.521356 v 1.19063 h 6.372055 v -1.14653 h -1.333942 v -12.61182 h 4.795578 z"
         id="path3784" />
      <path
         d="m 89.459315,101.86177 -2.403301,-0.52917 q -0.694532,-0.17639 -1.091408,-0.42995 -0.407899,-0.26458 -0.407899,-0.83784 0,-0.518146 0.330729,-0.848876 0.33073,-0.341754 0.859897,-0.341754 0.363802,0 0.672483,0.187414 0.319705,0.198438 0.782727,0.573264 l 1.565453,1.411112 z"
         id="path3786" />
      <path
         d="m 92.865829,112.73175 q -0.352778,0.34175 -1.179602,0.70555 -0.8158,0.35278 -1.344967,0.35278 -1.598526,0 -2.756079,-1.48828 -1.157553,-1.49931 -1.157553,-3.38447 0,-1.36701 0.71658,-2.57969 0.705557,-1.2237 1.664672,-1.2237 0.220487,0 0.308681,0.11025 0.08819,0.11024 0.231511,0.50712 0.143316,0.39687 0.143316,0.51814 0,0.0882 -0.540192,1.56545 -0.540191,1.46624 -0.540191,2.13872 0,1.10243 0.56224,1.96233 0.56224,0.85989 1.576477,0.85989 0.352778,0 1.014237,-0.2756 0.672484,-0.25356 0.859897,-0.44098 -0.132292,-0.12126 -0.606337,-1.33394 -0.496095,-1.20165 -0.496095,-2.06155 0,-1.20165 0.474046,-2.23793 0.48507,-1.04731 1.289845,-1.04731 0.903994,0 1.30087,1.03628 0.385851,1.02526 0.385851,2.31511 0,0.88194 -0.451997,1.77491 -0.440973,0.89297 -0.881946,1.59853 0.25356,0.25356 0.826824,0.50712 0.551216,0.27561 0.915018,0.27561 1.014237,0 1.741842,-0.79375 0.73863,-0.79375 0.73863,-1.83004 0,-0.91502 -0.33073,-1.83004 -0.352778,-0.92604 -0.705556,-1.87413 0,-0.50712 0.275608,-0.8599 0.253559,-0.33073 0.815799,-0.33073 0.926043,0 1.53238,1.64263 0.584289,1.65364 0.584289,3.70417 0,0.87092 -0.253559,2.45842 -0.25356,1.5875 -1.576478,2.93247 -1.311893,1.34496 -3.439586,1.34496 -0.760678,0 -1.70877,-0.3638 -0.937066,-0.3638 -2.083595,-0.79375 -0.507119,-0.0772 -0.870921,-0.0772 -0.440973,0 -0.749654,0.0992 -0.308681,0.11024 -0.540191,0.34175 -0.231511,0.24254 -0.308681,0.42995 -0.09922,0.19844 -0.09922,0.35278 0,0.13229 0.01102,0.18741 0.02205,0.0661 0.06615,0.11025 0.132292,-0.22049 0.352778,-0.44098 0.231511,-0.22048 0.793751,-0.22048 0.518143,0 0.793751,0.4079 0.286632,0.41892 0.286632,0.97014 0,0.50712 -0.418924,0.83785 -0.4079,0.35277 -0.937067,0.35277 -0.826824,0 -1.400088,-0.60633 -0.56224,-0.59532 -0.56224,-1.45521 0,-1.03629 0.881945,-1.88516 0.89297,-0.8599 1.86311,-1.15756 0.948091,-0.30868 1.697744,-0.30868 0.661459,0 1.168578,0.1323 0.507118,0.12126 1.576477,0.50711 1.058335,0.37483 1.598526,0.37483 0.56224,0 1.234724,-0.29766 0.672483,-0.29765 0.970139,-0.87092 0.286633,-0.55121 0.286633,-1.11345 0,-0.14332 -0.01103,-0.23151 0,-0.0882 -0.02205,-0.14332 -1.168578,1.23472 -2.888371,1.23472 -0.540192,0 -1.466234,-0.39687 -0.915019,-0.39688 -1.212675,-0.69453 z"
         id="path3788" />
      <path
         d="m 108.49831,105.31238 h 2.3592 q 1.03629,0 1.76389,0.68351 0.71659,0.70556 0.71659,1.71979 0,1.70877 -1.04731,3.11988 -1.04732,1.41112 -2.29306,2.31511 -1.23473,0.92604 -1.37804,0.92604 v 2.42535 h -1.95131 v -2.20486 q -0.3638,-0.0992 -1.12448,-0.33073 -0.7717,-0.24253 -1.84106,-0.98116 -1.08038,-0.74966 -1.76389,-1.83004 -0.68351,-1.09141 -0.68351,-2.64584 0,-1.14653 0.5402,-2.05052 0.54019,-0.91502 1.47725,-0.91502 0.65044,0 1.13551,0.3638 0.49609,0.36381 0.49609,0.93707 0,0.452 -0.28663,0.80478 -0.27561,0.35277 -0.70556,0.35277 -0.42994,0 -0.71658,-0.28663 -0.28663,-0.28663 -0.49609,-0.58429 -0.15434,0.16537 -0.30868,0.38585 -0.14332,0.20947 -0.14332,0.46303 0,1.30087 0.50712,2.25998 0.50712,0.94809 1.33394,1.6757 0.80478,0.7276 1.42214,0.97014 0.61736,0.24253 1.11346,0.38585 l 0.011,-2.84428 h -1.1355 v -1.0914 h 1.1355 v -5.6224 h -1.56545 v -1.09141 h 3.42856 z m 0,7.67293 q 0.11024,0 0.84887,-0.4961 0.73863,-0.49609 1.36702,-1.41111 0.63941,-0.92604 0.63941,-2.23794 0,-1.73081 -1.40009,-2.3151 -1.42214,-0.25356 -1.45521,-0.25356 v 3.06476 h 1.31189 v 1.0914 h -1.31189 z"
         id="path3790" />
      <path
         d="m 121.44086,107.01013 v 2.32613 h -3.57188 v -2.60174 q 0.11024,0.011 0.17639,0.011 0.11024,0 0.25356,-0.0331 0.14331,-0.0331 0.17638,-0.12127 0.011,-0.0992 0.011,-0.23151 0,-0.50712 -0.46302,-0.87092 -0.452,-0.3638 -1.01424,-0.3638 -0.50712,0 -0.89297,0.3638 -0.37483,0.3638 -0.37483,0.87092 v 5.6665 q -0.11024,-0.0772 -0.25356,-0.14332 -0.0772,-0.0331 -0.15434,-0.0331 -0.0661,0 -0.13229,0.022 -0.19844,0.0441 -0.3197,0.22049 -0.11025,0.17639 -0.11025,0.39687 0,0.55122 0.46303,0.94809 0.46302,0.39688 1.08038,0.39688 0.65043,0 1.11345,-0.48507 0.44098,-0.47405 0.44098,-1.15755 v -1.65365 h 3.49471 v 3.25217 h 2.03949 v -6.53742 q 0.17639,0.0331 0.27561,0.0331 0.17639,0 0.28663,-0.0441 0.0882,-0.0331 0.12127,-0.18742 0.0331,-0.16536 0.0331,-0.26458 0,-0.58429 -0.47404,-0.99219 -0.47405,-0.41892 -1.1796,-0.41892 -0.58429,0 -0.80478,0.48507 -0.22048,0.47404 -0.22048,1.14653 z"
         id="path3792" />
      <path
         d="m 130.27134,112.50024 q 1.15755,0 1.94028,-1.15756 0.79375,-1.15755 0.79375,-2.60174 0,-1.4993 -0.83785,-2.65686 -0.8599,-1.16857 -2.20487,-1.16857 -0.67248,0 -1.16857,0.35277 -0.48507,0.35278 -0.88195,1.00322 -0.33073,-0.41893 -0.71658,-0.58429 -0.39687,-0.17639 -0.7276,-0.28663 -0.31971,-0.11025 -0.52917,-0.11025 -0.3638,0 -0.41893,0.30868 0,0.0331 0,0.0661 0,0.24253 0.29766,0.47405 0.33073,0.2756 0.46302,0.52916 0.11025,0.25356 0.16537,0.54019 0.0661,0.28664 0.0661,0.68351 v 8.23517 q -0.11024,-0.0882 -0.25356,-0.14332 -0.0772,-0.0331 -0.15434,-0.0331 -0.0661,0 -0.13229,0.011 -0.19844,0.0441 -0.3197,0.22049 -0.11025,0.17639 -0.11025,0.39687 0,0.56224 0.46302,0.95912 0.46303,0.39687 1.08039,0.39687 0.63941,0 1.04731,-0.49609 0.4079,-0.49609 0.4079,-1.15755 v -4.4869 q 0.16536,0.15434 0.70555,0.42995 0.55122,0.27561 1.02527,0.27561 z m -1.78594,-2.62379 v -2.38125 q 0,-0.52917 0.29765,-0.93707 0.29766,-0.41892 0.78273,-0.41892 0.55122,0 0.95911,0.3638 0.39688,0.38585 0.39688,0.93706 v 2.34818 q 0,0.5402 -0.3638,0.93707 -0.3638,0.39688 -0.904,0.39688 -0.57326,0 -0.87092,-0.34176 -0.29765,-0.35278 -0.29765,-0.90399 z"
         id="path3794" />
      <path
         d="m 84.073936,124.43957 -2.403302,-0.52917 q -0.694531,-0.17639 -1.091407,-0.42994 -0.4079,-0.26459 -0.4079,-0.83785 0,-0.51815 0.33073,-0.84887 0.330729,-0.34176 0.859897,-0.34176 0.363802,0 0.672483,0.18741 0.319705,0.19844 0.782726,0.57327 l 1.565453,1.41111 z"
         id="path3796" />
      <path
         d="m 89.541997,134.27326 q -0.374827,-0.38585 -0.716581,-1.23472 -0.330729,-0.8599 -0.330729,-1.75287 0,-1.31189 0.573264,-2.39227 0.551216,-1.05834 1.664672,-1.05834 0.903994,0 1.278821,0.94809 0.385851,0.93707 0.385851,2.22691 0,0.69454 -0.48507,1.81902 -0.507119,1.12448 -0.903994,1.52135 0.05512,0.0662 0.407899,0.33073 0.33073,0.27561 0.584289,0.44097 0.25356,0.15434 0.4079,0.22049 0.165365,0.0551 0.529167,0.18741 l -0.176389,0.94809 q -0.374827,-0.0661 -0.628386,-0.14331 -0.242535,-0.0772 -0.617362,-0.25356 -0.363802,-0.18741 -0.727605,-0.47405 -0.352778,-0.28663 -0.56224,-0.49609 -0.407899,0.41892 -1.058334,0.83785 -0.639411,0.4079 -1.807988,0.4079 -0.959116,0 -1.653648,-0.46302 -0.71658,-0.46303 -1.234723,-0.95912 -0.143316,0.13229 -0.474046,0.38585 -0.319705,0.24254 -0.705556,0.44097 -0.396875,0.22049 -0.771702,0.36381 -0.396876,0.14331 -0.859897,0.24253 l -0.286632,-0.89297 q 0.286632,-0.0882 0.507118,-0.18741 0.209462,-0.0772 0.584289,-0.31971 0.385851,-0.23151 0.672484,-0.50712 0.286632,-0.25355 0.451997,-0.42994 -0.374827,-0.37483 -0.8158,-1.35599 -0.451997,-0.99219 -0.451997,-1.65365 v -0.24254 q 0.132292,-1.24574 0.617362,-2.10564 0.48507,-0.87092 1.444185,-0.87092 0.992189,0 1.400089,0.94809 0.396875,0.97014 0.396875,2.31511 0,0.90399 -0.319705,1.75286 -0.33073,0.83785 -0.727605,1.23473 0.463021,0.44097 1.04731,0.87092 0.584289,0.42994 1.234723,0.42994 0.793751,0 1.289846,-0.35277 0.496094,-0.36381 0.837848,-0.72761 z"
         id="path3798" />
      <path
         d="m 102.53967,134.27326 q -0.37483,-0.38585 -0.71658,-1.23472 -0.33073,-0.8599 -0.33073,-1.75287 0,-1.31189 0.57326,-2.39227 0.55122,-1.05834 1.66467,-1.05834 0.904,0 1.27882,0.94809 0.38585,0.93707 0.38585,2.22691 0,0.69454 -0.48507,1.81902 -0.50711,1.12448 -0.90399,1.52135 0.0551,0.0662 0.4079,0.33073 0.33073,0.27561 0.58429,0.44097 0.25356,0.15434 0.4079,0.22049 0.16536,0.0551 0.52917,0.18741 l -0.17639,0.94809 q -0.37483,-0.0661 -0.62839,-0.14331 -0.24253,-0.0772 -0.61736,-0.25356 -0.3638,-0.18741 -0.72761,-0.47405 -0.35277,-0.28663 -0.56224,-0.49609 -0.4079,0.41892 -1.05833,0.83785 -0.63941,0.4079 -1.80799,0.4079 -0.959114,0 -1.653646,-0.46302 -0.716581,-0.46303 -1.234724,-0.95912 -0.143316,0.13229 -0.474045,0.38585 -0.319706,0.24254 -0.705557,0.44097 -0.396875,0.22049 -0.771702,0.36381 -0.396875,0.14331 -0.859897,0.24253 l -0.286632,-0.89297 q 0.286632,-0.0882 0.507119,-0.18741 0.209462,-0.0772 0.584288,-0.31971 0.385852,-0.23151 0.672484,-0.50712 0.286632,-0.25355 0.451997,-0.42994 -0.374827,-0.37483 -0.8158,-1.35599 -0.451997,-0.99219 -0.451997,-1.65365 v -0.24254 q 0.132292,-1.24574 0.617362,-2.10564 0.48507,-0.87092 1.444186,-0.87092 0.992188,0 1.400088,0.94809 0.396875,0.97014 0.396875,2.31511 0,0.90399 -0.319705,1.75286 -0.330729,0.83785 -0.727605,1.23473 0.463021,0.44097 1.04731,0.87092 0.584289,0.42994 1.234721,0.42994 0.79375,0 1.28985,-0.35277 0.49609,-0.36381 0.83785,-0.72761 z"
         id="path3800"
         style="display:inline" />
      <path
         d="m 114.04905,129.58793 v 2.32613 h -3.57188 v -2.60174 q 0.11025,0.011 0.17639,0.011 0.11025,0 0.25356,-0.0331 0.14332,-0.0331 0.17639,-0.12127 0.011,-0.0992 0.011,-0.23151 0,-0.50712 -0.46303,-0.87092 -0.45199,-0.3638 -1.01423,-0.3638 -0.50712,0 -0.89297,0.3638 -0.37483,0.3638 -0.37483,0.87092 v 5.6665 q -0.11024,-0.0772 -0.25356,-0.14332 -0.0772,-0.0331 -0.15434,-0.0331 -0.0662,0 -0.13229,0.022 -0.19844,0.0441 -0.31971,0.22049 -0.11024,0.17639 -0.11024,0.39687 0,0.55122 0.46302,0.94809 0.46302,0.39688 1.08039,0.39688 0.65043,0 1.11345,-0.48507 0.44097,-0.47405 0.44097,-1.15755 v -1.65365 h 3.49471 v 3.25217 h 2.0395 v -6.53742 q 0.17639,0.0331 0.27561,0.0331 0.17639,0 0.28663,-0.0441 0.0882,-0.0331 0.12127,-0.18742 0.0331,-0.16536 0.0331,-0.26458 0,-0.58429 -0.47404,-0.99219 -0.47405,-0.41892 -1.17961,-0.41892 -0.58429,0 -0.80477,0.48507 -0.22049,0.47404 -0.22049,1.14653 z"
         id="path3802"
         style="display:inline" />
      <path
         d="m 118.86668,134.35043 v -5.39089 q 0,-0.55121 0.38585,-0.94809 0.3638,-0.38585 0.93707,-0.38585 0.59531,0 1.15755,0.47404 0.54019,0.4961 0.54019,1.14653 0,0.22049 -0.0772,0.38585 -0.0661,0.15434 -0.24253,0.20947 -0.0441,0.022 -0.0992,0.022 -0.0772,0 -0.15434,-0.0331 -0.14332,-0.0441 -0.24254,-0.0992 v 5.65548 q 0,0.44097 -0.34175,0.7276 -0.37483,0.29766 -0.8599,0.29766 -0.65043,0 -1.15755,-0.50712 -0.52917,-0.48507 -0.52917,-1.02526 0,-0.28663 0.0661,-0.41893 0.0661,-0.11024 0.18741,-0.15434 0.0992,-0.0331 0.17639,-0.0331 0.0331,0 0.0662,0 0.11024,0.0331 0.18741,0.0772 z"
         id="path3804" />
    </g>
  </g>
</svg>
