<?xml version="1.0" encoding="UTF-8" standalone="no"?>
<!-- Created with Inkscape (http://www.inkscape.org/) -->

<svg
   width="210mm"
   height="297mm"
   viewBox="0 0 210 297"
   version="1.1"
   id="svg5"
   inkscape:version="1.2.1 (9c6d41e410, 2022-07-14)"
   sodipodi:docname="handcross.svg"
   xmlns:inkscape="http://www.inkscape.org/namespaces/inkscape"
   xmlns:sodipodi="http://sodipodi.sourceforge.net/DTD/sodipodi-0.dtd"
   xmlns="http://www.w3.org/2000/svg"
   xmlns:svg="http://www.w3.org/2000/svg">
  <sodipodi:namedview
     id="namedview7"
     pagecolor="#ffffff"
     bordercolor="#000000"
     borderopacity="0.25"
     inkscape:showpageshadow="2"
     inkscape:pageopacity="0.0"
     inkscape:pagecheckerboard="0"
     inkscape:deskcolor="#d1d1d1"
     inkscape:document-units="mm"
     showgrid="false"
     inkscape:zoom="0.73851712"
     inkscape:cx="429.91556"
     inkscape:cy="524.02306"
     inkscape:window-width="1536"
     inkscape:window-height="889"
     inkscape:window-x="-8"
     inkscape:window-y="-8"
     inkscape:window-maximized="1"
     inkscape:current-layer="layer2" />
  <defs
     id="defs2" />
  <g
     inkscape:groupmode="layer"
     id="layer2"
     inkscape:label="Layer 2"
     inkscape:export-filename=".\back_handcross_ben.svg"
     inkscape:export-xdpi="96"
     inkscape:export-ydpi="96">
    <text
       xml:space="preserve"
       style="font-size:11.2889px;line-height:0;font-family:'CS New Athanasius';-inkscape-font-specification:'CS New Athanasius';text-align:center;text-anchor:middle;fill:none;fill-opacity:1;stroke:#000000;stroke-width:0.25;stroke-dasharray:none;stroke-opacity:1"
       x="177.89653"
       y="-152.30421"
       id="text5947"
       transform="rotate(90)"><tspan
         sodipodi:role="line"
         id="tspan5945"
         style="stroke-width:0.25"
         x="177.89653"
         y="-152.30421">Apouna Beniamin</tspan></text>
    <g
       id="g1836"
       transform="translate(51.052418,21.228623)"
       style="display:inline"
       inkscape:label="back">
      <path
         id="path1832"
         style="display:inline;fill:none;stroke:#aa0000;stroke-width:1;stroke-dasharray:none;stroke-opacity:1"
         d="M 104.99979,25.558647 83.786617,46.771305 94.393722,57.37841 87.322319,64.449813 76.715214,53.842708 55.502555,75.055884 76.715731,96.269059 87.322319,85.662472 l 7.071403,7.070886 -10.607105,10.607102 10.606588,10.60659 v 82.85954 l -10.606071,10.60607 21.213176,21.21318 21.21317,-21.21318 -10.6071,-10.6071 v -82.85799 l 10.60659,-10.60711 -10.60659,-10.606585 7.0714,-7.071403 10.60659,10.606587 21.21318,-21.212658 -21.21318,-21.213693 -10.6071,10.607105 -7.07089,-7.071403 10.60659,-10.606588 z" />
      <path
         id="path1834"
         style="display:inline;fill:none;stroke:#0000ff;stroke-width:0.5;stroke-dasharray:none;stroke-opacity:1"
         d="m 89.037109,46.775391 c 3.530327,3.534125 7.06286,7.066051 10.591797,10.601562 -4.10116,4.103912 -8.20418,8.205982 -12.308594,12.306641 -3.535513,-3.528935 -7.067435,-7.061472 -10.601562,-10.591797 -5.320964,5.321614 -10.641927,10.643229 -15.962891,15.964844 5.320964,5.320963 10.641927,10.641927 15.962891,15.96289 3.534126,-3.530326 7.066052,-7.062859 10.601562,-10.591797 4.104416,4.100657 8.207431,8.202732 12.308594,12.306641 -3.532907,3.535452 -7.065045,7.071673 -10.597656,10.607425 3.022158,3.02471 6.044135,6.04961 9.066406,9.07422 0,28.64062 0,57.28125 0,85.92187 -3.020935,3.02269 -6.041649,6.04559 -9.0625,9.06836 5.321615,5.32161 10.643229,10.64323 15.964844,15.96484 5.32161,-5.32161 10.64323,-10.64323 15.96484,-15.96484 -3.0215,-3.02342 -6.04286,-6.04698 -9.06445,-9.07031 0,-28.63998 0,-57.27995 0,-85.91992 3.02227,-3.02461 6.04425,-6.04951 9.06641,-9.07422 -3.53196,-3.535101 -7.06345,-7.07067 -10.59571,-10.605472 4.10124,-4.104489 8.20411,-8.207357 12.3086,-12.308594 3.53551,3.528935 7.06743,7.061472 10.60156,10.591797 5.32096,-5.320963 10.64193,-10.641927 15.96289,-15.96289 -5.32096,-5.321615 -10.64193,-10.64323 -15.96289,-15.964844 -3.53413,3.530327 -7.06605,7.062859 -10.60156,10.591797 -4.10442,-4.100657 -8.20743,-8.202732 -12.3086,-12.306641 3.52894,-3.535513 7.06148,-7.067435 10.5918,-10.601562 C 115.64193,41.454427 110.32096,36.133464 105,30.8125 99.679036,36.133464 94.358073,41.454427 89.037109,46.775391 Z" />
      <g
         aria-label="Pi`;ronoc               `mPiouro "
         id="text2771"
         style="font-size:7.76111px;line-height:0;font-family:'CS New Athanasius';-inkscape-font-specification:'CS New Athanasius';text-align:center;text-anchor:middle;display:inline;fill:none;stroke:#000000;stroke-width:0.25;stroke-dasharray:none"
         inkscape:label="throne"
         transform="translate(-38.6924,3.5826296)">
        <path
           d="m 106.48354,73.402779 h -0.42444 v 0.394119 h 2.12597 V 73.387621 H 107.628 v -4.320149 h 0.59118 V 68.627877 H 103.035 v 0.439595 h 0.59118 v 4.320149 h -0.52297 v 0.409277 h 2.19039 v -0.394119 h -0.45854 v -4.335307 h 1.64848 z"
           id="path3499"
           style="stroke-width:0.25;stroke-dasharray:none" />
        <path
           d="m 108.95815,73.1034 v -1.853116 q 0,-0.18948 0.13264,-0.325906 0.12505,-0.132636 0.32211,-0.132636 0.20464,0 0.39791,0.162953 0.18569,0.170532 0.18569,0.394118 0,0.07579 -0.0265,0.132637 -0.0227,0.05305 -0.0834,0.072 -0.0152,0.0076 -0.0341,0.0076 -0.0265,0 -0.0531,-0.01137 -0.0493,-0.01516 -0.0834,-0.03411 v 1.944067 q 0,0.151584 -0.11748,0.250114 -0.12884,0.102319 -0.29558,0.102319 -0.22359,0 -0.39791,-0.174321 -0.1819,-0.166743 -0.1819,-0.352434 0,-0.09853 0.0227,-0.144005 0.0227,-0.0379 0.0644,-0.05305 0.0341,-0.01137 0.0606,-0.01137 0.0114,0 0.0227,0 0.0379,0.01137 0.0644,0.02653 z"
           id="path3501"
           style="stroke-width:0.25;stroke-dasharray:none" />
        <path
           d="m 111.41003,69.696546 -0.82614,-0.181901 q -0.23874,-0.06063 -0.37517,-0.147795 -0.14021,-0.09095 -0.14021,-0.28801 0,-0.178111 0.11368,-0.291799 0.11369,-0.117478 0.29559,-0.117478 0.12506,0 0.23117,0.06442 0.1099,0.06821 0.26906,0.19706 l 0.53812,0.485069 z"
           id="path3503"
           style="stroke-width:0.25;stroke-dasharray:none" />
        <path
           d="m 112.53175,72.095366 v -0.450963 q 0,-0.208429 -0.13643,-0.356223 -0.14021,-0.140216 -0.34485,-0.140216 -0.1819,0 -0.31075,0.144005 -0.12885,0.155374 -0.12885,0.352434 v 0.450963 z m -0.92088,0.37517 v 0.394119 q 0,0.238745 0.12506,0.413067 0.12506,0.181901 0.33728,0.181901 0.20464,0 0.33348,-0.170532 0.12506,-0.162953 0.12506,-0.38275 v -0.435805 z m 1.73564,0 q 0,0.458542 -0.39033,0.894347 -0.39032,0.432015 -0.90571,0.432015 -0.49265,0 -0.86403,-0.435805 -0.36759,-0.435804 -0.36759,-0.890557 h -0.33728 v -0.37517 h 0.34486 q 0,-0.522966 0.3638,-0.905716 0.36001,-0.375171 0.88298,-0.375171 0.52296,0 0.89813,0.375171 0.37896,0.375171 0.37896,0.905716 h 0.33349 v 0.37517 z"
           id="path3505"
           style="stroke-width:0.25;stroke-dasharray:none" />
        <path
           d="m 115.80218,73.353514 q 0.39791,0 0.66697,-0.397908 0.27285,-0.397909 0.27285,-0.894347 0,-0.515386 -0.28801,-0.913295 -0.29559,-0.401698 -0.75792,-0.401698 -0.23117,0 -0.4017,0.121268 -0.16674,0.121267 -0.30317,0.344854 -0.11369,-0.144005 -0.24632,-0.200849 -0.13643,-0.06063 -0.25012,-0.09853 -0.1099,-0.0379 -0.1819,-0.0379 -0.12505,0 -0.144,0.106109 0,0.01137 0,0.02274 0,0.08337 0.10232,0.162953 0.11368,0.09474 0.15916,0.181901 0.0379,0.08716 0.0568,0.185691 0.0227,0.09853 0.0227,0.234956 v 2.830834 q -0.0379,-0.03032 -0.0872,-0.04927 -0.0265,-0.01137 -0.053,-0.01137 -0.0227,0 -0.0455,0.0038 -0.0682,0.01516 -0.1099,0.07579 -0.0379,0.06063 -0.0379,0.136426 0,0.19327 0.15916,0.329695 0.15916,0.136426 0.37138,0.136426 0.2198,0 0.36001,-0.170532 0.14022,-0.170532 0.14022,-0.397909 V 73.11098 q 0.0568,0.05306 0.24253,0.147795 0.18948,0.09474 0.35244,0.09474 z m -0.61392,-0.901926 v -0.818554 q 0,-0.181901 0.10232,-0.322117 0.10232,-0.144005 0.26906,-0.144005 0.18948,0 0.3297,0.125057 0.13642,0.132637 0.13642,0.322117 v 0.807185 q 0,0.185691 -0.12505,0.322117 -0.12506,0.136426 -0.31075,0.136426 -0.19706,0 -0.29938,-0.117478 -0.10232,-0.121267 -0.10232,-0.310748 z"
           id="path3507"
           style="stroke-width:0.25;stroke-dasharray:none" />
        <path
           d="m 118.58754,70.882692 q 0.6177,0 1.05351,0.428225 0.4358,0.424436 0.4358,1.030773 0,0.602547 -0.40928,1.045931 -0.40927,0.443383 -0.99666,0.443383 -0.58739,0 -0.99667,-0.432015 -0.40928,-0.424435 -0.40928,-1.026982 0,-0.598758 0.37897,-1.042142 0.37896,-0.447173 0.94361,-0.447173 z m -0.42444,0.901926 v 1.045931 q 0,0.261482 0.12885,0.466121 0.13263,0.204639 0.3638,0.204639 0.22359,0 0.3638,-0.185691 0.14022,-0.18569 0.14022,-0.435804 v -1.095196 q 0,-0.219797 -0.15159,-0.38275 -0.15916,-0.159163 -0.37138,-0.159163 -0.20464,0 -0.34106,0.159163 -0.13264,0.159163 -0.13264,0.38275 z"
           id="path3509"
           style="stroke-width:0.25;stroke-dasharray:none" />
        <path
           d="m 121.61164,71.614086 q 0.004,-0.0379 0.0265,-0.106109 0.0152,-0.06821 0.0758,-0.06821 0.11369,0 0.24633,0.204639 0.13263,0.204638 0.22358,0.504017 0.0909,0.306958 0.31075,0.515386 0.10232,0.07579 0.21222,0.147795 v 0.920874 h 0.70486 v -2.360924 q 0.0606,0.0076 0.091,0.0076 0.0606,0 0.0947,-0.01137 0.0379,-0.01516 0.0493,-0.06821 0.0114,-0.05684 0.0114,-0.08716 0,-0.200849 -0.15538,-0.344854 -0.15158,-0.140216 -0.37896,-0.140216 -0.20842,0 -0.29559,0.162953 -0.0947,0.162953 -0.0947,0.397909 v 0.18948 q 0,0.09474 -0.072,0.159163 -0.0682,0.06442 -0.16295,0.06442 -0.14401,0 -0.23875,-0.178112 -0.0758,-0.170532 -0.15158,-0.344854 -0.11369,-0.197059 -0.30696,-0.333485 -0.19706,-0.128846 -0.37896,-0.128846 -0.10611,0 -0.30696,0.102319 -0.20842,0.109898 -0.20842,0.424436 v 1.947856 q -0.0379,-0.02653 -0.0872,-0.04927 -0.0265,-0.01137 -0.053,-0.01137 -0.0227,0 -0.0455,0.0076 -0.0682,0.01516 -0.10989,0.07579 -0.0379,0.06063 -0.0379,0.136426 0,0.18948 0.15916,0.325906 0.15917,0.136425 0.37138,0.136425 0.2198,0 0.36381,-0.162953 0.144,-0.166742 0.144,-0.401698 z"
           id="path3511"
           style="stroke-width:0.25;stroke-dasharray:none" />
        <path
           d="m 125.4922,70.882692 q 0.6177,0 1.05351,0.428225 0.4358,0.424436 0.4358,1.030773 0,0.602547 -0.40928,1.045931 -0.40927,0.443383 -0.99666,0.443383 -0.58739,0 -0.99667,-0.432015 -0.40928,-0.424435 -0.40928,-1.026982 0,-0.598758 0.37896,-1.042142 0.37896,-0.447173 0.94362,-0.447173 z m -0.42444,0.901926 v 1.045931 q 0,0.261482 0.12885,0.466121 0.13263,0.204639 0.3638,0.204639 0.22359,0 0.3638,-0.185691 0.14022,-0.18569 0.14022,-0.435804 v -1.095196 q 0,-0.219797 -0.15159,-0.38275 -0.15916,-0.159163 -0.37138,-0.159163 -0.20464,0 -0.34106,0.159163 -0.13264,0.159163 -0.13264,0.38275 z"
           id="path3513"
           style="stroke-width:0.25;stroke-dasharray:none" />
        <path
           d="m 129.44475,71.962729 0.61392,-0.303168 q -0.11369,-0.348644 -0.40928,-0.568441 -0.2918,-0.216007 -0.81097,-0.216007 -0.55328,0 -0.95498,0.435804 -0.40928,0.439595 -0.40928,1.030773 0,0.598757 0.42065,1.023193 0.41306,0.432015 1.00424,0.432015 0.39791,0 0.68971,-0.238745 0.29559,-0.234956 0.43959,-0.644233 l -0.66318,-0.257693 q -0.0303,0.261483 -0.12884,0.522965 -0.0985,0.261483 -0.43581,0.261483 -0.32969,0 -0.41307,-0.280431 -0.0796,-0.28043 -0.0796,-0.769289 0,-0.507807 0.0985,-0.822345 0.0985,-0.318326 0.42444,-0.318326 0.28422,0 0.40928,0.234955 0.12505,0.234956 0.20463,0.47749 z"
           id="path3515"
           style="stroke-width:0.25;stroke-dasharray:none" />
        <path
           d="m 160.08421,69.696546 -0.82613,-0.181901 q -0.23875,-0.06063 -0.37517,-0.147795 -0.14022,-0.09095 -0.14022,-0.28801 0,-0.178111 0.11369,-0.291799 0.11369,-0.117478 0.29559,-0.117478 0.12506,0 0.23116,0.06442 0.1099,0.06821 0.26907,0.19706 l 0.53812,0.485069 z"
           id="path3517"
           style="stroke-width:0.25;stroke-dasharray:none" />
        <path
           d="m 161.96385,73.076873 q -0.12884,-0.132636 -0.24632,-0.424436 -0.11369,-0.295589 -0.11369,-0.602547 0,-0.450963 0.19706,-0.822344 0.18948,-0.363802 0.57223,-0.363802 0.31075,0 0.4396,0.325906 0.13263,0.322116 0.13263,0.7655 0,0.238745 -0.16674,0.625285 -0.17432,0.38654 -0.31075,0.522965 0.0189,0.02274 0.14022,0.113688 0.11369,0.09474 0.20085,0.151585 0.0872,0.05305 0.14021,0.07579 0.0568,0.01895 0.1819,0.06442 l -0.0606,0.325906 q -0.12885,-0.02274 -0.21601,-0.04927 -0.0834,-0.02653 -0.21222,-0.08716 -0.12505,-0.06442 -0.25011,-0.162953 -0.12127,-0.09853 -0.19327,-0.170532 -0.14022,0.144005 -0.3638,0.28801 -0.2198,0.140215 -0.6215,0.140215 -0.32969,0 -0.56844,-0.159163 -0.24632,-0.159163 -0.42443,-0.329696 -0.0493,0.04548 -0.16296,0.132636 -0.10989,0.08337 -0.24253,0.151585 -0.13643,0.07579 -0.26527,0.125057 -0.13643,0.04926 -0.29559,0.08337 l -0.0985,-0.306958 q 0.0985,-0.03032 0.17432,-0.06442 0.072,-0.02653 0.20085,-0.109899 0.13263,-0.07958 0.23116,-0.174322 0.0985,-0.08716 0.15538,-0.147794 -0.12885,-0.128847 -0.28043,-0.466122 -0.15538,-0.341064 -0.15538,-0.56844 v -0.08337 q 0.0455,-0.428225 0.21222,-0.723814 0.16674,-0.299379 0.49644,-0.299379 0.34106,0 0.48128,0.325906 0.13643,0.333485 0.13643,0.795817 0,0.310748 -0.1099,0.602547 -0.11369,0.28801 -0.25012,0.424436 0.15917,0.151584 0.36002,0.299379 0.20084,0.147794 0.42443,0.147794 0.27285,0 0.44338,-0.121267 0.17054,-0.125057 0.28801,-0.250114 z"
           id="path3519"
           style="stroke-width:0.25;stroke-dasharray:none" />
        <path
           d="m 167.07603,73.402779 h -0.42443 v 0.394119 h 2.12597 v -0.409277 h -0.55708 v -4.320149 h 0.59118 v -0.439595 h -5.18418 v 0.439595 h 0.59118 v 4.320149 h -0.52296 v 0.409277 h 2.19039 v -0.394119 h -0.45855 v -4.335307 h 1.64848 z"
           id="path3521"
           style="stroke-width:0.25;stroke-dasharray:none" />
        <path
           d="m 169.55065,73.1034 v -1.853116 q 0,-0.18948 0.13263,-0.325906 0.12506,-0.132636 0.32212,-0.132636 0.20464,0 0.39791,0.162953 0.18569,0.170532 0.18569,0.394118 0,0.07579 -0.0265,0.132637 -0.0227,0.05305 -0.0834,0.072 -0.0152,0.0076 -0.0341,0.0076 -0.0265,0 -0.053,-0.01137 -0.0493,-0.01516 -0.0834,-0.03411 v 1.944067 q 0,0.151584 -0.11748,0.250114 -0.12885,0.102319 -0.29559,0.102319 -0.22359,0 -0.39791,-0.174321 -0.1819,-0.166743 -0.1819,-0.352434 0,-0.09853 0.0227,-0.144005 0.0227,-0.0379 0.0644,-0.05305 0.0341,-0.01137 0.0606,-0.01137 0.0114,0 0.0227,0 0.0379,0.01137 0.0644,0.02653 z"
           id="path3523"
           style="stroke-width:0.25;stroke-dasharray:none" />
        <path
           d="m 172.43074,70.882692 q 0.61771,0 1.05351,0.428225 0.43581,0.424436 0.43581,1.030773 0,0.602547 -0.40928,1.045931 -0.40928,0.443383 -0.99667,0.443383 -0.58739,0 -0.99666,-0.432015 -0.40928,-0.424435 -0.40928,-1.026982 0,-0.598758 0.37896,-1.042142 0.37896,-0.447173 0.94361,-0.447173 z m -0.42443,0.901926 v 1.045931 q 0,0.261482 0.12884,0.466121 0.13264,0.204639 0.3638,0.204639 0.22359,0 0.36381,-0.185691 0.14021,-0.18569 0.14021,-0.435804 v -1.095196 q 0,-0.219797 -0.15158,-0.38275 -0.15917,-0.159163 -0.37138,-0.159163 -0.20464,0 -0.34107,0.159163 -0.13263,0.159163 -0.13263,0.38275 z"
           id="path3525"
           style="stroke-width:0.25;stroke-dasharray:none" />
        <path
           d="m 176.26582,71.360182 q 0.2198,-0.234955 0.50781,-0.466121 0.28801,-0.234956 0.65939,-0.234956 0.0758,0 0.20843,0.01895 0.12506,0.02274 0.20843,0.174322 0.0872,0.151584 0.11369,0.409278 0,0.02653 0,0.05305 0,0.234955 -0.1478,0.48128 -0.17053,0.28422 -0.34864,0.28422 -0.0493,0 -0.0985,-0.04547 -0.053,-0.0379 -0.053,-0.125057 0,-0.04169 0.008,-0.128847 0.0114,-0.09095 0.0114,-0.132636 0,-0.121267 -0.10611,-0.174322 -0.11747,-0.05305 -0.26148,-0.05305 -0.13263,0 -0.26906,0.117478 -0.13643,0.113688 -0.15916,0.174321 0.0341,0.03411 0.1819,0.458543 0.14779,0.424435 0.14779,0.708656 0,0.37896 -0.16674,0.689708 -0.16295,0.310747 -0.45475,0.310747 -0.2577,0 -0.4396,-0.318327 -0.17811,-0.314537 -0.17811,-0.682128 0,-0.29559 0.1478,-0.67455 0.14779,-0.37896 0.28801,-0.519176 -0.0417,-0.09853 -0.0796,-0.147794 -0.0341,-0.05305 -0.14779,-0.155374 -0.1099,-0.106109 -0.28043,-0.170532 0.13264,0.151584 0.13264,0.375171 0,0.238745 -0.1857,0.386539 -0.18569,0.155374 -0.45475,0.155374 -0.2539,0 -0.43959,-0.19327 -0.1819,-0.197059 -0.1819,-0.458542 0,-0.325906 0.23116,-0.560861 0.23496,-0.238746 0.55707,-0.238746 0.34107,0 0.67834,0.284221 0.34107,0.280431 0.37138,0.397908 z"
           id="path3527"
           style="stroke-width:0.25;stroke-dasharray:none" />
        <path
           d="m 180.08196,73.353514 q 0.39791,0 0.66697,-0.397908 0.27285,-0.397909 0.27285,-0.894347 0,-0.515386 -0.28801,-0.913295 -0.29559,-0.401698 -0.75792,-0.401698 -0.23117,0 -0.4017,0.121268 -0.16674,0.121267 -0.30317,0.344854 -0.11369,-0.144005 -0.24632,-0.200849 -0.13643,-0.06063 -0.25012,-0.09853 -0.1099,-0.0379 -0.1819,-0.0379 -0.12505,0 -0.144,0.106109 0,0.01137 0,0.02274 0,0.08337 0.10232,0.162953 0.11368,0.09474 0.15916,0.181901 0.0379,0.08716 0.0568,0.185691 0.0227,0.09853 0.0227,0.234956 v 2.830834 q -0.0379,-0.03032 -0.0872,-0.04927 -0.0265,-0.01137 -0.0531,-0.01137 -0.0227,0 -0.0455,0.0038 -0.0682,0.01516 -0.1099,0.07579 -0.0379,0.06063 -0.0379,0.136426 0,0.19327 0.15916,0.329695 0.15916,0.136426 0.37138,0.136426 0.2198,0 0.36001,-0.170532 0.14022,-0.170532 0.14022,-0.397909 V 73.11098 q 0.0568,0.05306 0.24253,0.147795 0.18948,0.09474 0.35244,0.09474 z m -0.61392,-0.901926 v -0.818554 q 0,-0.181901 0.10232,-0.322117 0.10232,-0.144005 0.26906,-0.144005 0.18948,0 0.3297,0.125057 0.13642,0.132637 0.13642,0.322117 v 0.807185 q 0,0.185691 -0.12505,0.322117 -0.12506,0.136426 -0.31075,0.136426 -0.19706,0 -0.29938,-0.117478 -0.10232,-0.121267 -0.10232,-0.310748 z"
           id="path3529"
           style="stroke-width:0.25;stroke-dasharray:none" />
        <path
           d="m 182.86732,70.882692 q 0.6177,0 1.05351,0.428225 0.4358,0.424436 0.4358,1.030773 0,0.602547 -0.40928,1.045931 -0.40927,0.443383 -0.99666,0.443383 -0.58739,0 -0.99667,-0.432015 -0.40927,-0.424435 -0.40927,-1.026982 0,-0.598758 0.37896,-1.042142 0.37896,-0.447173 0.94361,-0.447173 z m -0.42444,0.901926 v 1.045931 q 0,0.261482 0.12885,0.466121 0.13263,0.204639 0.3638,0.204639 0.22359,0 0.3638,-0.185691 0.14022,-0.18569 0.14022,-0.435804 v -1.095196 q 0,-0.219797 -0.15159,-0.38275 -0.15916,-0.159163 -0.37138,-0.159163 -0.20464,0 -0.34106,0.159163 -0.13264,0.159163 -0.13264,0.38275 z"
           id="path3531"
           style="stroke-width:0.25;stroke-dasharray:none" />
      </g>
      <g
         aria-label="A"
         id="text1946-3"
         style="font-size:14.1111px;line-height:0;font-family:'CS New Athanasius';-inkscape-font-specification:'CS New Athanasius';text-align:center;text-anchor:middle;fill:none;stroke:#000000;stroke-width:0.499999"
         inkscape:label="alphaback"
         transform="translate(-38.6924,3.5826296)">
        <path
           d="m 139.78263,45.11355 q 0.0896,0.01378 0.15158,0.01378 0.44786,0 0.90951,-0.261827 0.46853,-0.254937 0.66834,-0.861274 0.18604,-0.606336 0.24805,-1.012857 0.0482,-0.406521 0.0482,-0.792371 0,-0.310059 -0.007,-0.819932 -0.0207,-0.516764 -0.0207,-0.578776 0,-1.536511 -0.26183,-2.129067 -0.25493,-0.599446 -0.54432,-0.689019 -0.28939,-0.09646 -0.38585,-0.09646 -0.17226,0 -0.26872,0.02756 -0.11024,0.04134 -0.14469,0.06201 0.22737,0.227376 0.45475,0.523654 0.22738,0.310058 0.22738,0.633897 0,0.475423 -0.38585,0.778591 -0.39964,0.296278 -0.92329,0.296278 -0.46853,0 -0.82682,-0.468532 -0.36518,-0.454753 -0.36518,-0.992187 0,-1.019748 0.93017,-1.522731 0.93707,-0.496094 2.25309,-0.496094 1.21957,0 2.34956,0.689019 1.12999,0.709689 1.66742,1.667425 0.52366,0.971516 0.76481,1.715656 0.24805,0.73725 0.4961,1.502061 0.25493,0.75792 0.56499,1.384927 0.29628,0.633897 0.61323,0.978406 0.31006,0.35829 0.78548,0.599446 0.23427,0.07579 0.38585,0.124024 0.15847,0.04134 0.15847,0.172254 0,0.310059 -0.37207,0.454753 -0.36518,0.137803 -0.8406,0.137803 -0.74414,0 -1.46072,-0.523654 -0.70969,-0.523654 -0.7717,-0.695908 -0.27561,0.454752 -0.90261,0.840602 -0.62012,0.37896 -1.23335,0.37896 -0.46164,0 -0.99907,-0.282497 -0.53055,-0.282498 -0.78548,-0.606337 -0.15848,0.248047 -0.82683,0.585666 -0.66145,0.344509 -1.08176,0.344509 -0.0965,0 -0.52365,-0.06201 -0.43408,-0.04823 -0.99908,-0.647678 -0.5581,-0.606336 -0.5581,-1.350476 0,-0.530544 0.37896,-0.902614 0.37207,-0.378961 0.90261,-0.378961 0.4961,0 0.88195,0.36518 0.39274,0.35829 0.39274,0.847493 0,0.09646 -0.0482,0.296278 -0.0482,0.199815 -0.29628,0.447862 -0.24805,0.248047 -0.39963,0.303168 z m 2.949,-4.492401 q 0,0.558105 -0.062,1.48828 -0.0551,0.943956 -0.0551,1.192003 0,0.709689 0.24805,1.295354 0.25494,0.578776 0.81993,0.578776 0.565,0 0.96463,-0.37896 0.40652,-0.385851 0.40652,-0.957736 0,-0.978406 -0.19982,-1.915472 -0.19292,-0.937065 -0.627,-1.88791 -0.44787,-0.937066 -0.9164,-1.391818 -0.46164,-0.461642 -0.79926,-0.606336 -0.33762,-0.151584 -0.43408,-0.151584 0.21359,0.537434 0.43408,1.233343 0.22049,0.689018 0.22049,1.50206 z"
           style="stroke-width:0.25;stroke-dasharray:none"
           id="path3562" />
      </g>
      <g
         aria-label="W"
         id="text1950-9"
         style="font-size:14.1111px;line-height:0;font-family:'CS New Athanasius';-inkscape-font-specification:'CS New Athanasius';text-align:center;text-anchor:middle;display:inline;fill:none;stroke:#000000;stroke-width:0.25;stroke-dasharray:none"
         inkscape:label="omegaback"
         transform="translate(-38.6924,3.5826296)">
        <path
           d="m 143.59945,199.9865 q -0.33762,0 -0.92329,1.30914 -0.59944,1.30913 -0.59944,2.5976 0,0.88194 0.3514,1.81212 0.33762,0.93706 0.81304,1.6123 -0.17226,0.25494 -0.50298,0.57189 -0.32384,0.31694 -0.75103,0.31694 -0.72347,0 -1.09554,-0.627 -0.38585,-0.62012 -0.50988,-1.46761 -0.11713,-0.8406 -0.11713,-1.83279 0,-0.90951 0.24116,-1.94303 0.24804,-1.03353 0.50298,-1.74322 0.24805,-0.71658 0.32384,-0.83371 h -2.96967 q -0.26872,0 -0.42719,0.0344 -0.15159,0.0276 -0.19982,0.13091 -0.007,0.0345 -0.007,0.062 0,0.11714 0.17226,0.24805 0.23426,0.17914 0.37207,0.26872 l 1.15755,0.74414 q -0.0689,0.0689 -0.38585,0.75103 -0.31695,0.67524 -0.60634,1.57785 -0.28939,0.90261 -0.28939,1.59852 0,1.44694 1.13688,2.65961 1.14377,1.20579 2.28754,1.20579 0.76481,0 1.17134,-0.2136 0.40652,-0.22048 0.94395,-0.76481 0.37207,0.37207 0.97841,0.66835 0.60633,0.31006 1.12999,0.31006 1.1231,0 2.27376,-1.21268 1.15066,-1.21956 1.15066,-2.65272 0,-0.71658 -0.2825,-1.60541 -0.2825,-0.88883 -0.60633,-1.56407 -0.31695,-0.68213 -0.39274,-0.75792 l 1.15755,-0.74414 q 0.39963,-0.26183 0.49609,-0.36518 0.062,-0.062 0.062,-0.13092 0,-0.0413 -0.0207,-0.0827 -0.0413,-0.0965 -0.2067,-0.1378 -0.17915,-0.0276 -0.42031,-0.0276 h -2.96967 q 0.0345,0.0482 0.32384,0.8406 0.27561,0.80615 0.51677,1.79834 0.22737,0.99907 0.22737,1.88102 0,0.9853 -0.11713,1.83279 -0.13091,0.86816 -0.50987,1.48139 -0.37207,0.61322 -1.09554,0.61322 -0.40652,0 -0.74414,-0.32383 -0.3514,-0.33073 -0.50988,-0.565 0.45476,-0.64079 0.81304,-1.59852 0.3514,-0.96463 0.3514,-1.8259 0,-1.38493 -0.57877,-2.64583 -0.57189,-1.26091 -1.11621,-1.26091 z"
           style="stroke-width:0.25;stroke-dasharray:none"
           id="path3565" />
      </g>
      <g
         aria-label="¨"
         id="text1954-1"
         style="font-size:14.1111px;line-height:0;font-family:'CS New Athanasius';-inkscape-font-specification:'CS New Athanasius';text-align:center;text-anchor:middle;display:inline;fill:none;stroke:#000000;stroke-width:0.25;stroke-dasharray:none"
         inkscape:label="inGodback"
         transform="translate(-38.6924,3.5826296)">
        <path
           d="m 139.58247,100.13812 q -0.24116,0.90261 -0.39963,1.14377 -0.16537,0.25493 -0.50299,0.25493 -0.41341,0 -0.72347,-0.44097 -0.1378,-0.22737 -0.17914,-0.52365 -0.0758,-0.1378 -0.0758,-0.26872 v -0.29628 l -0.0138,-0.530541 q 0,-0.992186 0.26871,-1.626084 0.2825,-0.537434 0.72347,-0.537434 0.64768,0 0.90262,1.329806 l 0.81304,-0.564995 q -0.68902,-1.11621 -1.71566,-1.11621 -0.22737,0 -0.80615,0.144693 -0.6339,0.220486 -0.95085,0.826823 -0.31694,0.606336 -0.35139,1.543401 0,1.171331 0.57877,1.832791 0.60634,0.6339 1.55718,0.6339 0.62012,0 1.0542,-0.39274 0.45475,-0.4961 0.6339,-0.90262 z m 2.11528,-2.191082 q 0.15159,-0.234266 0.2825,-0.282498 0.11024,-0.0689 0.37896,-0.0689 l 0.2825,0.117133 0.25494,0.220486 0.21359,0.282497 0.16537,0.282498 -0.33762,0.73725 -0.19982,0.489203 -0.12402,0.372073 -0.0276,0.32383 0.0276,0.37896 0.0689,0.36518 0.13091,0.32384 0.11025,0.22738 0.28249,0.33762 q 0.15848,0.11713 0.26872,0.11713 0.37896,-0.14469 0.565,-0.53743 0.0965,-0.25494 0.1378,-0.57878 l 0.0896,-0.68902 q 0,-0.25493 -0.15847,-0.806147 l -0.37896,-1.019748 q 0.16536,-0.310058 0.44786,-0.461642 0.31006,-0.199816 0.46853,-0.199816 0.15159,0.04134 0.23427,0.213596 0.0896,0.165364 0.0896,0.551215 v 0.254937 q 0.32384,0 0.43408,-0.254937 0.13092,-0.268717 0.13092,-0.399631 0,-1.054198 -0.81994,-1.054198 -0.68901,0 -1.24023,1.054198 -0.53743,-1.012857 -1.24023,-1.012857 -0.25494,0 -0.47542,0.151584 -0.22049,0.144694 -0.34451,0.344509 l -0.0965,0.192925 q -0.062,0.103353 -0.062,0.199816 l -0.0413,0.37896 q 0,0.323839 0.19982,0.564995 0.22737,0.199816 0.44786,0.199816 0.29628,0 0.47542,-0.241157 0.17915,-0.241156 0.17915,-0.523654 0,-0.151584 -0.20671,-0.3514 -0.20671,-0.199815 -0.61323,-0.199815 z m 5.69819,0.08957 q 0.26871,0.05512 0.45475,0.323838 l 0.24116,0.3514 0.29627,0.537434 0.23427,0.406521 0.34451,0.523659 q 0.26183,0.31006 0.51676,0.31006 v 1.6812 h 1.07487 v -3.837835 q 0.25494,-0.427191 0.25494,-0.537434 l -0.62012,-0.606336 q -0.45475,0 -0.58566,0.158474 -0.12403,0.151584 -0.12403,0.248047 v 2.218639 q -0.2067,0 -0.4203,-0.296278 l -0.6339,-0.964626 -0.37207,-0.516763 -0.37896,-0.509874 q -0.33761,-0.337619 -0.59255,-0.337619 -0.36518,0 -0.565,0.151584 -0.1378,0.186035 -0.1378,0.537434 v 3.362417 q -0.29628,0.29627 -0.29628,0.44786 l 0.75792,0.48231 q 0.32384,0 0.41341,-0.11713 0.13781,-0.0965 0.13781,-0.3514 z m -5.84288,-3.541556 0.0276,0.502984 0.0896,0.39963 q 0.11025,0.378961 0.37896,0.702799 0.48232,0.606337 1.39871,0.606337 0.39274,0 0.68902,-0.110243 0.29628,-0.117133 0.51676,-0.303168 0.22049,-0.192926 0.3514,-0.427192 0.13781,-0.241156 0.19293,-0.509874 0.0965,-0.254937 0.0965,-0.413411 l 0.0138,-0.447862 h 0.41341 v -0.620117 h -0.35829 l -0.0551,-0.468532 -0.11024,-0.392741 q -0.17226,-0.399631 -0.43408,-0.702799 -0.26183,-0.303168 -0.61323,-0.440972 -0.36518,-0.172254 -0.80615,-0.172254 -0.4203,0 -0.75792,0.172254 -0.33762,0.165365 -0.565,0.461643 -0.22737,0.296278 -0.3514,0.695909 -0.11713,0.39274 -0.11713,0.847492 h -0.46164 v 0.620117 z m 1.07487,-0.620117 q 0,-0.964626 0.17225,-1.343586 0.26872,-0.39274 0.57878,-0.39274 0.31006,0.04134 0.43408,0.124023 0.15847,0.0689 0.24116,0.296278 0.11024,0.227376 0.11024,0.482313 l 0.0413,0.833712 z m 0,0.620117 h 1.57785 l -0.0551,0.930175 -0.1378,0.551215 q -0.15848,0.241156 -0.26872,0.282498 l -0.31006,0.04134 q -0.38585,0 -0.59945,-0.413411 -0.2067,-0.420302 -0.2067,-1.391818 z m 0.81993,12.567698 0.50987,0.34451 0.22049,0.11025 q 0.29628,0.1378 0.79237,0.1378 0.40652,0 0.70969,-0.20671 0.30317,-0.19981 0.51676,-0.55121 0.25494,-0.33762 0.33762,-0.80615 0.11714,-0.33762 0.11714,-0.94396 l -0.0276,-0.40652 -0.0758,-0.37207 q -0.0827,-0.37896 -0.2067,-0.60634 -0.19982,-0.32383 -0.4203,-0.59255 -0.22049,-0.26872 -0.44097,-0.46164 l -0.60634,0.68901 0.12402,0.12403 0.29628,0.29628 0.0827,0.11713 0.1447,0.17914 0.11024,0.1447 q 0.10335,0.1378 0.10335,0.36518 l 0.0276,0.14469 v 0.15159 0.22737 q 0,0.39274 -0.0896,0.74414 -0.26872,0.81993 -0.64768,1.04731 -0.36518,0.17226 -0.62011,0.17226 l -0.3514,-0.11714 -0.29628,-0.31006 0.25494,-0.53743 0.17914,-0.40652 0.0896,-0.39274 0.0276,-0.15848 v -0.15158 -0.2136 -0.10335 l -0.0276,-0.3514 -0.0758,-0.37896 -0.23427,-0.68902 -0.14469,-0.29628 -0.1378,-0.21359 q -0.15848,-0.19982 -0.25494,-0.19982 -0.18603,0.10336 -0.2136,0.19982 l -0.17225,0.32384 -0.12402,0.31006 q -0.13781,0.25493 -0.22738,0.76481 l -0.0827,0.68901 0.0276,0.45476 0.0965,0.40652 0.17226,0.43408 0.26871,0.50987 q -0.15847,0.24116 -0.37207,0.33073 -0.2067,0.0965 -0.4892,0.0965 -0.2825,-0.0758 -0.44786,-0.19293 -0.15848,-0.11713 -0.31695,-0.37207 -0.19293,-0.25494 -0.2825,-0.60634 -0.0827,-0.34451 -0.0827,-0.79237 l 0.0138,-0.40652 0.0551,-0.33073 0.13092,-0.24804 0.12402,-0.19982 0.21359,-0.25494 0.29628,-0.31006 -0.55121,-0.70279 q -0.37896,0.33762 -0.59256,0.67523 l -0.21359,0.33762 -0.13781,0.29628 q -0.14469,0.25494 -0.18603,0.59256 l -0.0413,0.55121 q 0,0.59256 0.13091,1.06109 0.11024,0.31006 0.2136,0.50987 0.11024,0.20671 0.19292,0.31695 0.26872,0.33762 0.55122,0.46854 0.28249,0.15158 0.53743,0.15158 l 0.44786,-0.0413 0.36518,-0.0965 q 0.42719,-0.2136 0.70969,-0.45476 z"
           style="stroke-width:0.25;stroke-dasharray:none"
           id="path3568" />
      </g>
    </g>
  </g>
  <g
     inkscape:label="Layer 1"
     inkscape:groupmode="layer"
     id="layer1"
     inkscape:export-filename=".\front_handcross.svg"
     inkscape:export-xdpi="96"
     inkscape:export-ydpi="96">
    <g
       id="g1830"
       transform="translate(-51.052527,21.586886)"
       inkscape:label="front"
       inkscape:export-filename="front_handcross.svg"
       inkscape:export-xdpi="96"
       inkscape:export-ydpi="96">
      <path
         id="rect1012"
         style="display:inline;fill:none;stroke:#ff6600;stroke-width:1;stroke-dasharray:none;stroke-opacity:1"
         d="M 104.99979,25.558647 83.786617,46.771305 94.393722,57.37841 87.322319,64.449813 76.715214,53.842708 55.502555,75.055884 76.715731,96.269059 87.322319,85.662472 l 7.071403,7.070886 -10.607105,10.607102 10.606588,10.60659 v 82.85954 l -10.606071,10.60607 21.213176,21.21318 21.21317,-21.21318 -10.6071,-10.6071 v -82.85799 l 10.60659,-10.60711 -10.60659,-10.606585 7.0714,-7.071403 10.60659,10.606587 21.21318,-21.212658 -21.21318,-21.213693 -10.6071,10.607105 -7.07089,-7.071403 10.60659,-10.606588 z" />
      <path
         id="path1809"
         style="fill:none;stroke:#0000ff;stroke-width:0.5;stroke-dasharray:none;stroke-opacity:1"
         d="m 89.037109,46.775391 c 3.530327,3.534125 7.06286,7.066051 10.591797,10.601562 -4.10116,4.103912 -8.20418,8.205982 -12.308594,12.306641 -3.535513,-3.528935 -7.067435,-7.061472 -10.601562,-10.591797 -5.320964,5.321614 -10.641927,10.643229 -15.962891,15.964844 5.320964,5.320963 10.641927,10.641927 15.962891,15.96289 3.534126,-3.530326 7.066052,-7.062859 10.601562,-10.591797 4.104416,4.100657 8.207431,8.202732 12.308594,12.306641 -3.532907,3.535452 -7.065045,7.071673 -10.597656,10.607425 3.022158,3.02471 6.044135,6.04961 9.066406,9.07422 0,28.64062 0,57.28125 0,85.92187 -3.020935,3.02269 -6.041649,6.04559 -9.0625,9.06836 5.321615,5.32161 10.643229,10.64323 15.964844,15.96484 5.32161,-5.32161 10.64323,-10.64323 15.96484,-15.96484 -3.0215,-3.02342 -6.04286,-6.04698 -9.06445,-9.07031 0,-28.63998 0,-57.27995 0,-85.91992 3.02227,-3.02461 6.04425,-6.04951 9.06641,-9.07422 -3.53196,-3.535101 -7.06345,-7.07067 -10.59571,-10.605472 4.10124,-4.104489 8.20411,-8.207357 12.3086,-12.308594 3.53551,3.528935 7.06743,7.061472 10.60156,10.591797 5.32096,-5.320963 10.64193,-10.641927 15.96289,-15.96289 -5.32096,-5.321615 -10.64193,-10.64323 -15.96289,-15.964844 -3.53413,3.530327 -7.06605,7.062859 -10.60156,10.591797 -4.10442,-4.100657 -8.20743,-8.202732 -12.3086,-12.306641 3.52894,-3.535513 7.06148,-7.067435 10.5918,-10.601562 C 115.64193,41.454427 110.32096,36.133464 105,30.8125 99.679036,36.133464 94.358073,41.454427 89.037109,46.775391 Z" />
      <g
         aria-label=" Pi¾             af`[ro"
         id="text1892"
         style="font-size:11.2889px;line-height:0;font-family:'CS New Athanasius';-inkscape-font-specification:'CS New Athanasius';text-align:center;text-anchor:middle;display:inline;fill:none;stroke:#000000;stroke-width:0.25;stroke-dasharray:none"
         inkscape:label="crosshasconquer"
         transform="translate(43.708082,-22.570567)">
        <path
           d="m 28.050903,100.0769 h -0.617361 v 0.57326 h 3.09232 v -0.59531 h -0.810287 v -6.283862 h 0.859897 v -0.63941 h -7.540633 v 0.63941 h 0.859897 v 6.283862 h -0.760678 v 0.59531 h 3.186028 v -0.57326 h -0.666972 v -6.305912 h 2.397789 z"
           id="path3534"
           style="stroke-width:0.25;stroke-dasharray:none" />
        <path
           d="m 31.650344,99.641437 v -2.695446 q 0,-0.275608 0.192925,-0.474045 0.181901,-0.192926 0.468534,-0.192926 0.297656,0 0.578776,0.237023 0.270096,0.248047 0.270096,0.573264 0,0.110244 -0.03858,0.192926 -0.03307,0.07717 -0.121268,0.104731 -0.02205,0.01102 -0.04961,0.01102 -0.03859,0 -0.07717,-0.01654 -0.07166,-0.02205 -0.121268,-0.04961 v 2.827736 q 0,0.22049 -0.170877,0.3638 -0.187413,0.14883 -0.429948,0.14883 -0.325217,0 -0.578777,-0.25356 -0.264583,-0.24253 -0.264583,-0.512628 0,-0.143316 0.03307,-0.209462 0.03307,-0.05512 0.09371,-0.07717 0.04961,-0.01654 0.08819,-0.01654 0.01654,0 0.03307,0 0.05512,0.01654 0.09371,0.03858 z"
           id="path3536"
           style="stroke-width:0.25;stroke-dasharray:none" />
        <path
           id="path3538"
           style="stroke-width:0.25;stroke-dasharray:none"
           d="m 38.231775,93.644413 c -0.176389,0 -0.328719,0.0476 -0.457337,0.143144 -0.124941,0.09187 -0.240697,0.222151 -0.347265,0.391191 -0.08452,-0.102894 -0.174724,-0.178054 -0.270268,-0.225826 -0.09922,-0.04042 -0.196428,-0.077 -0.291972,-0.110071 -0.09554,-0.03675 -0.172714,-0.05529 -0.23151,-0.05529 -0.08452,0 -0.134129,0.04209 -0.148828,0.126607 v 0.01654 c 0,0.06982 0.04008,0.137976 0.120923,0.204122 0.08452,0.08084 0.150665,0.171049 0.198437,0.270267 0.05145,0.09554 0.07751,0.233348 0.07751,0.413412 v 2.221053 h -3.031857 v 0.419096 h 3.031857 v 0.358117 h -3.031857 v 0.419096 h 0.992188 c -0.09922,0.106569 -0.196428,0.229846 -0.291972,0.369487 -0.102894,0.143316 -0.154512,0.314192 -0.154512,0.51263 0,0.158015 0.03858,0.290307 0.115755,0.396875 0.06615,0.110243 0.17438,0.227491 0.325045,0.352433 0.169039,0.09922 0.305349,0.185914 0.408243,0.259414 0.106568,0.0735 0.159681,0.17421 0.159681,0.30283 0,0.18373 -0.108234,0.27595 -0.325045,0.27595 -0.154341,0 -0.270096,0.007 -0.347266,0.0217 -0.08452,0.0184 -0.127124,0.0665 -0.127124,0.14366 0,0.10289 0.0902,0.17805 0.270268,0.22582 0.180064,0.0478 0.384013,0.0718 0.611849,0.0718 0.235185,0 0.450159,-0.0812 0.644922,-0.24288 0.198437,-0.15801 0.297656,-0.3344 0.297656,-0.52916 0,-0.17639 -0.06965,-0.33975 -0.20929,-0.490416 -0.139641,-0.150666 -0.314537,-0.28646 -0.523999,-0.407728 -0.209461,-0.121267 -0.363801,-0.250057 -0.46302,-0.386022 -0.106568,-0.139642 -0.159681,-0.282957 -0.159681,-0.429948 0,-0.143316 0.03859,-0.25356 0.115756,-0.33073 0.08084,-0.08084 0.183566,-0.121439 0.308508,-0.121439 h 0.661458 0.722437 v 3.720703 c -0.03307,-0.0221 -0.06816,-0.0401 -0.104903,-0.0548 -0.02205,-0.011 -0.04209,-0.0165 -0.06046,-0.0165 -0.01837,0 -0.03491,0.004 -0.04961,0.0109 -0.05145,0.007 -0.09405,0.0329 -0.127124,0.077 -0.03307,0.0478 -0.04961,0.10143 -0.04961,0.1602 0,0.14331 0.06115,0.26607 0.182418,0.36897 0.124942,0.10657 0.268258,0.16019 0.429948,0.16019 0.165365,0 0.301159,-0.0626 0.407727,-0.18758 0.102893,-0.12862 0.154513,-0.27946 0.154513,-0.45217 v -3.786853 h 0.980302 c -0.0259,0.02475 -0.05133,0.05057 -0.07648,0.07751 -0.305005,0.334405 -0.457853,0.72927 -0.457853,1.184941 0,0.455674 0.15836,0.843532 0.47439,1.163232 0.312355,0.33073 0.694703,0.4961 1.1467,0.4961 0.301331,0 0.567407,-0.0937 0.798918,-0.28112 0.227835,-0.18007 0.395209,-0.42662 0.501778,-0.73898 l -0.766362,-0.281114 c -0.02572,0.198434 -0.07682,0.396874 -0.153995,0.595314 -0.0735,0.19844 -0.235358,0.29765 -0.485242,0.29765 -0.301331,0 -0.470198,-0.12678 -0.506946,-0.38034 -0.03675,-0.25356 -0.05529,-0.527151 -0.05529,-0.821133 0,-0.382176 0.03657,-0.692866 0.110071,-0.931726 0.07717,-0.242534 0.241042,-0.363802 0.490926,-0.363802 0.205787,0 0.360128,0.0902 0.463021,0.270268 0.09187,0.180064 0.16703,0.359955 0.225826,0.540019 l 0.705383,-0.352434 c -0.08819,-0.268261 -0.240525,-0.485241 -0.457336,-0.650606 -0.224161,-0.16169 -0.536344,-0.242362 -0.936894,-0.242362 -0.04183,0 -0.0833,0.0019 -0.124023,0.0052 H 37.66437 v -0.358117 h 3.086633 V 97.039611 H 37.66437 v -0.688847 c 0.01103,0.01103 0.09371,0.06265 0.248047,0.154513 0.15434,0.08819 0.303168,0.132291 0.446484,0.132291 0.301104,-1.74e-4 0.555008,-0.153022 0.760677,-0.457853 0.205787,-0.30868 0.308508,-0.650434 0.308508,-1.02526 0,-0.396875 -0.112252,-0.749653 -0.336413,-1.058334 -0.220486,-0.301331 -0.507118,-0.451652 -0.859896,-0.451652 z m -0.15968,0.49041 c 0.143316,0 0.270095,0.0476 0.380338,0.143143 0.106568,0.102894 0.15968,0.226171 0.15968,0.369487 v 0.915189 c 0,0.143316 -0.0476,0.266077 -0.143143,0.36897 -0.102894,0.102894 -0.222668,0.154513 -0.358635,0.154513 -0.15434,0 -0.270095,-0.04611 -0.347265,-0.137976 -0.0735,-0.09187 -0.110071,-0.209118 -0.110071,-0.352434 v -0.926041 c 0,-0.143316 0.03657,-0.268603 0.110071,-0.375171 0.07717,-0.106568 0.180408,-0.15968 0.309025,-0.15968 z" />
        <path
           d="m 80.477043,97.629499 -0.496094,-0.804775 h -0.496095 v -0.490582 h 2.530081 v 0.490582 h -0.644923 l 1.245748,2.414325 q 0.198438,0.385851 0.341754,0.496094 0.137804,0.121268 0.319705,0.121268 0.07166,0 0.198438,-0.08819 0.115755,-0.07717 0.187413,-0.07717 0.110244,0 0.159853,0.08819 0.05512,0.08819 0.05512,0.20395 0,0.286629 -0.292145,0.479559 -0.286632,0.18741 -0.611849,0.18741 -0.48507,0 -0.722093,-0.27561 -0.248047,-0.28112 -0.396876,-0.567748 l -0.79375,0.573268 q -0.220487,0.15985 -0.402388,0.23702 -0.181901,0.0717 -0.4079,0.0717 -0.08268,0 -0.352778,-0.0331 -0.270096,-0.022 -0.584289,-0.3638 -0.30868,-0.347265 -0.30868,-0.848871 0,-0.595313 0.556728,-1.052822 z m -0.4079,2.022962 q 0,0.12678 0.159853,0.259072 0.159852,0.126777 0.336241,0.126777 0.115756,0 0.220487,-0.07717 0.09371,-0.08268 0.143316,-0.110243 l 0.633898,-0.48507 -0.501606,-0.777214 -0.672484,0.540191 q -0.148828,0.115755 -0.23151,0.253559 -0.08819,0.132292 -0.08819,0.270096 z"
           id="path3540"
           style="stroke-width:0.25;stroke-dasharray:none" />
        <path
           d="m 87.422363,99.47056 v 2.8994 h 0.992188 v -6.256305 h -1.157553 v 0.214975 h 0.187413 v 1.995401 q 0,0.429948 -0.253559,0.666971 -0.259071,0.248047 -0.43546,0.308681 -0.176389,0.05512 -0.4079,0.05512 -0.165365,0 -0.518143,-0.05512 -0.35829,-0.0441 -0.705556,-0.385851 -0.341754,-0.341754 -0.4079,-0.683508 -0.06063,-0.341754 -0.07166,-0.396875 -0.0055,-0.04961 -0.0055,-0.159853 0,-0.424436 0.308681,-0.870921 0.03858,0.253559 0.15434,0.507119 0.121268,0.253559 0.53468,0.253559 0.319705,0 0.556728,-0.198438 0.242534,-0.20395 0.242534,-0.501606 0,-0.369315 -0.242534,-0.622874 -0.25356,-0.248047 -0.650435,-0.248047 -0.666971,0 -1.063847,0.534679 -0.407899,0.529167 -0.407899,1.273309 0,0.84336 0.63941,1.471746 0.633898,0.622874 1.427649,0.622874 0.4079,0 0.68902,-0.08819 0.270096,-0.08268 0.595313,-0.336242 z"
           id="path3542"
           style="stroke-width:0.25;stroke-dasharray:none" />
        <path
           d="m 89.417765,93.627672 -1.201651,-0.264583 q -0.347266,-0.08819 -0.545703,-0.214974 -0.20395,-0.132292 -0.20395,-0.418924 0,-0.259072 0.165364,-0.424437 0.165365,-0.170877 0.429949,-0.170877 0.181901,0 0.336241,0.09371 0.159853,0.09922 0.391364,0.286632 l 0.782726,0.705557 z"
           id="path3544"
           style="stroke-width:0.25;stroke-dasharray:none" />
        <path
           d="m 90.079223,96.819212 q -0.01102,-0.04961 -0.01102,-0.121268 -0.0055,-0.07166 -0.0055,-0.143316 0,-0.68902 0.369315,-1.069359 0.374826,-0.374826 0.611849,-0.457509 0.237023,-0.08819 0.534679,-0.08819 0.159853,0 0.639411,0.05512 0.48507,0.06063 0.694532,0.06063 0.617362,0 0.9977,-0.104731 0.385852,-0.110243 0.749654,-0.418924 0.369315,-0.314193 0.534679,-0.490582 0.165365,-0.181901 0.165365,-0.33073 0,-0.04961 -0.02205,-0.09922 -0.01102,-0.0055 -0.02205,-0.0055 -0.08268,0 -0.413412,0.143316 -0.424436,0.17639 -0.556728,0.209462 -0.12678,0.02756 -0.303169,0.0441 -0.170877,0.01654 -0.352778,0.01654 -0.159852,0 -0.501606,-0.02205 -0.341754,-0.02756 -0.53468,-0.02756 -0.08268,0 -0.187413,0.01102 -0.110243,0.0055 -0.507119,0.03858 -0.396875,0.03307 -0.915018,0.286632 -0.512631,0.25356 -1.019749,0.804776 -0.518143,0.567752 -0.705556,1.163065 -0.192926,0.589801 -0.192926,1.449698 0,1.163065 0.556728,2.056035 0.56224,0.892973 1.559941,0.892973 0.826824,0 1.355991,-0.677999 0.523655,-0.683508 0.523655,-1.58199 0,-0.870921 -0.507119,-1.570965 -0.507118,-0.68902 -1.25126,-0.68902 -0.413412,0 -0.71658,0.159853 -0.297657,0.165365 -0.567753,0.507119 z m 0.07166,2.254472 v -1.295357 q 0,-0.413412 0.25356,-0.727605 0.253559,-0.319705 0.633898,-0.319705 0.341754,0 0.540191,0.319705 0.187414,0.314193 0.187414,0.727605 v 1.30087 q 0,0.396875 -0.181901,0.700044 -0.181902,0.297659 -0.501607,0.297659 -0.418924,0 -0.677995,-0.297659 -0.25356,-0.297657 -0.25356,-0.705557 z"
           id="path3546"
           style="stroke-width:0.25;stroke-dasharray:none" />
        <path
           d="m 96.159132,100.00524 q 0.578777,0 0.97014,-0.578777 0.396876,-0.578777 0.396876,-1.30087 0,-0.749653 -0.418924,-1.32843 -0.429949,-0.584289 -1.102432,-0.584289 -0.336242,0 -0.584289,0.176389 -0.242535,0.176389 -0.440973,0.501607 -0.165364,-0.209462 -0.35829,-0.292145 -0.198438,-0.08819 -0.363802,-0.143316 -0.159853,-0.05512 -0.264584,-0.05512 -0.181901,0 -0.209462,0.15434 0,0.01654 0,0.03307 0,0.121267 0.148828,0.237023 0.165365,0.137804 0.231511,0.264583 0.05512,0.12678 0.08268,0.270096 0.03307,0.143316 0.03307,0.341754 v 4.117585 q -0.05512,-0.0441 -0.126779,-0.0717 -0.03859,-0.0165 -0.07717,-0.0165 -0.03307,0 -0.06615,0.006 -0.09922,0.0221 -0.159853,0.11024 -0.05512,0.0882 -0.05512,0.19844 0,0.28112 0.231511,0.47956 0.231511,0.19843 0.540192,0.19843 0.319705,0 0.523655,-0.24804 0.20395,-0.24805 0.20395,-0.57878 v -2.243451 q 0.08268,0.07717 0.352778,0.214974 0.275608,0.137807 0.51263,0.137807 z m -0.892969,-1.311894 v -1.190627 q 0,-0.264583 0.148828,-0.468533 0.148828,-0.209462 0.391363,-0.209462 0.275608,0 0.479558,0.181901 0.198438,0.192926 0.198438,0.468534 v 1.174089 q 0,0.270096 -0.181901,0.468534 -0.181902,0.198437 -0.451997,0.198437 -0.286633,0 -0.435461,-0.170876 -0.148828,-0.17639 -0.148828,-0.451997 z"
           id="path3548"
           style="stroke-width:0.25;stroke-dasharray:none" />
        <path
           d="m 100.21057,96.411312 q 0.89848,0 1.53238,0.622874 0.6339,0.617362 0.6339,1.499307 0,0.876433 -0.59532,1.521357 -0.59531,0.64492 -1.44969,0.64492 -0.854389,0 -1.449702,-0.62838 -0.595313,-0.617367 -0.595313,-1.4938 0,-0.870921 0.551215,-1.515843 0.551216,-0.650435 1.37253,-0.650435 z m -0.617364,1.311894 v 1.521355 q 0,0.380339 0.187413,0.677996 0.192926,0.297653 0.529171,0.297653 0.32521,0 0.52916,-0.270092 0.20395,-0.270096 0.20395,-0.633899 v -1.593013 q 0,-0.319706 -0.22048,-0.556728 -0.23151,-0.231511 -0.54019,-0.231511 -0.297661,0 -0.496098,0.231511 -0.192926,0.23151 -0.192926,0.556728 z"
           id="path3550"
           style="stroke-width:0.25;stroke-dasharray:none" />
      </g>
      <g
         aria-label="A"
         id="text1946"
         style="font-size:14.1111px;line-height:0;font-family:'CS New Athanasius';-inkscape-font-specification:'CS New Athanasius';text-align:center;text-anchor:middle;display:inline;fill:none;stroke:#000000;stroke-width:0.25;stroke-dasharray:none"
         inkscape:label="alphafront"
         transform="translate(43.708082,-22.570567)">
        <path
           d="m 57.382134,71.670392 q 0.08957,0.01378 0.151584,0.01378 0.447862,0 0.909505,-0.261827 0.468533,-0.254938 0.668348,-0.861274 0.186036,-0.606337 0.248047,-1.012858 0.04823,-0.406522 0.04823,-0.792372 0,-0.310059 -0.0069,-0.819933 -0.02067,-0.516764 -0.02067,-0.578776 0,-1.536513 -0.261827,-2.129069 -0.254937,-0.599447 -0.544325,-0.689019 -0.289388,-0.09646 -0.385851,-0.09646 -0.172255,0 -0.268718,0.02756 -0.110243,0.04134 -0.144694,0.06201 0.227377,0.227376 0.454753,0.523654 0.227376,0.310059 0.227376,0.633898 0,0.475423 -0.38585,0.778591 -0.399631,0.296279 -0.923286,0.296279 -0.468533,0 -0.826823,-0.468533 -0.36518,-0.454753 -0.36518,-0.992188 0,-1.019748 0.930176,-1.522732 0.937066,-0.496094 2.253092,-0.496094 1.219564,0 2.349555,0.689019 1.129992,0.70969 1.667426,1.667426 0.523655,0.971517 0.764812,1.715658 0.248047,0.73725 0.496093,1.502062 0.254937,0.757921 0.564996,1.384928 0.296278,0.633897 0.613227,0.978407 0.310059,0.35829 0.785482,0.599447 0.234266,0.07579 0.38585,0.124023 0.158475,0.04134 0.158475,0.172255 0,0.310058 -0.37207,0.454752 -0.365181,0.137804 -0.840604,0.137804 -0.74414,0 -1.46072,-0.523654 -0.70969,-0.523655 -0.771702,-0.69591 -0.275607,0.454753 -0.902615,0.840604 -0.620117,0.37896 -1.233344,0.37896 -0.461642,0 -0.999077,-0.282498 -0.530545,-0.282497 -0.785482,-0.606336 -0.158474,0.248046 -0.826823,0.585666 -0.661458,0.344509 -1.08176,0.344509 -0.09646,0 -0.523654,-0.06201 -0.434082,-0.04823 -0.999078,-0.647678 -0.558106,-0.606337 -0.558106,-1.350478 0,-0.530544 0.378961,-0.902615 0.37207,-0.37896 0.902615,-0.37896 0.496094,0 0.881944,0.36518 0.392741,0.35829 0.392741,0.847493 0,0.09646 -0.04823,0.296279 -0.04823,0.199815 -0.296278,0.447862 -0.248047,0.248047 -0.399631,0.303168 z m 2.949001,-4.492404 q 0,0.558105 -0.06201,1.488281 -0.05512,0.943956 -0.05512,1.192003 0,0.70969 0.248047,1.295356 0.254937,0.578776 0.819933,0.578776 0.564995,0 0.964626,-0.37896 0.406522,-0.385851 0.406522,-0.957737 0,-0.978407 -0.199816,-1.915473 -0.192925,-0.937066 -0.627007,-1.887912 -0.447863,-0.937066 -0.916396,-1.391819 -0.461642,-0.461643 -0.799262,-0.606337 -0.337619,-0.151584 -0.434082,-0.151584 0.213596,0.537435 0.434082,1.233344 0.220486,0.689019 0.220486,1.502062 z"
           style="stroke-width:0.25;stroke-dasharray:none"
           id="path3553" />
      </g>
      <g
         aria-label="W"
         id="text1950"
         style="font-size:14.1111px;line-height:0;font-family:'CS New Athanasius';-inkscape-font-specification:'CS New Athanasius';text-align:center;text-anchor:middle;display:inline;fill:none;stroke:#000000;stroke-width:0.25;stroke-dasharray:none"
         inkscape:label="omegafront"
         transform="translate(43.708082,-22.570567)">
        <path
           d="m 61.198955,226.54334 q -0.337619,0 -0.923285,1.30914 -0.599446,1.30913 -0.599446,2.5976 0,0.88194 0.3514,1.81212 0.337619,0.93706 0.813041,1.6123 -0.172254,0.25494 -0.502983,0.57188 -0.323839,0.31695 -0.75103,0.31695 -0.72347,0 -1.09554,-0.627 -0.38585,-0.62012 -0.509874,-1.46761 -0.117133,-0.84061 -0.117133,-1.83279 0,-0.90951 0.241157,-1.94303 0.248046,-1.03353 0.502983,-1.74322 0.248047,-0.71658 0.323839,-0.83371 h -2.96967 q -0.268717,0 -0.427191,0.0345 -0.151585,0.0276 -0.199816,0.13091 -0.0069,0.0344 -0.0069,0.062 0,0.11714 0.172255,0.24805 0.234266,0.17914 0.37207,0.26872 l 1.157551,0.74414 q -0.0689,0.0689 -0.385851,0.75103 -0.316948,0.67523 -0.606336,1.57785 -0.289388,0.90261 -0.289388,1.59852 0,1.44694 1.136881,2.65961 1.143771,1.20579 2.287542,1.20579 0.76481,0 1.171331,-0.2136 0.406521,-0.22049 0.943956,-0.76481 0.37207,0.37207 0.978406,0.66835 0.606336,0.31006 1.12999,0.31006 1.123101,0 2.273762,-1.21268 1.150661,-1.21956 1.150661,-2.65272 0,-0.71658 -0.282498,-1.60541 -0.282498,-0.88884 -0.606336,-1.56407 -0.316949,-0.68213 -0.392741,-0.75792 l 1.157551,-0.74414 q 0.399631,-0.26183 0.496094,-0.36518 0.06201,-0.062 0.06201,-0.13092 0,-0.0413 -0.02067,-0.0827 -0.04134,-0.0965 -0.206706,-0.1378 -0.179145,-0.0276 -0.420301,-0.0276 h -2.96967 q 0.03445,0.0482 0.323839,0.8406 0.275607,0.80615 0.516763,1.79834 0.227377,0.99907 0.227377,1.88102 0,0.98529 -0.117134,1.83279 -0.130913,0.86816 -0.509873,1.48139 -0.37207,0.61322 -1.09554,0.61322 -0.406521,0 -0.74414,-0.32384 -0.351399,-0.33072 -0.509874,-0.56499 0.454753,-0.64079 0.813042,-1.59852 0.3514,-0.96463 0.3514,-1.8259 0,-1.38493 -0.578776,-2.64583 -0.571885,-1.26091 -1.11621,-1.26091 z"
           style="stroke-width:0.25;stroke-dasharray:none"
           id="path3556" />
      </g>
      <g
         aria-label="¨"
         id="text1954"
         style="font-size:14.1111px;line-height:0;font-family:'CS New Athanasius';-inkscape-font-specification:'CS New Athanasius';text-align:center;text-anchor:middle;fill:none;stroke:#000000;stroke-width:0.25;stroke-dasharray:none"
         inkscape:label="inGodfront"
         transform="translate(43.708082,-22.570567)">
        <path
           d="m 57.181977,126.69496 q -0.241157,0.90262 -0.399631,1.14377 -0.165364,0.25494 -0.502984,0.25494 -0.413411,0 -0.723469,-0.44097 -0.137804,-0.22738 -0.179145,-0.52365 -0.07579,-0.13781 -0.07579,-0.26872 v -0.29628 l -0.01378,-0.53054 q 0,-0.99219 0.268717,-1.62609 0.282498,-0.53743 0.723469,-0.53743 0.647678,0 0.902615,1.3298 l 0.813042,-0.56499 q -0.689019,-1.11621 -1.715657,-1.11621 -0.227376,0 -0.806151,0.14469 -0.633897,0.22049 -0.950846,0.82682 -0.316948,0.60634 -0.351399,1.54341 0,1.17133 0.578775,1.83279 0.606337,0.63389 1.557182,0.63389 0.620117,0 1.054199,-0.39274 0.454752,-0.49609 0.633897,-0.90261 z m 2.115287,-2.19108 q 0.151584,-0.23426 0.282497,-0.28249 0.110243,-0.0689 0.378961,-0.0689 l 0.282497,0.11713 0.254937,0.22048 0.213596,0.2825 0.165364,0.2825 -0.337619,0.73725 -0.199815,0.4892 -0.124024,0.37207 -0.02756,0.32384 0.02756,0.37896 0.0689,0.36518 0.130914,0.32384 0.110243,0.22738 0.282497,0.33762 q 0.158475,0.11713 0.268718,0.11713 0.37896,-0.1447 0.564995,-0.53744 0.09646,-0.25493 0.137804,-0.57877 l 0.08957,-0.68902 q 0,-0.25494 -0.158474,-0.80615 l -0.37896,-1.01975 q 0.165364,-0.31006 0.447862,-0.46164 0.310058,-0.19982 0.468532,-0.19982 0.151584,0.0413 0.234267,0.2136 0.08957,0.16536 0.08957,0.55121 v 0.25494 q 0.323839,0 0.434082,-0.25494 0.130913,-0.26871 0.130913,-0.39963 0,-1.0542 -0.819932,-1.0542 -0.689018,0 -1.240233,1.0542 -0.537435,-1.01285 -1.240234,-1.01285 -0.254937,0 -0.475423,0.15158 -0.220486,0.14469 -0.344509,0.34451 l -0.09646,0.19292 q -0.06201,0.10336 -0.06201,0.19982 l -0.04134,0.37896 q 0,0.32384 0.199815,0.56499 0.227376,0.19982 0.447862,0.19982 0.296278,0 0.475423,-0.24116 0.179145,-0.24115 0.179145,-0.52365 0,-0.15158 -0.206706,-0.3514 -0.206705,-0.19982 -0.613225,-0.19982 z m 5.698183,0.0896 q 0.268718,0.0551 0.454753,0.32384 l 0.241156,0.3514 0.296278,0.53743 0.234266,0.40652 0.34451,0.52365 q 0.261827,0.31006 0.516764,0.31006 v 1.68121 h 1.074868 v -3.83783 q 0.254937,-0.4272 0.254937,-0.53744 l -0.620116,-0.60634 q -0.454753,0 -0.585666,0.15848 -0.124023,0.15158 -0.124023,0.24805 v 2.21864 q -0.206706,0 -0.420302,-0.29628 l -0.633897,-0.96463 -0.37207,-0.51676 -0.37896,-0.50988 q -0.337619,-0.33762 -0.592556,-0.33762 -0.36518,0 -0.564995,0.15159 -0.137804,0.18603 -0.137804,0.53743 v 3.36241 q -0.296278,0.29628 -0.296278,0.44787 l 0.75792,0.48231 q 0.323839,0 0.413412,-0.11713 0.137803,-0.0965 0.137803,-0.3514 z m -5.842877,-3.54156 0.02756,0.50299 0.08957,0.39963 q 0.110243,0.37896 0.37896,0.70279 0.482313,0.60634 1.398708,0.60634 0.39274,0 0.689018,-0.11024 0.296278,-0.11713 0.516764,-0.30317 0.220486,-0.19293 0.3514,-0.42719 0.137804,-0.24116 0.192925,-0.50988 0.09646,-0.25493 0.09646,-0.41341 l 0.01378,-0.44786 h 0.413411 v -0.62012 h -0.358289 l -0.05512,-0.46853 -0.110243,-0.39274 q -0.172255,-0.39963 -0.434082,-0.7028 -0.261827,-0.30317 -0.613226,-0.44097 -0.36518,-0.17225 -0.806152,-0.17225 -0.420301,0 -0.75792,0.17225 -0.337619,0.16537 -0.564996,0.46164 -0.227376,0.29628 -0.351399,0.69591 -0.117133,0.39274 -0.117133,0.84749 h -0.461643 v 0.62012 z m 1.074869,-0.62012 q 0,-0.96462 0.172254,-1.34358 0.268718,-0.39274 0.578776,-0.39274 0.310058,0.0413 0.434082,0.12402 0.158474,0.0689 0.241156,0.29628 0.110243,0.22738 0.110243,0.48231 l 0.04134,0.83371 z m 0,0.62012 h 1.577852 l -0.05512,0.93018 -0.137804,0.55121 q -0.158474,0.24116 -0.268717,0.2825 l -0.310058,0.0413 q -0.385851,0 -0.599447,-0.41341 -0.206705,-0.4203 -0.206705,-1.39182 z m 0.819932,12.5677 0.509874,0.34451 0.220486,0.11024 q 0.296278,0.13781 0.792371,0.13781 0.406521,0 0.709689,-0.20671 0.303168,-0.19981 0.516764,-0.55121 0.254937,-0.33762 0.337619,-0.80616 0.117133,-0.33761 0.117133,-0.94395 l -0.02756,-0.40652 -0.07579,-0.37207 q -0.08268,-0.37896 -0.206705,-0.60634 -0.199816,-0.32384 -0.420301,-0.59255 -0.220486,-0.26872 -0.440972,-0.46165 l -0.606337,0.68902 0.124024,0.12402 0.296278,0.29628 0.08268,0.11714 0.144694,0.17914 0.110243,0.14469 q 0.103353,0.13781 0.103353,0.36518 l 0.02756,0.1447 v 0.15158 0.22738 q 0,0.39274 -0.08957,0.74414 -0.268717,0.81993 -0.647678,1.04731 -0.365179,0.17225 -0.620116,0.17225 l -0.3514,-0.11713 -0.296278,-0.31006 0.254937,-0.53743 0.179145,-0.40653 0.08957,-0.39274 0.02756,-0.15847 v -0.15158 -0.2136 -0.10335 l -0.02756,-0.3514 -0.07579,-0.37896 -0.234266,-0.68902 -0.144694,-0.29628 -0.137804,-0.21359 q -0.158474,-0.19982 -0.254936,-0.19982 -0.186035,0.10335 -0.213596,0.19982 l -0.172255,0.32383 -0.124023,0.31006 q -0.137804,0.25494 -0.227376,0.76481 l -0.08268,0.68902 0.02756,0.45475 0.09646,0.40652 0.172254,0.43409 0.268718,0.50987 q -0.158475,0.24116 -0.37207,0.33073 -0.206706,0.0965 -0.489204,0.0965 -0.282497,-0.0758 -0.447862,-0.19292 -0.158474,-0.11714 -0.316948,-0.37207 -0.192925,-0.25494 -0.282498,-0.60634 -0.08268,-0.34451 -0.08268,-0.79237 l 0.01378,-0.40652 0.05512,-0.33073 0.130913,-0.24805 0.124024,-0.19981 0.213595,-0.25494 0.296278,-0.31006 -0.551214,-0.7028 q -0.378961,0.33762 -0.592556,0.67524 l -0.213596,0.33762 -0.137804,0.29628 q -0.144694,0.25493 -0.186035,0.59255 l -0.04134,0.55122 q 0,0.59255 0.130914,1.06109 0.110243,0.31006 0.213595,0.50987 0.110243,0.20671 0.192926,0.31695 0.268717,0.33762 0.551214,0.46853 0.282498,0.15159 0.537435,0.15159 l 0.447862,-0.0413 0.36518,-0.0965 q 0.427191,-0.21359 0.709689,-0.45475 z"
           style="stroke-width:0.25;stroke-dasharray:none"
           id="path3559" />
      </g>
      <g
         aria-label="Pisenwnq =e=;=u"
         transform="rotate(90,32.867823,11.355589)"
         id="text1958"
         style="font-size:11.2889px;line-height:0;font-family:'CS New Athanasius';-inkscape-font-specification:'CS New Athanasius';text-align:center;text-anchor:middle;display:inline;fill:none;stroke:#000000;stroke-width:0.25;stroke-dasharray:none"
         inkscape:label="lifegiving">
        <path
           d="m 150.77585,-59.054035 h -0.61736 v 0.573265 h 3.09232 v -0.595313 h -0.81029 v -6.283861 h 0.8599 v -0.63941 h -7.54064 v 0.63941 h 0.8599 v 6.283861 H 145.859 v 0.595313 h 3.18603 v -0.573265 h -0.66697 v -6.305909 h 2.39779 z"
           style="stroke-width:0.25;stroke-dasharray:none"
           id="path3571" />
        <path
           d="m 154.37529,-59.489495 v -2.695446 q 0,-0.275607 0.19292,-0.474045 0.1819,-0.192926 0.46854,-0.192926 0.29765,0 0.57877,0.237023 0.2701,0.248047 0.2701,0.573265 0,0.110243 -0.0386,0.192925 -0.0331,0.07717 -0.12126,0.104731 -0.0221,0.01102 -0.0496,0.01102 -0.0386,0 -0.0772,-0.01654 -0.0717,-0.02205 -0.12127,-0.04961 v 2.827737 q 0,0.220486 -0.17088,0.363802 -0.18741,0.148829 -0.42995,0.148829 -0.32521,0 -0.57877,-0.25356 -0.26459,-0.242535 -0.26459,-0.51263 0,-0.143317 0.0331,-0.209463 0.0331,-0.05512 0.0937,-0.07717 0.0496,-0.01654 0.0882,-0.01654 0.0165,0 0.0331,0 0.0551,0.01654 0.0937,0.03859 z"
           style="stroke-width:0.25;stroke-dasharray:none"
           id="path3573" />
        <path
           d="m 159.64491,-59.009937 q -0.17639,0.170877 -0.5898,0.352778 -0.4079,0.176389 -0.67248,0.176389 -0.79927,0 -1.37804,-0.744141 -0.57878,-0.749654 -0.57878,-1.692233 0,-0.683508 0.35829,-1.289845 0.35278,-0.61185 0.83234,-0.61185 0.11024,0 0.15434,0.05512 0.0441,0.05512 0.11575,0.253559 0.0717,0.198438 0.0717,0.259072 0,0.0441 -0.2701,0.782726 -0.27009,0.733117 -0.27009,1.069359 0,0.551216 0.28112,0.981164 0.28112,0.429948 0.78824,0.429948 0.17639,0 0.50712,-0.137804 0.33624,-0.126779 0.42994,-0.220486 -0.0661,-0.06063 -0.30316,-0.666971 -0.24805,-0.600825 -0.24805,-1.030774 0,-0.600825 0.23702,-1.118968 0.24254,-0.523655 0.64492,-0.523655 0.452,0 0.65044,0.518143 0.19292,0.512631 0.19292,1.157553 0,0.440973 -0.22599,0.887458 -0.22049,0.446485 -0.44098,0.799263 0.12678,0.126779 0.41341,0.253559 0.27561,0.137804 0.45751,0.137804 0.50712,0 0.87092,-0.396876 0.36932,-0.396875 0.36932,-0.915018 0,-0.457509 -0.16537,-0.915018 -0.17638,-0.463021 -0.35277,-0.937067 0,-0.253559 0.1378,-0.429948 0.12678,-0.165365 0.4079,-0.165365 0.46302,0 0.76619,0.821311 0.29214,0.826824 0.29214,1.852086 0,0.43546 -0.12678,1.229211 -0.12678,0.793751 -0.78823,1.466234 -0.65595,0.672483 -1.7198,0.672483 -0.38034,0 -0.85438,-0.181901 -0.46854,-0.181901 -1.0418,-0.396875 -0.25356,-0.03859 -0.43546,-0.03859 -0.22049,0 -0.37483,0.04961 -0.15434,0.05512 -0.27009,0.170877 -0.11576,0.121268 -0.15434,0.214974 -0.0496,0.09922 -0.0496,0.176389 0,0.06615 0.006,0.09371 0.011,0.03307 0.0331,0.05512 0.0661,-0.110244 0.17639,-0.220487 0.11576,-0.110243 0.39688,-0.110243 0.25907,0 0.39687,0.20395 0.14332,0.209462 0.14332,0.48507 0,0.253559 -0.20946,0.418924 -0.20395,0.176389 -0.46854,0.176389 -0.41341,0 -0.70004,-0.303169 -0.28112,-0.297656 -0.28112,-0.727605 0,-0.518143 0.44097,-0.942579 0.44649,-0.429948 0.93156,-0.578776 0.47404,-0.154341 0.84887,-0.154341 0.33073,0 0.58429,0.06615 0.25356,0.06063 0.78824,0.253559 0.52916,0.187414 0.79926,0.187414 0.28112,0 0.61736,-0.148828 0.33624,-0.148829 0.48507,-0.435461 0.14332,-0.275608 0.14332,-0.556728 0,-0.07166 -0.006,-0.115755 0,-0.0441 -0.011,-0.07166 -0.58429,0.617361 -1.44419,0.617361 -0.27009,0 -0.73311,-0.198437 -0.45751,-0.198438 -0.60634,-0.347266 z"
           style="stroke-width:0.25;stroke-dasharray:none"
           id="path3575" />
        <path
           d="m 166.90993,-61.716407 q -0.1819,-0.198438 -0.44648,-0.380339 -0.25907,-0.181901 -0.68351,-0.181901 -0.51814,0 -0.51814,0.424436 v 0.771702 h 1.57096 v 0.644923 h -1.59301 v 0.815799 q 0,0.242535 0.20946,0.385851 0.21498,0.143316 0.4961,0.143316 0.24253,0 0.47404,-0.198437 0.22049,-0.187414 0.39688,-0.380339 l 0.41341,0.347266 q -0.26458,0.440972 -0.59531,0.655947 -0.33073,0.209462 -0.81029,0.209462 -0.8158,0 -1.3615,-0.677996 -0.55673,-0.683508 -0.55673,-1.581989 0,-0.870921 0.50161,-1.53238 0.42443,-0.562241 1.27882,-0.562241 0.32521,0 0.52916,0.02756 0.20947,0.02205 0.41893,0.137804 0.43546,0.270096 0.65043,0.595313 z"
           style="stroke-width:0.25;stroke-dasharray:none"
           id="path3577" />
        <path
           d="m 169.51719,-61.655773 q 0.006,-0.05512 0.0386,-0.154341 0.0221,-0.09922 0.11024,-0.09922 0.16537,0 0.3583,0.297657 0.19292,0.297656 0.32521,0.733117 0.13229,0.446485 0.452,0.749654 0.14883,0.110243 0.30868,0.214974 v 1.339454 h 1.02526 v -3.434074 q 0.0882,0.01102 0.13229,0.01102 0.0882,0 0.13781,-0.01654 0.0551,-0.02205 0.0717,-0.09922 0.0165,-0.08268 0.0165,-0.12678 0,-0.292145 -0.226,-0.501607 -0.22048,-0.203949 -0.55121,-0.203949 -0.30317,0 -0.42995,0.237022 -0.1378,0.237023 -0.1378,0.578777 v 0.275608 q 0,0.137804 -0.10474,0.231511 -0.0992,0.09371 -0.23702,0.09371 -0.20946,0 -0.34726,-0.259071 -0.11025,-0.248047 -0.22049,-0.501607 -0.16537,-0.286632 -0.44649,-0.485069 -0.28663,-0.187414 -0.55121,-0.187414 -0.15434,0 -0.44649,0.148828 -0.30316,0.159853 -0.30316,0.617362 v 2.83325 q -0.0551,-0.03859 -0.12678,-0.07166 -0.0386,-0.01654 -0.0772,-0.01654 -0.0331,0 -0.0661,0.01102 -0.0992,0.02205 -0.15985,0.110243 -0.0551,0.08819 -0.0551,0.198438 0,0.275608 0.23151,0.474046 0.23151,0.198438 0.54019,0.198438 0.3197,0 0.52916,-0.237023 0.20947,-0.242535 0.20947,-0.584289 z"
           style="stroke-width:0.25;stroke-dasharray:none"
           id="path3579" />
        <path
           d="m 177.25074,-60.950217 q 0,-0.650435 -0.22048,-1.163065 -0.23151,-0.518143 -0.66697,-0.518143 -0.37483,0 -0.678,0.523655 -0.29765,0.534679 -0.29765,1.113456 0,0.451997 0.20395,0.92053 0.20946,0.474046 0.41892,0.865409 -0.0606,0.0441 -0.20946,0.15434 -0.15986,0.115756 -0.42995,0.115756 -0.49058,0 -0.7717,-0.385851 -0.27561,-0.380339 -0.27561,-0.997701 0,-0.474046 0.28663,-1.09692 0.27561,-0.617361 0.27561,-0.777214 0,-0.242535 -0.14332,-0.424436 -0.14331,-0.181901 -0.38034,-0.181901 -0.5457,0 -0.89848,0.666971 -0.34726,0.672483 -0.34726,1.45521 0,0.826823 0.57326,1.510331 0.56224,0.68902 1.23472,0.68902 0.452,0 0.75517,-0.121268 0.30868,-0.126779 0.61736,-0.43546 0.29215,0.303169 0.61185,0.429948 0.30868,0.12678 0.73863,0.12678 0.67248,0 1.24575,-0.683508 0.57877,-0.68902 0.57877,-1.515843 0,-0.782727 -0.35277,-1.449698 -0.34727,-0.672483 -0.904,-0.672483 -0.226,0 -0.36931,0.181901 -0.15434,0.187413 -0.15434,0.424436 0,0.176389 0.28112,0.799263 0.28663,0.617362 0.28663,1.074871 0,0.617362 -0.2701,0.997701 -0.28112,0.385851 -0.77721,0.385851 -0.226,0 -0.37483,-0.08819 -0.15985,-0.08819 -0.2756,-0.181901 0.18741,-0.192926 0.43546,-0.788239 0.25355,-0.595313 0.25355,-0.953603 z"
           style="stroke-width:0.25;stroke-dasharray:none"
           id="path3581" />
        <path
           d="m 181.69905,-61.655773 q 0.006,-0.05512 0.0386,-0.154341 0.0221,-0.09922 0.11024,-0.09922 0.16537,0 0.35829,0.297657 0.19293,0.297656 0.32522,0.733117 0.13229,0.446485 0.452,0.749654 0.14883,0.110243 0.30868,0.214974 v 1.339454 h 1.02526 v -3.434074 q 0.0882,0.01102 0.13229,0.01102 0.0882,0 0.13781,-0.01654 0.0551,-0.02205 0.0716,-0.09922 0.0165,-0.08268 0.0165,-0.12678 0,-0.292145 -0.226,-0.501607 -0.22049,-0.203949 -0.55121,-0.203949 -0.30317,0 -0.42995,0.237022 -0.13781,0.237023 -0.13781,0.578777 v 0.275608 q 0,0.137804 -0.10473,0.231511 -0.0992,0.09371 -0.23702,0.09371 -0.20946,0 -0.34727,-0.259071 -0.11024,-0.248047 -0.22048,-0.501607 -0.16537,-0.286632 -0.44649,-0.485069 -0.28663,-0.187414 -0.55121,-0.187414 -0.15434,0 -0.44649,0.148828 -0.30317,0.159853 -0.30317,0.617362 v 2.83325 q -0.0551,-0.03859 -0.12678,-0.07166 -0.0386,-0.01654 -0.0772,-0.01654 -0.0331,0 -0.0661,0.01102 -0.0992,0.02205 -0.15986,0.110243 -0.0551,0.08819 -0.0551,0.198438 0,0.275608 0.23151,0.474046 0.23151,0.198438 0.54019,0.198438 0.31971,0 0.52917,-0.237023 0.20946,-0.242535 0.20946,-0.584289 z"
           style="stroke-width:0.25;stroke-dasharray:none"
           id="path3583" />
        <path
           d="m 187.82306,-62.87396 v -0.788239 h -0.78823 v -0.402388 h 2.52456 v 0.451997 h -0.61736 l -0.1378,0.760678 q 0.16536,0.110243 0.33624,0.220487 0.38034,0.30868 0.65043,0.777214 0.2701,0.479558 0.2701,1.168578 0,0.666971 -0.17639,1.118968 -0.17639,0.451997 -0.55673,0.744141 -0.38034,0.303169 -0.61736,0.4079 -0.23702,0.09922 -0.57877,0.09922 -0.41893,0 -0.71659,-0.187414 -0.29214,-0.192925 -0.5457,-0.440972 -0.24805,-0.25356 -0.34727,-0.292145 -0.10473,-0.02756 -0.28112,-0.02756 -0.1819,0 -0.27009,0.07717 -0.0827,0.07717 -0.14883,0.165364 0.0772,-0.01654 0.17639,-0.03307 0.0386,-0.0055 0.0772,-0.0055 0.0386,0 0.0717,0.0055 0.16536,0.0441 0.25356,0.176389 0.0882,0.12678 0.0882,0.325218 0,0.159852 -0.17088,0.248047 -0.16536,0.09371 -0.37482,0.09371 -0.20946,0 -0.35829,-0.192926 -0.14883,-0.187413 -0.14883,-0.451997 v -0.07166 q 0.0441,-0.474046 0.47405,-0.744141 0.42994,-0.275608 0.92604,-0.275608 0.49058,0 0.99219,0.308681 0.5016,0.30868 0.70555,0.30868 0.42995,0 0.71658,-0.270095 0.27561,-0.259072 0.27561,-0.771702 0,-0.650435 -0.40239,-0.94258 -0.39687,-0.292144 -0.80477,-0.468533 -0.0276,0.104731 -0.24254,0.457509 -0.21497,0.347266 -0.74965,0.639411 -0.52917,0.303168 -0.9977,0.303168 -0.22049,0 -0.56224,-0.06615 0,-0.468533 0.15985,-0.810287 0.14883,-0.330729 0.49058,-0.777214 0.33073,-0.435461 0.71107,-0.595313 0.38585,-0.165365 0.69453,-0.242535 z m -1.11896,1.339454 q -0.20947,0.165365 -0.30868,0.347266 -0.11025,0.192926 -0.15986,0.451997 0.47405,0 0.76068,-0.237023 0.28663,-0.237023 0.39688,-0.429948 0.11024,-0.198438 0.15985,-0.451997 -0.26459,0 -0.452,0.07166 -0.1819,0.07166 -0.39687,0.248047 z"
           style="stroke-width:0.25;stroke-dasharray:none"
           id="path3585" />
        <path
           id="path3587"
           style="stroke-width:0.25;stroke-dasharray:none"
           d="m 193.08228,-63.756839 h 6.11578 2.93479 1.02012 5.09517 v -0.631985 h -5.09517 -1.02012 -5.09566 -3.95491 z"
           sodipodi:nodetypes="ccccccccccc" />
        <path
           d="m 196.67008,-61.716407 q -0.1819,-0.198438 -0.44649,-0.380339 -0.25907,-0.181901 -0.6835,-0.181901 -0.51815,0 -0.51815,0.424436 v 0.771702 h 1.57097 v 0.644923 h -1.59302 v 0.815799 q 0,0.242535 0.20947,0.385851 0.21497,0.143316 0.49609,0.143316 0.24254,0 0.47405,-0.198437 0.22048,-0.187414 0.39687,-0.380339 l 0.41341,0.347266 q -0.26458,0.440972 -0.59531,0.655947 -0.33073,0.209462 -0.81029,0.209462 -0.8158,0 -1.3615,-0.677996 -0.55673,-0.683508 -0.55673,-1.581989 0,-0.870921 0.50161,-1.53238 0.42443,-0.562241 1.27882,-0.562241 0.32522,0 0.52917,0.02756 0.20946,0.02205 0.41892,0.137804 0.43546,0.270096 0.65043,0.595313 z"
           style="stroke-width:0.25;stroke-dasharray:none"
           id="path3589" />
        <path
           d="m 200.74356,-60.955729 v -0.655947 q 0,-0.303169 -0.19844,-0.518143 -0.20395,-0.20395 -0.5016,-0.20395 -0.26459,0 -0.452,0.209462 -0.18741,0.225999 -0.18741,0.512631 v 0.655947 z m -1.33945,0.545703 v 0.573265 q 0,0.347266 0.1819,0.600825 0.1819,0.264584 0.49058,0.264584 0.29766,0 0.48507,-0.248047 0.1819,-0.237023 0.1819,-0.556728 v -0.633899 z m 2.52457,0 q 0,0.666972 -0.56776,1.30087 -0.56775,0.628386 -1.3174,0.628386 -0.71658,0 -1.25677,-0.633898 -0.53468,-0.633899 -0.53468,-1.295358 h -0.49059 v -0.545703 h 0.50161 q 0,-0.760678 0.52917,-1.317406 0.52365,-0.545704 1.28433,-0.545704 0.76068,0 1.30638,0.545704 0.55122,0.545704 0.55122,1.317406 h 0.48507 v 0.545703 z"
           style="stroke-width:0.25;stroke-dasharray:none"
           id="path3593" />
        <path
           d="m 205.82577,-62.025088 q 0.31971,-0.341754 0.73863,-0.677995 0.41893,-0.341754 0.95912,-0.341754 0.11024,0 0.30317,0.02756 0.1819,0.03307 0.30317,0.253559 0.12677,0.220486 0.16536,0.595313 0,0.03859 0,0.07717 0,0.341754 -0.21497,0.700044 -0.24805,0.413412 -0.50712,0.413412 -0.0717,0 -0.14332,-0.06615 -0.0772,-0.05512 -0.0772,-0.181901 0,-0.06063 0.011,-0.187413 0.0165,-0.132292 0.0165,-0.192926 0,-0.176389 -0.15434,-0.253559 -0.17088,-0.07717 -0.38034,-0.07717 -0.19292,0 -0.39136,0.170876 -0.19844,0.165365 -0.23151,0.25356 0.0496,0.04961 0.26458,0.666971 0.21498,0.617362 0.21498,1.030774 0,0.551215 -0.24254,1.003212 -0.23702,0.451997 -0.66146,0.451997 -0.37482,0 -0.63941,-0.463021 -0.25907,-0.457509 -0.25907,-0.992188 0,-0.429949 0.21497,-0.981165 0.21498,-0.551215 0.41893,-0.755165 -0.0606,-0.143316 -0.11576,-0.214975 -0.0496,-0.07717 -0.21497,-0.225998 -0.15985,-0.15434 -0.4079,-0.248047 0.19292,0.220486 0.19292,0.545704 0,0.347266 -0.27009,0.56224 -0.2701,0.225998 -0.66146,0.225998 -0.36931,0 -0.63941,-0.28112 -0.26458,-0.286632 -0.26458,-0.666971 0,-0.474046 0.33624,-0.815799 0.34175,-0.347266 0.81029,-0.347266 0.49609,0 0.98667,0.413411 0.4961,0.4079 0.54019,0.578777 z"
           style="stroke-width:0.25;stroke-dasharray:none"
           id="path3597" />
      </g>
    </g>
  </g>
</svg>
