<?xml version="1.0" encoding="UTF-8" standalone="no"?>
<!-- Created with Inkscape (http://www.inkscape.org/) -->

<svg
   width="30.249994mm"
   height="30.249996mm"
   viewBox="0 0 30.249994 30.249996"
   version="1.1"
   id="svg1"
   inkscape:version="1.3 (0e150ed6c4, 2023-07-21)"
   sodipodi:docname="orbana.svg"
   xmlns:inkscape="http://www.inkscape.org/namespaces/inkscape"
   xmlns:sodipodi="http://sodipodi.sourceforge.net/DTD/sodipodi-0.dtd"
   xmlns="http://www.w3.org/2000/svg"
   xmlns:svg="http://www.w3.org/2000/svg">
  <sodipodi:namedview
     id="namedview1"
     pagecolor="#ffffff"
     bordercolor="#000000"
     borderopacity="0.25"
     inkscape:showpageshadow="2"
     inkscape:pageopacity="0.0"
     inkscape:pagecheckerboard="0"
     inkscape:deskcolor="#d1d1d1"
     inkscape:document-units="mm"
     inkscape:zoom="2.8284271"
     inkscape:cx="18.384776"
     inkscape:cy="108.18734"
     inkscape:window-width="1920"
     inkscape:window-height="1112"
     inkscape:window-x="-8"
     inkscape:window-y="-8"
     inkscape:window-maximized="1"
     inkscape:current-layer="g5620-3" />
  <defs
     id="defs1" />
  <g
     inkscape:label="Layer 1"
     inkscape:groupmode="layer"
     id="layer1"
     transform="translate(-89.429171,-133.35)">
    <g
       id="g5620-3"
       inkscape:label="orban"
       style="display:inline"
       transform="translate(-13.493488,40.81698)">
      <circle
         style="display:inline;fill:#ffb380;stroke:#000000;stroke-width:0.25"
         id="path2853-0"
         cx="118.04765"
         cy="107.65802"
         r="15" />
      <path
         id="path2853-9-9"
         style="display:none;fill:none;stroke:#d45500;stroke-width:0.0999597;stroke-dasharray:none"
         d="m 112.536,114.71109 c -0.80961,-0.63711 -1.50555,-1.41886 -2.0502,-2.29314 -2.301,-3.42415 -1.63332,-8.39277 1.35424,-11.19737 2.81726,-2.894094 7.65669,-3.257336 11.00009,-1.08398 3.96946,2.32031 5.23579,7.96697 2.96756,11.89008 -2.36291,4.67539 -9.27361,6.03196 -13.27169,2.68441 z" />
      <path
         d="m 110.91465,114.32011 -0.16786,-0.17886 -0.015,-0.41677 -0.11154,0.10468 -0.38699,-0.002 -0.0131,0.38272 -0.11154,0.10468 0.40611,0.0441 0.16786,0.17887 -0.17786,0.16691 -0.40904,0.0172 0.10467,0.11154 -0.0122,0.38373 0.38536,0.022 0.10562,0.11255 0.0425,-0.41592 0.17786,-0.16691 0.16879,0.17987 0.0173,0.40709 0.11154,-0.10467 0.38467,0.0132 0.0211,-0.38832 0.11154,-0.10467 -0.41403,-0.0405 -0.16879,-0.17987 0.1869,-0.1754 0.41677,-0.015 -0.10562,-0.11255 0.002,-0.38504 -0.38171,-0.0141 -0.10468,-0.11154 -0.0431,0.40712 z m -0.7544,-1.94378 q -0.005,-0.0173 -0.0109,-0.0284 -0.0394,-0.0804 -0.12708,-0.14029 -0.087,-0.0617 -0.2135,-0.0442 -0.12527,0.02 -0.20373,0.0446 -0.0773,0.0271 -0.14655,0.0611 -0.0557,0.0273 -0.14665,0.0734 -0.091,0.0492 -0.10212,0.0547 -0.27594,0.13524 -0.35931,0.23442 -0.0852,0.0986 -0.0758,0.1584 0.008,0.0605 0.0166,0.0778 0.0152,0.0309 0.0286,0.0458 0.0171,0.0162 0.0239,0.0205 0.0208,-0.0609 0.054,-0.12776 0.0357,-0.0681 0.0938,-0.0966 0.0854,-0.0419 0.17379,7.6e-4 0.0884,0.0457 0.13448,0.13973 0.0412,0.0841 -0.0114,0.18973 -0.0495,0.10561 -0.14604,0.15292 -0.18314,0.0898 -0.35534,-0.033 -0.17158,-0.12462 -0.28742,-0.36097 -0.10734,-0.21902 -0.0831,-0.4826 0.028,-0.2654 0.15269,-0.44622 0.12838,-0.17955 0.24079,-0.28836 0.11057,-0.10944 0.22609,-0.22131 0.11367,-0.1125 0.19899,-0.22337 0.0878,-0.109 0.12173,-0.19625 0.037,-0.0872 0.0385,-0.19383 -0.007,-0.0487 -0.0117,-0.0802 -0.007,-0.0321 0.017,-0.0436 0.0557,-0.0273 0.11442,0.0268 0.0569,0.0535 0.0987,0.13884 0.0655,0.13364 0.0345,0.30842 -0.0316,0.17354 -0.0571,0.19984 0.10593,0.009 0.23041,0.0881 0.12264,0.078 0.17662,0.18814 0.0406,0.0829 0.0372,0.20429 -0.004,0.12014 -0.0398,0.19443 0.0585,0.007 0.17796,0.0969 0.12009,0.0885 0.15709,0.16395 0.008,0.0173 0.0349,0.0995 0.0296,0.0822 -0.0284,0.23643 -0.0598,0.1536 -0.19341,0.2191 -0.0953,0.0467 -0.19546,0.0114 -0.1008,-0.0335 -0.1475,-0.12874 -0.0437,-0.0891 -0.0121,-0.19053 0.0298,-0.10207 0.11763,-0.14513 0.0173,-0.008 0.0575,-0.0174 0.0401,-0.009 0.10651,0.0138 0.0664,0.0227 0.0896,0.0451 z m -1.06636,-0.13419 q 0.10023,-0.0491 0.27273,-0.11986 0.17438,-0.0732 0.21893,-0.095 0.12745,-0.0625 0.21079,-0.15857 0.0815,-0.0967 0.0318,-0.19819 -0.0497,-0.10147 -0.15296,-0.13988 -0.10508,-0.0391 -0.20778,0.0113 -0.17571,0.0861 -0.32641,0.20449 -0.15131,0.11713 -0.28386,0.27878 -0.12887,0.16291 -0.16929,0.28708 -0.0423,0.12354 -0.0385,0.19691 0.002,0.074 0.011,0.0913 0.0777,-0.0857 0.18329,-0.18652 0.10433,-0.10024 0.25035,-0.17181 z m -0.60117,-1.78818 0.0606,0.25329 -0.12865,0.0308 -0.28386,-1.18607 0.12732,-0.0305 0.025,0.10454 0.33182,0.10762 -0.0297,0.22532 -0.15027,-0.0476 q -0.023,-0.007 -0.039,-0.009 -0.007,2.7e-4 -0.0124,0.002 -0.008,0.002 -0.0128,0.006 -0.008,0.009 -0.01,0.0193 -0.002,0.0103 0.006,0.0412 l 0.067,0.2801 q 0.0138,0.0576 0.0573,0.0855 0.0455,0.0302 0.10713,0.0155 0.0643,-0.0154 0.11198,-0.10048 0.046,-0.0861 0.0943,-0.23937 0.0467,-0.15428 0.0924,-0.21198 0.0467,-0.0594 0.12445,-0.078 0.13134,-0.0314 0.23468,0.0629 0.10633,0.095 0.14225,0.24509 0.0237,0.0992 0.0144,0.19635 -0.011,0.0962 -0.0592,0.1077 -0.0268,0.006 -0.039,-0.009 -0.0125,-0.0168 -0.0392,-0.0926 -0.0236,-0.0751 -0.0678,-0.1 -0.0452,-0.0232 -0.0854,-0.0136 -0.0576,0.0138 -0.0871,0.086 -0.0224,0.0663 -0.0464,0.13156 -0.0396,0.0832 -0.0828,0.12751 -0.0426,0.047 -0.11496,0.0644 -0.0911,0.0218 -0.16905,-0.008 -0.0769,-0.0312 -0.13905,-0.0659 z m 0.468,-1.30248 -0.66833,0.0861 q -0.0683,0.009 -0.12371,-0.0327 -0.0536,-0.0389 -0.0628,-0.11 -0.01,-0.0738 0.0403,-0.15109 0.0529,-0.0749 0.13351,-0.0853 0.0273,-0.004 0.0491,0.003 0.0202,0.006 0.0298,0.0267 0.003,0.005 0.004,0.0119 0.001,0.01 -0.002,0.0197 -0.003,0.0185 -0.008,0.0316 l 0.70113,-0.0904 q 0.0547,-0.007 0.0957,0.0307 0.0429,0.0417 0.0506,0.10185 0.0104,0.0806 -0.0444,0.15161 -0.0517,0.0734 -0.11865,0.082 -0.0355,0.005 -0.053,-0.002 -0.0147,-0.006 -0.0221,-0.0208 -0.006,-0.0118 -0.007,-0.0213 -5.3e-4,-0.004 -0.001,-0.008 0.002,-0.0142 0.007,-0.0245 z m -0.90219,-0.93909 q -0.008,-0.22448 0.14198,-0.3884 0.1486,-0.16387 0.36894,-0.17172 0.21897,-0.008 0.3854,0.13519 0.16643,0.14299 0.17403,0.35646 0.008,0.21346 -0.14409,0.36778 -0.14894,0.15423 -0.36791,0.16203 -0.21759,0.008 -0.38363,-0.12422 -0.16741,-0.13193 -0.17472,-0.33712 z m 0.33326,0.14256 0.3801,-0.0135 q 0.095,-0.003 0.16772,-0.0529 0.0726,-0.0508 0.0697,-0.13486 -0.003,-0.0812 -0.0722,-0.1298 -0.0693,-0.0485 -0.16019,-0.0453 l -0.398,0.0142 q -0.0799,0.003 -0.13713,0.06 -0.0558,0.0599 -0.053,0.13702 0.003,0.0744 0.0623,0.12189 0.0596,0.0461 0.14081,0.0432 z m 0.0939,-1.57198 -0.0919,-0.23139 q -0.12969,0.031 -0.21801,0.13172 -0.0868,0.0994 -0.10202,0.28762 -0.0162,0.20054 0.13002,0.35889 0.14735,0.16121 0.36163,0.17851 0.21702,0.0175 0.38317,-0.12253 0.16868,-0.13708 0.18597,-0.35136 0.0117,-0.14422 -0.0663,-0.25697 -0.0765,-0.11401 -0.22064,-0.17819 l -0.11281,0.23284 q 0.0939,0.0186 0.18578,0.062 0.0919,0.0434 0.082,0.16561 -0.01,0.1195 -0.11374,0.14152 -0.10397,0.0206 -0.28116,0.006 -0.18406,-0.0149 -0.29518,-0.0598 -0.1125,-0.045 -0.10296,-0.16316 0.008,-0.10301 0.0971,-0.14147 0.0888,-0.0384 0.17905,-0.0602 z m -0.59827,-1.46851 -0.12311,0.2819 q -0.0384,0.0809 -0.0792,0.12343 -0.0423,0.0436 -0.11263,0.0297 -0.0635,-0.0126 -0.0961,-0.0611 -0.0339,-0.0488 -0.0211,-0.11373 0.009,-0.0446 0.0393,-0.0779 0.0321,-0.0344 0.0893,-0.0821 l 0.21096,-0.15779 z m 0.45458,-0.0279 q 0.0555,-0.21767 0.24549,-0.33278 0.18869,-0.11546 0.40235,-0.061 0.21233,0.0541 0.33181,0.23814 0.11949,0.18403 0.0667,0.39101 -0.0527,0.20698 -0.24172,0.31241 -0.18631,0.10611 -0.39864,0.052 -0.21099,-0.0538 -0.3332,-0.22712 -0.12354,-0.17368 -0.0728,-0.37265 z m 0.27971,0.23054 0.36856,0.0939 q 0.0921,0.0235 0.17582,-0.004 0.084,-0.0284 0.10477,-0.10982 0.0201,-0.0788 -0.0328,-0.14487 -0.0529,-0.0661 -0.14098,-0.0885 l -0.38592,-0.0983 q -0.0774,-0.0197 -0.14849,0.019 -0.0704,0.0418 -0.0894,0.11657 -0.0184,0.0721 0.0255,0.13448 0.0442,0.061 0.12297,0.0811 z m 0.2441,-1.58837 q 0.32842,0.16892 0.70496,0.0635 0.37531,-0.10604 0.52406,-0.39524 0.15379,-0.29901 0.008,-0.66554 -0.14809,-0.36285 -0.50225,-0.545 -0.34925,-0.17963 -0.71672,-0.11295 -0.36628,0.0704 -0.53267,0.39392 -0.17648,0.34312 -0.0155,0.70797 0.16042,0.36299 0.5305,0.55334 z m 0.57612,-1.01467 0.36518,0.18783 q 0.11274,0.058 0.15391,0.17678 0.0412,0.11881 -0.0156,0.2291 -0.0605,0.11764 -0.18488,0.1606 -0.12496,0.0411 -0.24138,-0.0188 l -0.36028,-0.1853 z m -0.44231,0.46829 -0.35906,-0.18468 q -0.12377,-0.0636 -0.17471,-0.19058 -0.0509,-0.12693 0.009,-0.24334 0.0599,-0.11642 0.19212,-0.14758 0.13288,-0.0324 0.25665,0.0313 l 0.35906,0.18467 z m 1.33407,-1.7076 q -0.0669,0.007 -0.14267,0.0339 -0.075,0.0254 -0.13767,0.11096 -0.0765,0.1045 0.009,0.16721 l 0.15563,0.11401 0.23211,-0.31681 0.13006,0.0953 -0.23537,0.32126 0.16452,0.12053 q 0.0489,0.0358 0.10876,0.0148 0.0607,-0.0222 0.1022,-0.0789 0.0358,-0.0489 0.03,-0.12492 -0.005,-0.0722 -0.0181,-0.13624 l 0.13111,-0.0321 q 0.0498,0.11851 0.0443,0.21697 -0.007,0.0977 -0.0775,0.19436 -0.12053,0.16452 -0.33789,0.1744 -0.22009,0.0113 -0.40129,-0.12146 -0.17564,-0.12868 -0.23492,-0.32757 -0.0507,-0.16866 0.0756,-0.34097 0.0481,-0.0656 0.0837,-0.10264 0.0354,-0.039 0.0897,-0.0641 0.11881,-0.0479 0.21616,-0.0432 z m 0.31308,-0.75442 q 0.15352,-0.16397 0.3755,-0.17322 0.22098,-0.0102 0.38193,0.1405 0.15994,0.14975 0.17592,0.36859 0.016,0.21883 -0.13001,0.37476 -0.14599,0.15592 -0.36239,0.15719 -0.21438,0.003 -0.37432,-0.1466 -0.15894,-0.14881 -0.18245,-0.3596 -0.0245,-0.21174 0.11582,-0.36162 z m 0.13392,0.33682 0.27764,0.25995 q 0.0694,0.065 0.15576,0.0816 0.0873,0.0156 0.14473,-0.0457 0.0556,-0.0594 0.0411,-0.14272 -0.0144,-0.0834 -0.0808,-0.14553 l -0.29072,-0.2722 q -0.0584,-0.0546 -0.13927,-0.0549 -0.0818,0.003 -0.13455,0.059 -0.0509,0.0543 -0.0425,0.13009 0.009,0.0748 0.0686,0.13033 z m 1.16054,-1.04457 0.0946,-0.230322 q -0.11485,-0.06777 -0.24833,-0.05665 -0.13154,0.01124 -0.27316,0.136088 -0.15093,0.13304 -0.15571,0.34851 -0.006,0.21833 0.13621,0.37959 0.14398,0.16333 0.36079,0.17796 0.21656,0.0185 0.37782,-0.12363 0.10854,-0.0957 0.13073,-0.23097 0.0241,-0.13517 -0.035,-0.28144 l -0.24287,0.0892 q 0.0546,0.0786 0.0906,0.17364 0.036,0.095 -0.056,0.17612 -0.0899,0.0793 -0.18011,0.0228 -0.0891,-0.0574 -0.20669,-0.19071 -0.1221,-0.13853 -0.17086,-0.24802 -0.0497,-0.11052 0.0392,-0.18889 0.0775,-0.0684 0.16815,-0.0343 0.0906,0.034 0.17063,0.081 z m 1.80925,-1.343033 0.22029,-0.10788 0.40278,0.1081 -0.0673,-0.137374 0.11522,-0.369443 -0.36197,-0.125019 -0.0673,-0.137374 -0.16149,0.375223 -0.22029,0.10788 -0.10728,-0.219056 0.10373,-0.396039 -0.13737,0.06727 -0.36321,-0.124413 -0.13426,0.361889 -0.13861,0.06788 0.38507,0.162804 0.10728,0.219056 -0.22153,0.108486 -0.3942,-0.103098 0.0673,0.137374 -0.12565,0.36381 0.36497,0.134288 0.0673,0.137374 0.16033,-0.383861 0.22153,-0.108486 0.11273,0.230195 -0.1081,0.402782 0.13861,-0.06788 0.3676,0.114589 0.12562,-0.360729 0.13738,-0.06727 -0.37646,-0.160884 z m 2.09122,-0.126078 q 0.0181,2.81e-4 0.0304,-0.0014 0.0887,-0.01225 0.17303,-0.07675 0.0859,-0.06332 0.10886,-0.188915 0.0203,-0.125215 0.0215,-0.207452 -0.002,-0.08186 -0.0121,-0.158305 -0.008,-0.06143 -0.0238,-0.162257 -0.0182,-0.101817 -0.0199,-0.114103 -0.042,-0.304416 -0.11009,-0.414653 -0.0669,-0.111792 -0.12669,-0.121624 -0.06,-0.0112 -0.0791,-0.0086 -0.0341,0.0047 -0.0525,0.01281 -0.0207,0.01121 -0.027,0.01624 0.0513,0.03883 0.10442,0.09131 0.0535,0.05521 0.0624,0.11937 0.013,0.09419 -0.0551,0.164808 -0.0711,0.06963 -0.17482,0.08395 -0.0928,0.01281 -0.17663,-0.07021 -0.0848,-0.08011 -0.0995,-0.186587 -0.0279,-0.202034 0.14264,-0.327124 0.17209,-0.123913 0.43282,-0.159903 0.24162,-0.03335 0.48434,0.07225 0.24329,0.109702 0.37596,0.284752 0.13031,0.178158 0.19844,0.318993 0.0693,0.139281 0.13936,0.284023 0.0712,0.143189 0.14982,0.258933 0.076,0.117486 0.14825,0.177073 0.0712,0.06251 0.17201,0.09728 0.0485,0.0086 0.0798,0.01402 0.0325,0.0039 0.0361,0.02979 0.008,0.06143 -0.0613,0.100272 -0.0686,0.03729 -0.16278,0.05029 -0.14743,0.02035 -0.30372,-0.0638 -0.15492,-0.08434 -0.17192,-0.11677 -0.0422,0.09763 -0.15584,0.191225 -0.11249,0.09204 -0.23398,0.108809 -0.0915,0.01262 -0.20567,-0.02865 -0.11284,-0.04146 -0.1722,-0.09865 -0.0246,0.05348 -0.1478,0.138644 -0.12162,0.08634 -0.20489,0.09784 -0.0191,0.0026 -0.10545,0.002 -0.0873,0.0023 -0.21565,-0.100996 -0.12715,-0.104866 -0.1475,-0.252296 -0.0145,-0.105112 0.0504,-0.189191 0.0633,-0.08525 0.16847,-0.09976 0.0983,-0.01357 0.18471,0.04823 0.0876,0.06024 0.10099,0.157166 0.003,0.01911 -0.001,0.06002 -0.004,0.04091 -0.0465,0.09683 -0.0424,0.05593 -0.0709,0.07099 z m 0.46141,-0.970689 q 0.0153,0.110573 0.0284,0.296557 0.0149,0.188525 0.0217,0.237668 0.0194,0.140605 0.0846,0.249854 0.0663,0.107696 0.17827,0.09225 0.11194,-0.01545 0.18075,-0.10146 0.07,-0.08756 0.0543,-0.200866 -0.0268,-0.193843 -0.092,-0.374031 -0.0639,-0.180377 -0.17585,-0.356889 -0.11436,-0.173405 -0.21962,-0.250688 -0.10409,-0.07884 -0.17494,-0.09827 -0.071,-0.0208 -0.0901,-0.01816 0.057,0.100636 0.11973,0.232481 0.0625,0.130479 0.0848,0.29156 z m 1.8617,-0.02504 -0.25999,-0.01534 0.008,-0.132062 1.21744,0.07184 -0.008,0.130686 -0.1073,-0.0063 -0.19912,0.286423 -0.20706,-0.09367 0.0891,-0.130023 q 0.0136,-0.0199 0.02,-0.03471 0.002,-0.0068 0.002,-0.0123 4.9e-4,-0.0083 -0.002,-0.01392 -0.006,-0.01004 -0.0157,-0.01473 -0.009,-0.0047 -0.041,-0.0066 l -0.28751,-0.01697 q -0.0591,-0.0035 -0.0984,0.03008 -0.0421,0.03479 -0.0458,0.09807 -0.004,0.06603 0.0637,0.136283 0.0691,0.06896 0.20178,0.159614 0.13415,0.08936 0.17614,0.149818 0.0433,0.06191 0.0386,0.1417 -0.008,0.134813 -0.12813,0.206406 -0.12172,0.07426 -0.2758,0.06517 -0.10179,-0.006 -0.19209,-0.04309 -0.0888,-0.03837 -0.0859,-0.0879 0.002,-0.02751 0.02,-0.03471 0.0197,-0.0071 0.10002,-0.01066 0.0787,-8.75e-4 0.11532,-0.03599 0.0353,-0.03657 0.0377,-0.07784 0.003,-0.05915 -0.0571,-0.108284 -0.057,-0.04063 -0.11246,-0.08256 -0.0681,-0.062 -0.0981,-0.116221 -0.0327,-0.05438 -0.0283,-0.12867 0.006,-0.09354 0.0564,-0.159566 0.0521,-0.06457 0.10335,-0.113999 z m 1.10948,0.822495 0.10616,-0.665447 q 0.0109,-0.06804 0.0663,-0.109433 0.0525,-0.04047 0.12327,-0.02918 0.0735,0.01172 0.13356,0.08131 0.0569,0.07187 0.0441,0.152163 -0.004,0.02722 -0.0171,0.04611 -0.0112,0.01775 -0.0341,0.02108 -0.006,0.0019 -0.0127,7.68e-4 -0.01,-0.0015 -0.0184,-0.0071 -0.0168,-0.0083 -0.028,-0.01702 l -0.11137,0.698106 q -0.009,0.05443 -0.0565,0.08309 -0.0521,0.02936 -0.11201,0.01981 -0.0803,-0.01281 -0.1329,-0.08539 -0.0558,-0.0703 -0.0451,-0.136978 0.006,-0.03538 0.0164,-0.05041 0.0103,-0.0123 0.0262,-0.01536 0.0129,-0.0021 0.0224,-6.09e-4 0.004,6.51e-4 0.008,0.0013 0.013,0.0063 0.0216,0.01322 z m 1.15439,-0.601517 q 0.21767,0.05542 0.33283,0.24542 0.1155,0.188668 0.0611,0.402338 -0.0541,0.212335 -0.23807,0.331863 -0.184,0.119527 -0.39099,0.06683 -0.207,-0.0527 -0.31247,-0.241656 -0.10614,-0.186287 -0.0521,-0.398622 0.0537,-0.210999 0.22704,-0.333247 0.17367,-0.123583 0.37265,-0.07292 z m -0.23049,0.279756 -0.0938,0.368581 q -0.0235,0.09215 0.004,0.175818 0.0284,0.08401 0.10984,0.104752 0.0788,0.02006 0.14486,-0.0328 0.0661,-0.05286 0.0885,-0.140996 l 0.0983,-0.385942 q 0.0197,-0.07746 -0.0191,-0.148479 -0.0418,-0.07037 -0.11659,-0.08941 -0.0721,-0.01836 -0.13447,0.02549 -0.061,0.04419 -0.0811,0.12298 z m 1.48418,0.534787 0.24799,-0.02213 q 0.007,-0.133152 -0.0641,-0.246517 -0.0706,-0.111582 -0.2466,-0.179799 -0.1876,-0.0727 -0.38106,0.02229 -0.19653,0.09528 -0.27421,0.295724 -0.0787,0.203019 0.008,0.402202 0.0833,0.200757 0.28374,0.278435 0.13492,0.05228 0.26523,0.0097 0.1311,-0.04083 0.2337,-0.160678 l -0.191,-0.174514 q -0.0446,0.08468 -0.1124,0.160391 -0.0678,0.07571 -0.18213,0.0314 -0.11179,-0.04332 -0.10321,-0.14936 0.01,-0.105542 0.0741,-0.271298 0.0667,-0.172181 0.14146,-0.265883 0.0752,-0.09499 0.18574,-0.05217 0.0964,0.03735 0.1079,0.133443 0.0115,0.0961 0.007,0.18879 z m 2.07858,-0.29196 -0.50034,-0.299078 -0.082,0.137208 0.13839,0.08272 -0.80603,1.348424 -0.16441,-0.09828 -0.0764,0.127745 0.64937,0.388169 0.0735,-0.12302 -0.12301,-0.07353 z m 0.20768,1.594642 0.24551,0.0414 q 0.0408,-0.12697 4.5e-4,-0.254714 -0.04,-0.125815 -0.19301,-0.236398 -0.16307,-0.117847 -0.37428,-0.07496 -0.21426,0.04239 -0.34018,0.216622 -0.12753,0.176469 -0.094,0.391154 0.0297,0.21531 0.20396,0.34123 0.11728,0.0847 0.25413,0.0765 0.13716,-0.006 0.26678,-0.0962 l -0.14057,-0.2172 q -0.0646,0.0706 -0.14936,0.12668 -0.0847,0.0561 -0.18414,-0.0158 -0.0972,-0.0702 -0.062,-0.17064 0.0363,-0.0996 0.1404,-0.243677 0.10816,-0.149664 0.20419,-0.22138 0.0968,-0.07283 0.1929,-0.0034 0.0838,0.06054 0.0706,0.156422 -0.0132,0.09588 -0.0414,0.184321 z m 0.80336,1.03551 -0.1133,0.3273 q -0.013,0.0379 -0.0182,0.0641 -0.004,0.0272 5.4e-4,0.0439 0.007,0.0166 0.0153,0.0255 0.007,0.007 0.0193,0.0197 0.005,-0.0224 0.0161,-0.0486 0.008,-0.0252 0.0267,-0.0436 0.0453,-0.0444 0.11239,-0.033 0.0681,0.0124 0.1173,0.0625 0.0627,0.0639 0.0599,0.14968 -0.003,0.0857 -0.0707,0.1523 -0.0689,0.0675 -0.16145,0.0676 -0.0926,0.002 -0.13609,-0.0345 -0.0425,-0.0355 -0.0589,-0.0522 -0.1264,-0.12888 -0.074,-0.30767 l 0.11772,-0.38182 -0.401,0.0516 q -0.18146,0.0216 -0.30787,-0.10726 -0.0511,-0.0521 -0.0678,-0.1439 -0.0176,-0.0908 0.0168,-0.12457 0.008,-0.008 0.0216,-0.0115 0.0137,-0.004 0.0301,0.013 0.004,0.004 0.0375,0.0501 0.0259,0.0383 0.0385,0.051 0.002,0.002 0.004,0.004 0.03,0.0227 0.067,0.0289 0.0379,0.007 0.13359,-0.009 l 0.49283,-0.0741 0.11136,-0.32926 q 0.013,-0.0379 0.0172,-0.0632 0.004,-0.0272 -0.002,-0.0448 -0.005,-0.0166 -0.0115,-0.0235 -0.009,-0.009 -0.0212,-0.0217 -0.006,0.0233 -0.0141,0.0486 -0.011,0.0262 -0.0287,0.0436 -0.0453,0.0444 -0.11238,0.033 -0.0671,-0.0114 -0.11731,-0.0625 -0.0627,-0.0639 -0.0609,-0.14871 0.003,-0.0857 0.0707,-0.1523 0.0699,-0.0685 0.16341,-0.0696 0.0906,-9e-5 0.13415,0.0344 0.0435,0.0365 0.0599,0.0532 0.1264,0.12888 0.074,0.30768 l -0.11773,0.38182 0.40002,-0.0507 q 0.18147,-0.0216 0.30787,0.10726 0.0511,0.0521 0.0688,0.14294 0.0176,0.0908 -0.0168,0.12457 -0.009,0.009 -0.0206,0.0125 -0.0146,0.003 -0.0311,-0.0139 -0.004,-0.004 -0.0356,-0.05 -0.026,-0.0363 -0.0404,-0.0511 -0.002,-0.002 -0.004,-0.004 -0.031,-0.0217 -0.0689,-0.0289 -0.036,-0.007 -0.13165,0.009 z m 1.30679,0.87201 q 0.11554,0.0184 0.24382,0.0582 0.12942,0.039 0.205,0.15089 0.0154,0.0228 0.0367,0.0667 0.0186,0.0423 -0.0101,0.0983 -0.0279,0.0571 -0.10019,0.11756 -0.008,0.005 -0.016,0.0108 -0.0708,0.0478 -0.17511,0.0534 -0.12036,0.006 -0.15661,-0.0472 -0.01,-0.0148 -0.006,-0.0389 6.2e-4,-0.0237 0.0269,-0.0414 0.0126,-0.008 0.0404,-0.0239 0.0297,-0.0151 0.0423,-0.0236 0.0366,-0.0247 0.0309,-0.0674 -0.008,-0.0462 -0.0372,-0.0896 -0.027,-0.04 -0.0902,-0.0572 -0.062,-0.018 -0.0849,-0.0125 -0.003,0.0172 -0.10116,0.14814 -0.0978,0.13092 -0.18347,0.18877 -0.1142,0.0771 -0.24178,0.0901 -0.1268,0.0141 -0.18619,-0.0738 -0.0525,-0.0777 0.006,-0.19726 0.0585,-0.11769 0.16931,-0.1925 0.0891,-0.0602 0.23335,-0.0928 0.14428,-0.0326 0.21507,-0.0189 0.0212,-0.0326 0.0283,-0.0541 0.009,-0.0211 0.0167,-0.0762 0.01,-0.0547 -0.006,-0.11922 -0.0187,0.0708 -0.0861,0.11633 -0.0719,0.0486 -0.15427,0.0227 -0.0846,-0.0243 -0.13938,-0.10542 -0.0517,-0.0765 -0.0312,-0.1718 0.0224,-0.0949 0.10116,-0.14814 0.0982,-0.0663 0.21606,-0.0445 0.11976,0.0222 0.18532,0.11928 0.0694,0.10278 0.0524,0.26227 -0.0151,0.15985 -0.0443,0.19289 z m 0.0572,1.53933 q 0.0638,0.12985 0.23686,0.15382 0.17362,0.0252 0.33562,-0.0544 0.16819,-0.0827 0.25183,-0.24051 0.0837,-0.16091 0.009,-0.31178 -0.0371,-0.0754 -0.10402,-0.11163 -0.0663,-0.035 -0.16118,-0.0436 0.0288,-0.0602 0.026,-0.1126 -0.002,-0.0542 -0.008,-0.0974 -0.005,-0.0419 -0.0168,-0.0654 -0.0201,-0.0408 -0.0577,-0.03 -0.004,0.002 -0.007,0.004 -0.0272,0.0134 -0.0368,0.0595 -0.0127,0.0523 -0.0338,0.0811 -0.0224,0.0264 -0.0515,0.0483 -0.0285,0.0232 -0.073,0.0451 l -0.92379,0.45417 q 0.004,-0.0172 0.002,-0.0363 -5.5e-4,-0.0105 -0.005,-0.0191 -0.004,-0.007 -0.009,-0.0142 -0.0159,-0.0198 -0.0424,-0.0237 -0.0259,-0.003 -0.0506,0.01 -0.0631,0.031 -0.0821,0.10484 -0.019,0.0738 0.0151,0.14308 0.0353,0.0717 0.11341,0.0901 0.0781,0.0184 0.15234,-0.0181 l 0.50332,-0.24745 q -0.008,0.0271 -0.009,0.10285 -5.1e-4,0.077 0.0256,0.13021 z m 0.19583,-0.34504 0.26712,-0.13132 q 0.0594,-0.0292 0.12153,-0.0183 0.0634,0.0103 0.0902,0.0647 0.0304,0.0618 0.0121,0.12765 -0.0214,0.0658 -0.0832,0.0962 l -0.26341,0.1295 q -0.0606,0.0298 -0.12518,0.0109 -0.0646,-0.0189 -0.0944,-0.0795 -0.0316,-0.0643 -0.01,-0.11654 0.0232,-0.0528 0.085,-0.0832 z m 1.01705,0.90409 q 0.0749,0.21174 -0.019,0.41309 -0.0926,0.20089 -0.30047,0.27446 -0.20656,0.0731 -0.4082,-0.0134 -0.20165,-0.0865 -0.27292,-0.28785 -0.0713,-0.20136 0.0272,-0.39408 0.0958,-0.19179 0.30239,-0.2649 0.20525,-0.0727 0.40322,0.003 0.19927,0.0757 0.26778,0.26922 z m -0.36068,-0.0361 -0.35854,0.1269 q -0.0896,0.0317 -0.14415,0.10073 -0.0541,0.0703 -0.026,0.14954 0.0271,0.0766 0.10779,0.10218 0.0807,0.0255 0.16641,-0.005 l 0.37543,-0.13288 q 0.0753,-0.0267 0.11281,-0.0984 0.0353,-0.0739 0.01,-0.14662 -0.0248,-0.0701 -0.0959,-0.0976 -0.0707,-0.0262 -0.1473,9.7e-4 z m 0.38306,1.52589 0.15754,0.1928 q 0.11426,-0.0687 0.16802,-0.19143 0.0527,-0.12103 0.0104,-0.305 -0.0452,-0.19606 -0.23238,-0.30284 -0.18917,-0.10915 -0.39866,-0.0609 -0.21218,0.0489 -0.32825,0.23257 -0.11937,0.18164 -0.0711,0.39112 0.0325,0.14101 0.14089,0.22492 0.10739,0.0856 0.26417,0.1032 l 0.0372,-0.25604 q -0.0951,0.0106 -0.19583,-0.003 -0.1007,-0.0136 -0.12823,-0.13309 -0.0269,-0.11683 0.0657,-0.16927 0.0929,-0.0511 0.26611,-0.091 0.17994,-0.0414 0.29944,-0.0322 0.12085,0.009 0.14745,0.12442 0.0232,0.10072 -0.0499,0.16421 -0.0731,0.0635 -0.1525,0.11149 z m 0.37304,2.19438 -4e-5,0.24529 -0.27427,0.31416 0.15296,2e-5 0.28109,0.266 0.27151,-0.27006 0.15296,2e-5 -0.26592,-0.31009 3e-5,-0.24529 0.24391,3e-5 0.31003,0.26738 2e-5,-0.15296 0.27151,-0.27144 -0.26593,-0.27978 2e-5,-0.15434 -0.3156,0.27419 -0.24392,-3e-5 4e-5,-0.24667 0.266,-0.30865 -0.15296,-2e-5 -0.27144,-0.27288 -0.28115,0.26868 -0.15297,-3e-5 0.27419,0.31286 -3e-5,0.24666 -0.25632,-3e-5 -0.31415,-0.27427 -2e-5,0.15434 -0.26462,0.2797 0.26868,0.27151 -2e-5,0.15297 0.31009,-0.2673 z m -0.78507,1.93613 q -0.008,0.0162 -0.012,0.028 -0.0278,0.0851 -0.007,0.18917 0.0194,0.1049 0.12231,0.1805 0.10375,0.073 0.1772,0.10998 0.0743,0.0344 0.14767,0.0583 0.059,0.0192 0.15632,0.0495 0.0995,0.0281 0.11133,0.032 0.29215,0.0953 0.42106,0.0823 0.12979,-0.0113 0.16477,-0.0608 0.0363,-0.049 0.0423,-0.0674 0.0107,-0.0328 0.0114,-0.0528 -0.001,-0.0235 -0.003,-0.0314 -0.0573,0.0291 -0.12777,0.054 -0.0731,0.024 -0.13464,0.004 -0.0904,-0.0295 -0.1241,-0.12166 -0.0315,-0.0944 9.3e-4,-0.19393 0.0291,-0.0891 0.14037,-0.12815 0.10912,-0.0412 0.2113,-0.008 0.1939,0.0633 0.23184,0.27131 0.0362,0.20894 -0.0454,0.45917 -0.0756,0.23188 -0.27674,0.404 -0.20503,0.17084 -0.42047,0.21362 -0.2172,0.0393 -0.37365,0.039 -0.15557,0.001 -0.31637,0.001 -0.15992,0.001 -0.29837,0.0215 -0.13891,0.017 -0.22407,0.0559 -0.0874,0.0367 -0.1627,0.11217 -0.0289,0.0398 -0.0475,0.0657 -0.0177,0.0276 -0.0426,0.0195 -0.059,-0.0192 -0.0634,-0.099 -0.004,-0.078 0.0259,-0.16838 0.0462,-0.14149 0.19017,-0.24526 0.14359,-0.10246 0.18019,-0.10357 -0.0694,-0.0806 -0.10385,-0.22376 -0.0336,-0.14141 0.004,-0.25801 0.0286,-0.0878 0.11568,-0.17244 0.0866,-0.0834 0.16401,-0.11174 -0.0373,-0.0455 -0.0601,-0.19354 -0.0245,-0.14714 0.002,-0.22705 0.006,-0.0183 0.0443,-0.0957 0.0361,-0.0795 0.18512,-0.1498 0.1499,-0.0685 0.29139,-0.0224 0.10088,0.0329 0.14812,0.12804 0.049,0.0943 0.0161,0.19513 -0.0308,0.0943 -0.12414,0.14504 -0.0925,0.0524 -0.1855,0.0221 -0.0183,-0.006 -0.0533,-0.0275 -0.035,-0.0216 -0.0668,-0.0841 -0.0318,-0.0626 -0.0329,-0.0948 z m 0.67127,0.83936 q -0.10612,-0.0346 -0.27913,-0.1041 -0.17607,-0.069 -0.22323,-0.0844 -0.13494,-0.044 -0.26168,-0.0332 -0.12586,0.0126 -0.16091,0.12001 -0.035,0.10742 0.0122,0.20691 0.0482,0.10123 0.15688,0.1367 0.18604,0.0607 0.3766,0.0808 0.19014,0.0214 0.39786,-0.002 0.20595,-0.027 0.32148,-0.0879 0.11641,-0.0591 0.16486,-0.11436 0.0498,-0.0548 0.0557,-0.0731 -0.11544,0.007 -0.26143,0.006 -0.14469,-8.1e-4 -0.29928,-0.0512 z m -0.80394,1.67578 0.12674,-0.22753 0.11558,0.0644 -0.59349,1.06541 -0.11437,-0.0637 0.0523,-0.0939 -0.17152,-0.30376 0.17431,-0.14583 0.0784,0.13675 q 0.012,0.0209 0.0226,0.0331 0.005,0.005 0.0102,0.007 0.007,0.004 0.0134,0.004 0.0118,-0.001 0.0201,-0.008 0.008,-0.006 0.0237,-0.0341 l 0.14016,-0.25161 q 0.0288,-0.0518 0.0156,-0.1017 -0.0131,-0.053 -0.0684,-0.0839 -0.0578,-0.0322 -0.15045,-0.002 -0.0921,0.0323 -0.23141,0.11244 -0.13876,0.082 -0.21145,0.0936 -0.0746,0.0121 -0.14439,-0.0268 -0.11798,-0.0657 -0.13027,-0.20507 -0.014,-0.14189 0.0611,-0.27672 0.0496,-0.0891 0.12225,-0.15432 0.0731,-0.0634 0.11649,-0.0392 0.0241,0.0134 0.0226,0.0331 -0.002,0.0209 -0.0338,0.0947 -0.0334,0.0713 -0.0177,0.11951 0.0176,0.0477 0.0537,0.0678 0.0518,0.0288 0.12234,-0.004 0.0613,-0.0337 0.12322,-0.0654 0.0854,-0.0344 0.14727,-0.0379 0.0632,-0.006 0.12819,0.0304 0.0819,0.0456 0.11926,0.12006 0.0355,0.075 0.0578,0.14262 z m -1.21336,0.64757 0.55323,0.38475 q 0.0566,0.0393 0.0697,0.10726 0.0136,0.0649 -0.0273,0.1237 -0.0425,0.0611 -0.13126,0.085 -0.0895,0.02 -0.15622,-0.0264 -0.0226,-0.0157 -0.0341,-0.0355 -0.0111,-0.0178 -0.004,-0.0398 8.8e-4,-0.006 0.005,-0.0117 0.006,-0.008 0.0144,-0.0135 0.0147,-0.0116 0.0275,-0.0178 l -0.58037,-0.40364 q -0.0453,-0.0315 -0.0503,-0.087 -0.004,-0.0597 0.0308,-0.10948 0.0464,-0.0667 0.13465,-0.0826 0.0875,-0.0197 0.14298,0.0189 0.0294,0.0205 0.0383,0.0367 0.007,0.0147 0.002,0.0302 -0.004,0.0126 -0.009,0.0205 -0.002,0.003 -0.005,0.007 -0.0113,0.009 -0.0213,0.0137 z m 0.0236,1.31145 q -0.14747,0.16943 -0.36897,0.18673 -0.22046,0.0182 -0.38677,-0.12655 -0.16527,-0.14386 -0.18918,-0.36197 -0.0239,-0.21811 0.11633,-0.37923 0.14024,-0.16111 0.35644,-0.17023 0.21413,-0.0109 0.3794,0.13292 0.16424,0.14295 0.19538,0.35275 0.0322,0.2107 -0.10263,0.36558 z m -0.14605,-0.33175 -0.28689,-0.2497 q -0.0717,-0.0624 -0.15861,-0.0759 -0.0878,-0.0125 -0.14299,0.0509 -0.0534,0.0613 -0.0359,0.14411 0.0175,0.0828 0.0861,0.14251 l 0.3004,0.26147 q 0.0603,0.0525 0.14117,0.0498 0.0817,-0.006 0.13232,-0.0639 0.0489,-0.0561 0.0378,-0.13155 -0.012,-0.0744 -0.0733,-0.12776 z m -1.16019,1.0826 -0.0951,0.23012 q 0.1147,0.068 0.24821,0.0572 0.13156,-0.011 0.27345,-0.1355 0.1512,-0.13272 0.15644,-0.34818 0.006,-0.21832 -0.13541,-0.37988 -0.14363,-0.16364 -0.3604,-0.17873 -0.21652,-0.019 -0.37808,0.12283 -0.10875,0.0954 -0.13122,0.2307 -0.0244,0.13511 0.0344,0.28151 l 0.24305,-0.0887 q -0.0544,-0.0787 -0.0902,-0.17383 -0.0358,-0.0951 0.0564,-0.176 0.0901,-0.0791 0.18015,-0.0224 0.089,0.0575 0.20629,0.19115 0.12181,0.13878 0.17034,0.24838 0.0494,0.11063 -0.0396,0.18881 -0.0777,0.0682 -0.16821,0.034 -0.0905,-0.0342 -0.17047,-0.0814 z m -1.36532,0.46021 q -0.0173,0.005 -0.0284,0.0109 -0.0804,0.0395 -0.14016,0.12722 -0.0616,0.0871 -0.044,0.21355 0.0201,0.12524 0.0448,0.20368 0.0272,0.0772 0.0612,0.14649 0.0273,0.0556 0.0736,0.14656 0.0493,0.0909 0.0548,0.10207 0.13553,0.2758 0.2348,0.35907 0.0986,0.0851 0.15848,0.0757 0.0605,-0.008 0.0778,-0.0167 0.0309,-0.0152 0.0458,-0.0286 0.0161,-0.0171 0.0205,-0.0239 -0.0609,-0.0208 -0.12782,-0.0539 -0.0682,-0.0356 -0.0967,-0.0937 -0.0419,-0.0853 5.8e-4,-0.1738 0.0456,-0.0884 0.1396,-0.13461 0.0841,-0.0413 0.18974,0.0112 0.10566,0.0494 0.15306,0.14588 0.0899,0.18305 -0.0327,0.35538 -0.12445,0.1717 -0.36067,0.28778 -0.21891,0.10757 -0.48252,0.0836 -0.26543,-0.0277 -0.44637,-0.15223 -0.17969,-0.12819 -0.28862,-0.24049 -0.10955,-0.11046 -0.22153,-0.22587 -0.11262,-0.11355 -0.22358,-0.19875 -0.10909,-0.0876 -0.19637,-0.12154 -0.0873,-0.037 -0.19387,-0.0383 -0.0487,0.007 -0.0802,0.0118 -0.0321,0.007 -0.0436,-0.0169 -0.0273,-0.0557 0.0267,-0.11445 0.0534,-0.057 0.13873,-0.0989 0.13357,-0.0656 0.30839,-0.0349 0.17358,0.0314 0.1999,0.0569 0.009,-0.10594 0.0879,-0.2305 0.0779,-0.12272 0.18796,-0.17681 0.0829,-0.0407 0.20425,-0.0374 0.12015,0.004 0.19448,0.0396 0.007,-0.0585 0.0968,-0.17806 0.0883,-0.12018 0.16379,-0.15725 0.0173,-0.009 0.0995,-0.0351 0.0822,-0.0296 0.23646,0.0281 0.15366,0.0596 0.2193,0.19319 0.0468,0.0952 0.0116,0.19544 -0.0334,0.10084 -0.12859,0.14764 -0.0891,0.0438 -0.19052,0.0122 -0.1021,-0.0297 -0.14525,-0.11748 -0.009,-0.0173 -0.0175,-0.0574 -0.009,-0.0401 0.0137,-0.10652 0.0226,-0.0664 0.045,-0.0897 z m -0.13309,1.0665 q -0.0492,-0.10018 -0.12014,-0.27262 -0.0734,-0.1743 -0.0953,-0.21882 -0.0626,-0.12739 -0.15878,-0.21064 -0.0968,-0.0814 -0.19823,-0.0316 -0.10141,0.0498 -0.13972,0.15311 -0.0389,0.10512 0.0115,0.20777 0.0863,0.17562 0.20482,0.3262 0.11728,0.15119 0.27907,0.28357 0.16304,0.1287 0.28725,0.169 0.12359,0.0421 0.19695,0.0383 0.074,-0.003 0.0913,-0.0111 -0.0858,-0.0776 -0.18671,-0.18309 -0.10035,-0.10423 -0.17206,-0.25017 z m -2.31952,0.3801 0.043,0.15825 q 0.0199,0.0731 0.0818,0.11199 0.0626,0.0358 0.13439,0.0163 0.0638,-0.0173 0.0953,-0.0802 0.0304,-0.0668 0.0116,-0.13596 l -0.043,-0.15825 z m 0.28737,-0.21947 -0.0376,-0.1383 q -0.0228,-0.0838 -0.0833,-0.13302 -0.0612,-0.0519 -0.1357,-0.0317 -0.0718,0.0195 -0.10076,0.0916 -0.0283,0.0691 -0.007,0.14624 l 0.0416,0.15293 z m -0.60905,0.16552 q -0.0437,-0.16091 0.0517,-0.35106 0.0958,-0.18882 0.27663,-0.23797 0.17287,-0.047 0.34475,0.0705 0.17055,0.11788 0.21392,0.27745 l 0.11835,-0.0322 0.0358,0.13165 -0.12101,0.0329 q 0.0499,0.18351 -0.0413,0.35251 -0.0906,0.16599 -0.27407,0.21586 -0.18351,0.0499 -0.35094,-0.046 -0.16876,-0.0955 -0.21935,-0.28168 l -0.11703,0.0318 -0.0358,-0.13165 z m -0.58739,0.39379 0.14976,0.18284 0.12292,-0.0166 0.0164,0.12155 -0.62686,0.0844 -0.0164,-0.12155 0.15978,-0.0215 -0.38919,-0.55663 q -0.062,-0.089 -0.10122,-0.11151 -0.0382,-0.0255 -0.0833,-0.0194 -0.0178,0.002 -0.0462,0.0285 -0.0261,0.023 -0.0439,0.0254 -0.0273,0.004 -0.0426,-0.0165 -0.0166,-0.02 -0.0205,-0.0487 -0.01,-0.071 0.0564,-0.12856 0.0648,-0.056 0.14534,-0.0668 0.12018,-0.0162 0.1881,0.0442 0.0708,0.0614 0.11727,0.12743 l 0.17754,-0.16851 q 0.0493,-0.047 0.0918,-0.0722 0.0427,-0.0238 0.0987,-0.0314 0.0205,-0.003 0.0885,-0.004 0.0677,-0.004 0.1569,0.0707 0.0881,0.0757 0.10479,0.20002 0.0199,0.1475 -0.10281,0.27942 z m 0.0336,-0.51483 q -0.004,-0.0314 -0.0482,-0.0589 -0.0438,-0.0261 -0.0875,-0.0202 -0.0287,0.004 -0.0521,0.0265 -0.0205,0.0236 -0.0318,0.0321 l -0.14087,0.14133 0.1502,0.17583 0.1486,-0.15627 q 0.033,-0.0336 0.0489,-0.0705 0.0174,-0.0357 0.0128,-0.0699 z m -1.43532,0.68941 q -0.001,0.0138 -0.01,0.0386 -0.005,0.0248 -0.0275,0.0249 -0.0413,1.4e-4 -0.0898,-0.0741 -0.0485,-0.0743 -0.0819,-0.183 -0.0335,-0.11151 -0.11363,-0.18703 -0.0373,-0.0274 -0.0774,-0.0535 l -0.001,-0.33486 -0.25631,8.7e-4 0.003,0.85852 q -0.022,-0.003 -0.0331,-0.003 -0.022,8e-5 -0.0344,0.004 -0.0138,0.006 -0.0178,0.0249 -0.004,0.0207 -0.004,0.0317 2.5e-4,0.073 0.0569,0.12521 0.0553,0.0508 0.13797,0.0505 0.0758,-2.5e-4 0.10729,-0.0596 0.0343,-0.0594 0.034,-0.14481 l -2.3e-4,-0.0689 q -1.2e-4,-0.0345 0.026,-0.058 0.0247,-0.0235 0.0592,-0.0236 0.0524,-1.7e-4 0.087,0.0645 0.0278,0.0619 0.0556,0.12521 0.0416,0.0715 0.11203,0.12089 0.0718,0.0466 0.13796,0.0464 0.0386,-1.3e-4 0.11149,-0.0376 0.0757,-0.0402 0.0753,-0.1546 l -0.002,-0.7083 q 0.0138,0.01 0.0318,0.0178 0.01,0.004 0.0193,0.004 0.008,-3e-5 0.0165,-0.003 0.0248,-0.006 0.0399,-0.0277 0.0137,-0.0221 0.0136,-0.0496 -2.4e-4,-0.0689 -0.0583,-0.11832 -0.058,-0.0494 -0.13521,-0.0492 -0.0799,2.8e-4 -0.13209,0.0597 -0.0522,0.0608 -0.0519,0.14625 z m -1.29056,-0.0799 0.0965,0.21574 0.12295,0.0163 -0.0161,0.12158 -0.62704,-0.0831 0.0161,-0.12158 0.15984,0.0212 -0.22943,-0.63926 q -0.0365,-0.10215 -0.0684,-0.13418 -0.0302,-0.0346 -0.0753,-0.0405 -0.0178,-0.002 -0.0521,0.0153 -0.0312,0.0153 -0.049,0.013 -0.0273,-0.004 -0.0367,-0.0271 -0.0108,-0.0237 -0.007,-0.0524 0.009,-0.071 0.0882,-0.10925 0.0772,-0.037 0.15779,-0.0263 0.12022,0.0159 0.16991,0.092 0.0522,0.0778 0.0797,0.15375 l 0.21554,-0.116 q 0.0599,-0.0324 0.10751,-0.0455 0.0474,-0.0118 0.10345,-0.004 0.0205,0.003 0.0863,0.0198 0.0662,0.0143 0.13286,0.10935 0.0651,0.0962 0.0486,0.22052 -0.0195,0.14753 -0.17255,0.24263 z m 0.16754,-0.48796 q 0.004,-0.0314 -0.0311,-0.0695 -0.0354,-0.0367 -0.0792,-0.0425 -0.0287,-0.004 -0.0572,0.0119 -0.0259,0.0174 -0.0391,0.0226 l -0.17304,0.0994 0.0988,0.20909 0.1844,-0.11178 q 0.0407,-0.0238 0.0657,-0.0552 0.0262,-0.0299 0.0307,-0.064 z m -1.74604,0.25786 q -0.0178,-0.0501 -0.009,-0.0778 0.005,-0.0158 0.0202,-0.0284 0.0137,-0.0117 0.0361,-0.005 0.0145,0.004 0.0288,0.0189 0.0173,0.014 0.0424,0.0404 l 0.34073,0.35086 -0.0905,0.1308 -1.38213,-0.4235 0.0505,-0.1647 0.36234,0.11103 0.22729,-0.7418 q 0.025,-0.0817 0.0899,-0.11945 0.0683,-0.0396 0.14608,-0.0158 0.0725,0.0222 0.11338,0.091 0.0443,0.0669 0.0246,0.13148 -0.0157,0.0514 -0.0668,0.0487 -0.008,-0.001 -0.0136,-0.003 -0.0145,-0.004 -0.0234,-0.0129 -0.0134,-0.0127 -0.0215,-0.0239 l -0.22164,0.72334 0.39395,0.12072 z m -1.67904,-0.36513 q -0.20097,-0.10033 -0.2732,-0.31044 -0.0728,-0.20887 0.0256,-0.40614 0.0979,-0.19603 0.30305,-0.27381 0.20517,-0.0778 0.39628,0.0176 0.1911,0.0954 0.25408,0.30244 0.0642,0.20456 -0.0336,0.4006 -0.0973,0.1948 -0.29257,0.2775 -0.19592,0.0839 -0.37963,-0.008 z m 0.28459,-0.22449 0.16989,-0.34029 q 0.0425,-0.0851 0.0338,-0.17258 -0.01,-0.0881 -0.0851,-0.12567 -0.0727,-0.0363 -0.14853,0.001 -0.0758,0.0376 -0.1164,0.11902 l -0.17789,0.35631 q -0.0357,0.0715 -0.0129,0.14915 0.0259,0.0776 0.095,0.1121 0.0666,0.0332 0.13681,0.004 0.069,-0.0302 0.10533,-0.10298 z m -1.34046,-0.85498 -0.24643,-0.0355 q -0.0377,0.1279 0.006,0.25464 0.043,0.12482 0.19861,0.23171 0.16584,0.11392 0.37597,0.066 0.21318,-0.0475 0.3349,-0.2247 0.12327,-0.17947 0.0846,-0.39329 -0.0349,-0.21454 -0.21207,-0.33625 -0.11927,-0.0819 -0.25588,-0.0704 -0.13698,0.01 -0.2644,0.1026 l 0.14572,0.21377 q 0.0629,-0.0721 0.14629,-0.13022 0.0834,-0.0581 0.18446,0.0113 0.0988,0.0679 0.0661,0.1691 -0.0339,0.10044 -0.13453,0.24697 -0.10455,0.15221 -0.19884,0.2262 -0.0951,0.0751 -0.19276,0.008 -0.0852,-0.0585 -0.0743,-0.15469 0.0109,-0.0962 0.037,-0.18525 z"
         id="text5132-1"
         style="font-size:2.82222px;line-height:0;font-family:'CS New Athanasius';-inkscape-font-specification:'CS New Athanasius';text-align:center;letter-spacing:-0.0978958px;word-spacing:0px;text-anchor:middle;fill:#ff9955;stroke:#d45500;stroke-width:0.1"
         aria-label="¿ Agioc `o :eoc ¿ Agioc Ic,uroc ¿ Agioc A;anatoc" />
      <path
         id="path5140-1"
         style="display:inline;fill:none;stroke:#d45500;stroke-width:0.186433"
         d="m 117.68086,99.261685 c 2.88958,-0.150525 5.77069,1.345755 7.37117,3.746115 2.33569,3.30366 1.65873,8.24573 -1.35043,10.9037 -2.15748,2.00746 -5.39943,2.64785 -8.19082,1.76559 -3.69275,-1.06154 -6.20691,-4.9768 -5.83305,-8.77048 0.26681,-4.06661 3.93394,-7.563895 8.00313,-7.644925 z" />
      <path
         id="ellipse3"
         style="display:inline;fill:#d45500;stroke:#d45500;stroke-width:0.052933;stroke-dasharray:none"
         d="m 118.04783,99.611141 a 8.0470676,8.0470676 0 0 0 -8.04705,8.047049 8.0470676,8.0470676 0 0 0 8.04705,8.04706 8.0470676,8.0470676 0 0 0 8.04705,-8.04706 8.0470676,8.0470676 0 0 0 -8.04705,-8.047049 z m 0.11679,0.203605 a 7.8464065,7.846406 0 0 1 3.76463,1.026294 l -5.2e-4,2.69906 h -3.76411 z m -0.23461,0.0052 v 3.720184 h -3.76463 v -2.67942 a 7.8464065,7.846406 0 0 1 3.76463,-1.040764 z m 4.23488,1.159614 a 7.8464065,7.846406 0 0 1 2.56108,2.56109 h -2.56108 z m -8.23516,0.01 v 2.55075 h -2.55074 a 7.8464065,7.846406 0 0 1 2.55074,-2.55075 z m -2.67994,2.78691 h 2.67994 v 3.76463 h -3.72018 a 7.8464065,7.846406 0 0 1 1.04024,-3.76463 z m 2.91559,0 h 7.76387 v 7.76387 h -7.76387 z m 7.99951,0 h 2.69958 a 7.8464065,7.846406 0 0 1 1.02629,3.76463 h -3.72587 z m -11.95534,3.99976 h 3.72018 v 3.76411 l -2.6789,5.2e-4 a 7.8464065,7.846406 0 0 1 -1.04128,-3.76463 z m 11.95586,0 h 3.72018 a 7.8464065,7.846406 0 0 1 -1.04128,3.76463 h -2.6789 z m -10.78642,3.99975 h 2.55074 v 2.55075 a 7.8464065,7.846406 0 0 1 -2.55074,-2.55075 z m 2.78639,0 h 3.76463 v 3.72019 a 7.8464065,7.846406 0 0 1 -3.76463,-1.04076 z m 3.99976,0 h 3.76462 v 2.67943 a 7.8464065,7.846406 0 0 1 -3.76462,1.04076 z m 4.00027,0 h 2.55075 a 7.8464065,7.846406 0 0 1 -2.55075,2.55075 z" />
      <g
         id="g1"
         inkscape:label="holes"
         style="display:inline;stroke:#ff0000">
        <ellipse
           style="display:inline;fill:#ffffff;stroke:#ff0000;stroke-width:0.113246;stroke-dasharray:none"
           id="path5674-5"
           cx="122.0611"
           cy="103.6368"
           rx="0.45641774"
           ry="0.44337723" />
        <ellipse
           style="display:inline;fill:#ffffff;stroke:#ff0000;stroke-width:0.113246;stroke-dasharray:none"
           id="path5674-3-6"
           cx="114.00047"
           cy="103.6368"
           rx="0.45641774"
           ry="0.44337723" />
        <ellipse
           style="display:inline;fill:#ffffff;stroke:#ff0000;stroke-width:0.113246;stroke-dasharray:none"
           id="path5674-7-8"
           cx="114.00047"
           cy="111.69743"
           rx="0.45641774"
           ry="0.44337723" />
        <ellipse
           style="display:inline;fill:#ffffff;stroke:#ff0000;stroke-width:0.113246;stroke-dasharray:none"
           id="path5674-8-2"
           cx="122.0611"
           cy="111.69743"
           rx="0.45641774"
           ry="0.44337723" />
        <ellipse
           style="display:inline;fill:#ffffff;stroke:#ff0000;stroke-width:0.113246;stroke-dasharray:none"
           id="path5674-8-9-9"
           cx="122.10715"
           cy="107.65803"
           rx="0.45641774"
           ry="0.44337723" />
      </g>
      <g
         id="g2"
         inkscape:label="crosses"
         style="display:inline;fill:#ff9955;stroke:#d45500">
        <path
           d="m 112.38212,109.81517 h 0.0661 a 0.12337957,0.12233545 0 0 1 0.12338,0.12234 v 0.0874 a 0.12337957,0.12233545 0 0 0 0.12338,0.12234 h 0.11369 a 0.12337957,0.12233545 0 0 0 0.12337,-0.12234 v -0.0874 a 0.12337957,0.12233545 0 0 1 0.12338,-0.12234 h 0.0984 a 0.12337957,0.12233545 0 0 0 0.12338,-0.12233 v -0.10936 a 0.12337957,0.12233545 0 0 0 -0.12338,-0.12233 h -0.0984 a 0.12337957,0.12233545 0 0 1 -0.12338,-0.12233 v -0.0875 a 0.12337957,0.12233545 0 0 0 -0.12337,-0.12233 h -0.11369 a 0.12337957,0.12233545 0 0 0 -0.12338,0.12233 v 0.0875 a 0.12337957,0.12233545 0 0 1 -0.12338,0.12233 h -0.0661 a 0.12337957,0.12233545 0 0 1 -0.12338,-0.12233 v -0.0656 a 0.12337957,0.12233545 0 0 1 0.12338,-0.12233 h 0.0882 a 0.12337957,0.12233545 0 0 0 0.12338,-0.12233 v -0.11272 a 0.12337957,0.12233545 0 0 0 -0.12338,-0.12234 h -0.0882 a 0.12337957,0.12233545 0 0 1 -0.12338,-0.12233 v -0.0975 a 0.12337957,0.12233545 0 0 0 -0.12338,-0.12233 h -0.11028 a 0.12337957,0.12233545 0 0 0 -0.12338,0.12233 v 0.0975 a 0.12337957,0.12233545 0 0 1 -0.12338,0.12238 h -0.0882 a 0.12337957,0.12233545 0 0 0 -0.12338,0.12234 v 0.11273 a 0.12337957,0.12233545 0 0 0 0.12338,0.12234 h 0.0899 a 0.12337957,0.12233545 0 0 1 0.12338,0.12233 v 0.0756 a 0.12337957,0.12233545 0 0 1 -0.12338,0.12233 h -0.0661 a 0.12337957,0.12233545 0 0 1 -0.12338,-0.12233 v -0.0891 a 0.12337957,0.12233545 0 0 0 -0.12338,-0.12234 h -0.11029 a 0.12337957,0.12233545 0 0 0 -0.12338,0.12234 v 0.0891 a 0.12337957,0.12233545 0 0 1 -0.12338,0.12233 h -0.10179 a 0.12337957,0.12233545 0 0 0 -0.12338,0.12234 v 0.10935 a 0.12337957,0.12233545 0 0 0 0.12338,0.12234 h 0.10179 a 0.12337957,0.12233545 0 0 1 0.12338,0.12233 v 0.0874 a 0.12337957,0.12233545 0 0 0 0.12338,0.12234 h 0.11029 a 0.12337957,0.12233545 0 0 0 0.12338,-0.12234 v -0.0874 a 0.12337957,0.12233545 0 0 1 0.12338,-0.12233 h 0.0644 a 0.12337957,0.12233545 0 0 1 0.12338,0.12233 v 0.0773 a 0.12337957,0.12233545 0 0 1 -0.12338,0.12234 h -0.0882 a 0.12337957,0.12233545 0 0 0 -0.12338,0.12234 v 0.10935 a 0.12337957,0.12233545 0 0 0 0.12338,0.12233 h 0.0882 a 0.12337957,0.12233545 0 0 1 0.12338,0.12234 v 0.0975 a 0.12337957,0.12233545 0 0 0 0.12338,0.12235 h 0.11029 a 0.12337957,0.12233545 0 0 0 0.12337,-0.12235 v -0.0975 a 0.12337957,0.12233545 0 0 1 0.12338,-0.12234 h 0.0882 a 0.12337957,0.12233545 0 0 0 0.12338,-0.12233 v -0.10935 a 0.12337957,0.12233545 0 0 0 -0.12338,-0.12234 h -0.0882 a 0.12337957,0.12233545 0 0 1 -0.12338,-0.12234 v -0.0874 a 0.12337957,0.12233545 0 0 1 0.12338,-0.12234 z"
           id="path5289-8-8-4"
           style="font-size:2.82223px;line-height:0;font-family:'CS New Athanasius';-inkscape-font-specification:'CS New Athanasius';text-align:center;text-anchor:middle;display:inline;fill:#ff9955;stroke:#d45500;stroke-width:0.1;stroke-dasharray:none"
           sodipodi:nodetypes="ccccccccccccccccccccccccccccccccccccccccccccc" />
        <path
           d="m 116.37387,101.89445 h 0.0661 a 0.12337957,0.12233545 0 0 1 0.12338,0.12234 v 0.0874 a 0.12337957,0.12233545 0 0 0 0.12338,0.12234 h 0.11369 a 0.12337957,0.12233545 0 0 0 0.12337,-0.12234 v -0.0874 a 0.12337957,0.12233545 0 0 1 0.12338,-0.12234 h 0.0984 a 0.12337957,0.12233545 0 0 0 0.12338,-0.12233 v -0.10936 a 0.12337957,0.12233545 0 0 0 -0.12338,-0.12233 h -0.0984 a 0.12337957,0.12233545 0 0 1 -0.12338,-0.12233 v -0.0875 a 0.12337957,0.12233545 0 0 0 -0.12337,-0.12233 h -0.11369 a 0.12337957,0.12233545 0 0 0 -0.12338,0.12233 v 0.0875 a 0.12337957,0.12233545 0 0 1 -0.12338,0.12233 h -0.0661 a 0.12337957,0.12233545 0 0 1 -0.12338,-0.12233 v -0.0656 a 0.12337957,0.12233545 0 0 1 0.12338,-0.12233 h 0.0882 a 0.12337957,0.12233545 0 0 0 0.12338,-0.12233 v -0.11272 a 0.12337957,0.12233545 0 0 0 -0.12338,-0.12234 h -0.0882 a 0.12337957,0.12233545 0 0 1 -0.12338,-0.12233 v -0.0975 a 0.12337957,0.12233545 0 0 0 -0.12338,-0.12233 h -0.11028 a 0.12337957,0.12233545 0 0 0 -0.12338,0.12233 v 0.0975 a 0.12337957,0.12233545 0 0 1 -0.12338,0.12238 h -0.0882 a 0.12337957,0.12233545 0 0 0 -0.12338,0.12234 v 0.11273 a 0.12337957,0.12233545 0 0 0 0.12338,0.12234 h 0.0899 a 0.12337957,0.12233545 0 0 1 0.12338,0.12233 v 0.0756 a 0.12337957,0.12233545 0 0 1 -0.12338,0.12233 h -0.0661 a 0.12337957,0.12233545 0 0 1 -0.12338,-0.12233 v -0.0891 a 0.12337957,0.12233545 0 0 0 -0.12338,-0.12234 h -0.11029 a 0.12337957,0.12233545 0 0 0 -0.12338,0.12234 v 0.0891 a 0.12337957,0.12233545 0 0 1 -0.12338,0.12233 h -0.10179 a 0.12337957,0.12233545 0 0 0 -0.12338,0.12234 v 0.10935 a 0.12337957,0.12233545 0 0 0 0.12338,0.12234 h 0.10179 a 0.12337957,0.12233545 0 0 1 0.12338,0.12233 v 0.0874 a 0.12337957,0.12233545 0 0 0 0.12338,0.12234 h 0.11029 a 0.12337957,0.12233545 0 0 0 0.12338,-0.12234 v -0.0874 a 0.12337957,0.12233545 0 0 1 0.12338,-0.12233 h 0.0644 a 0.12337957,0.12233545 0 0 1 0.12338,0.12233 v 0.0773 a 0.12337957,0.12233545 0 0 1 -0.12338,0.12234 h -0.0882 a 0.12337957,0.12233545 0 0 0 -0.12338,0.12234 v 0.10935 a 0.12337957,0.12233545 0 0 0 0.12338,0.12233 h 0.0882 a 0.12337957,0.12233545 0 0 1 0.12338,0.12234 v 0.0975 a 0.12337957,0.12233545 0 0 0 0.12338,0.12235 h 0.11029 a 0.12337957,0.12233545 0 0 0 0.12337,-0.12235 v -0.0975 a 0.12337957,0.12233545 0 0 1 0.12338,-0.12234 h 0.0882 a 0.12337957,0.12233545 0 0 0 0.12338,-0.12233 v -0.10935 a 0.12337957,0.12233545 0 0 0 -0.12338,-0.12234 h -0.0882 a 0.12337957,0.12233545 0 0 1 -0.12338,-0.12234 v -0.0874 a 0.12337957,0.12233545 0 0 1 0.12338,-0.12234 z"
           id="path5289-8-89-0"
           style="font-size:2.82223px;line-height:0;font-family:'CS New Athanasius';-inkscape-font-specification:'CS New Athanasius';text-align:center;text-anchor:middle;display:inline;fill:#ff9955;stroke:#d45500;stroke-width:0.1;stroke-dasharray:none"
           sodipodi:nodetypes="ccccccccccccccccccccccccccccccccccccccccccccc" />
        <path
           d="m 120.32354,101.89445 h 0.0661 a 0.12337957,0.12233545 0 0 1 0.12338,0.12234 v 0.0874 a 0.12337957,0.12233545 0 0 0 0.12338,0.12234 h 0.11369 a 0.12337957,0.12233545 0 0 0 0.12337,-0.12234 v -0.0874 a 0.12337957,0.12233545 0 0 1 0.12338,-0.12234 h 0.0984 a 0.12337957,0.12233545 0 0 0 0.12338,-0.12233 v -0.10936 a 0.12337957,0.12233545 0 0 0 -0.12338,-0.12233 h -0.0984 a 0.12337957,0.12233545 0 0 1 -0.12338,-0.12233 v -0.0875 a 0.12337957,0.12233545 0 0 0 -0.12337,-0.12233 h -0.11369 a 0.12337957,0.12233545 0 0 0 -0.12338,0.12233 v 0.0875 a 0.12337957,0.12233545 0 0 1 -0.12338,0.12233 h -0.0661 a 0.12337957,0.12233545 0 0 1 -0.12338,-0.12233 v -0.0656 a 0.12337957,0.12233545 0 0 1 0.12338,-0.12233 h 0.0882 a 0.12337957,0.12233545 0 0 0 0.12338,-0.12233 v -0.11272 a 0.12337957,0.12233545 0 0 0 -0.12338,-0.12234 h -0.0882 a 0.12337957,0.12233545 0 0 1 -0.12338,-0.12233 v -0.0975 a 0.12337957,0.12233545 0 0 0 -0.12338,-0.12233 h -0.11028 a 0.12337957,0.12233545 0 0 0 -0.12338,0.12233 v 0.0975 a 0.12337957,0.12233545 0 0 1 -0.12338,0.12238 h -0.0882 a 0.12337957,0.12233545 0 0 0 -0.12338,0.12234 v 0.11273 a 0.12337957,0.12233545 0 0 0 0.12338,0.12234 h 0.0899 a 0.12337957,0.12233545 0 0 1 0.12338,0.12233 v 0.0756 a 0.12337957,0.12233545 0 0 1 -0.12338,0.12233 h -0.0661 a 0.12337957,0.12233545 0 0 1 -0.12338,-0.12233 v -0.0891 a 0.12337957,0.12233545 0 0 0 -0.12338,-0.12234 h -0.11029 a 0.12337957,0.12233545 0 0 0 -0.12338,0.12234 v 0.0891 a 0.12337957,0.12233545 0 0 1 -0.12338,0.12233 h -0.10179 a 0.12337957,0.12233545 0 0 0 -0.12338,0.12234 v 0.10935 a 0.12337957,0.12233545 0 0 0 0.12338,0.12234 h 0.10179 a 0.12337957,0.12233545 0 0 1 0.12338,0.12233 v 0.0874 a 0.12337957,0.12233545 0 0 0 0.12338,0.12234 h 0.11029 a 0.12337957,0.12233545 0 0 0 0.12338,-0.12234 v -0.0874 a 0.12337957,0.12233545 0 0 1 0.12338,-0.12233 h 0.0644 a 0.12337957,0.12233545 0 0 1 0.12338,0.12233 v 0.0773 a 0.12337957,0.12233545 0 0 1 -0.12338,0.12234 h -0.0882 a 0.12337957,0.12233545 0 0 0 -0.12338,0.12234 v 0.10935 a 0.12337957,0.12233545 0 0 0 0.12338,0.12233 h 0.0882 a 0.12337957,0.12233545 0 0 1 0.12338,0.12234 v 0.0975 a 0.12337957,0.12233545 0 0 0 0.12338,0.12235 h 0.11029 a 0.12337957,0.12233545 0 0 0 0.12337,-0.12235 v -0.0975 a 0.12337957,0.12233545 0 0 1 0.12338,-0.12234 h 0.0882 a 0.12337957,0.12233545 0 0 0 0.12338,-0.12233 v -0.10935 a 0.12337957,0.12233545 0 0 0 -0.12338,-0.12234 h -0.0882 a 0.12337957,0.12233545 0 0 1 -0.12338,-0.12234 v -0.0874 a 0.12337957,0.12233545 0 0 1 0.12338,-0.12234 z"
           id="path5289-8-5-7"
           style="font-size:2.82223px;line-height:0;font-family:'CS New Athanasius';-inkscape-font-specification:'CS New Athanasius';text-align:center;text-anchor:middle;display:inline;fill:#ff9955;stroke:#d45500;stroke-width:0.1;stroke-dasharray:none"
           sodipodi:nodetypes="ccccccccccccccccccccccccccccccccccccccccccccc" />
        <path
           d="m 124.2227,105.8475 h 0.0661 a 0.12337957,0.12233545 0 0 1 0.12337,0.12234 v 0.0874 a 0.12337957,0.12233545 0 0 0 0.12338,0.12234 h 0.1137 a 0.12337957,0.12233545 0 0 0 0.12336,-0.12234 v -0.0874 a 0.12337957,0.12233545 0 0 1 0.12338,-0.12234 h 0.0984 a 0.12337957,0.12233545 0 0 0 0.12338,-0.12233 v -0.10936 a 0.12337957,0.12233545 0 0 0 -0.12338,-0.12233 h -0.0984 a 0.12337957,0.12233545 0 0 1 -0.12338,-0.12233 v -0.0875 a 0.12337957,0.12233545 0 0 0 -0.12336,-0.12233 h -0.1137 a 0.12337957,0.12233545 0 0 0 -0.12338,0.12233 v 0.0875 a 0.12337957,0.12233545 0 0 1 -0.12337,0.12233 h -0.0661 a 0.12337957,0.12233545 0 0 1 -0.12338,-0.12233 v -0.0656 a 0.12337957,0.12233545 0 0 1 0.12338,-0.12233 h 0.0882 a 0.12337957,0.12233545 0 0 0 0.12338,-0.12233 v -0.11272 a 0.12337957,0.12233545 0 0 0 -0.12338,-0.12234 h -0.0882 a 0.12337957,0.12233545 0 0 1 -0.12338,-0.12233 v -0.0975 a 0.12337957,0.12233545 0 0 0 -0.12337,-0.12233 h -0.11029 a 0.12337957,0.12233545 0 0 0 -0.12337,0.12233 v 0.0975 a 0.12337957,0.12233545 0 0 1 -0.12338,0.12238 h -0.0882 a 0.12337957,0.12233545 0 0 0 -0.12338,0.12234 v 0.11273 a 0.12337957,0.12233545 0 0 0 0.12338,0.12234 h 0.0899 a 0.12337957,0.12233545 0 0 1 0.12338,0.12233 v 0.0756 a 0.12337957,0.12233545 0 0 1 -0.12338,0.12233 h -0.0661 a 0.12337957,0.12233545 0 0 1 -0.12338,-0.12233 v -0.0891 a 0.12337957,0.12233545 0 0 0 -0.12337,-0.12234 h -0.1103 a 0.12337957,0.12233545 0 0 0 -0.12338,0.12234 v 0.0891 a 0.12337957,0.12233545 0 0 1 -0.12337,0.12233 h -0.10179 a 0.12337957,0.12233545 0 0 0 -0.12338,0.12234 v 0.10935 a 0.12337957,0.12233545 0 0 0 0.12338,0.12234 h 0.10179 a 0.12337957,0.12233545 0 0 1 0.12337,0.12233 v 0.0874 a 0.12337957,0.12233545 0 0 0 0.12338,0.12234 h 0.1103 a 0.12337957,0.12233545 0 0 0 0.12337,-0.12234 v -0.0874 a 0.12337957,0.12233545 0 0 1 0.12338,-0.12233 h 0.0644 a 0.12337957,0.12233545 0 0 1 0.12338,0.12233 v 0.0773 a 0.12337957,0.12233545 0 0 1 -0.12338,0.12234 h -0.0882 a 0.12337957,0.12233545 0 0 0 -0.12338,0.12234 v 0.10935 a 0.12337957,0.12233545 0 0 0 0.12338,0.12233 h 0.0882 a 0.12337957,0.12233545 0 0 1 0.12338,0.12234 v 0.0975 a 0.12337957,0.12233545 0 0 0 0.12337,0.12235 h 0.1103 a 0.12337957,0.12233545 0 0 0 0.12336,-0.12235 v -0.0975 a 0.12337957,0.12233545 0 0 1 0.12338,-0.12234 h 0.0882 a 0.12337957,0.12233545 0 0 0 0.12338,-0.12233 v -0.10935 a 0.12337957,0.12233545 0 0 0 -0.12338,-0.12234 h -0.0882 a 0.12337957,0.12233545 0 0 1 -0.12338,-0.12234 v -0.0874 a 0.12337957,0.12233545 0 0 1 0.12338,-0.12234 z"
           id="path5289-8-4-7"
           style="font-size:2.82223px;line-height:0;font-family:'CS New Athanasius';-inkscape-font-specification:'CS New Athanasius';text-align:center;text-anchor:middle;display:inline;fill:#ff9955;stroke:#d45500;stroke-width:0.1;stroke-dasharray:none"
           sodipodi:nodetypes="ccccccccccccccccccccccccccccccccccccccccccccc" />
        <path
           d="m 124.22271,109.81517 h 0.0661 a 0.12337957,0.12233545 0 0 1 0.12338,0.12234 v 0.0874 a 0.12337957,0.12233545 0 0 0 0.12338,0.12234 h 0.11369 a 0.12337957,0.12233545 0 0 0 0.12337,-0.12234 v -0.0874 a 0.12337957,0.12233545 0 0 1 0.12338,-0.12234 h 0.0984 a 0.12337957,0.12233545 0 0 0 0.12338,-0.12233 v -0.10936 a 0.12337957,0.12233545 0 0 0 -0.12338,-0.12233 h -0.0984 a 0.12337957,0.12233545 0 0 1 -0.12338,-0.12233 v -0.0875 a 0.12337957,0.12233545 0 0 0 -0.12337,-0.12233 h -0.11369 a 0.12337957,0.12233545 0 0 0 -0.12338,0.12233 v 0.0875 a 0.12337957,0.12233545 0 0 1 -0.12338,0.12233 h -0.0661 a 0.12337957,0.12233545 0 0 1 -0.12338,-0.12233 v -0.0656 a 0.12337957,0.12233545 0 0 1 0.12338,-0.12233 h 0.0882 a 0.12337957,0.12233545 0 0 0 0.12338,-0.12233 v -0.11272 a 0.12337957,0.12233545 0 0 0 -0.12338,-0.12234 h -0.0882 a 0.12337957,0.12233545 0 0 1 -0.12338,-0.12233 v -0.0975 a 0.12337957,0.12233545 0 0 0 -0.12338,-0.12233 h -0.11028 a 0.12337957,0.12233545 0 0 0 -0.12338,0.12233 v 0.0975 a 0.12337957,0.12233545 0 0 1 -0.12338,0.12238 h -0.0882 a 0.12337957,0.12233545 0 0 0 -0.12338,0.12234 v 0.11273 a 0.12337957,0.12233545 0 0 0 0.12338,0.12234 h 0.0899 a 0.12337957,0.12233545 0 0 1 0.12338,0.12233 v 0.0756 a 0.12337957,0.12233545 0 0 1 -0.12338,0.12233 h -0.0661 a 0.12337957,0.12233545 0 0 1 -0.12338,-0.12233 v -0.0891 a 0.12337957,0.12233545 0 0 0 -0.12338,-0.12234 h -0.11029 a 0.12337957,0.12233545 0 0 0 -0.12338,0.12234 v 0.0891 a 0.12337957,0.12233545 0 0 1 -0.12338,0.12233 h -0.10179 a 0.12337957,0.12233545 0 0 0 -0.12338,0.12234 v 0.10935 a 0.12337957,0.12233545 0 0 0 0.12338,0.12234 h 0.10179 a 0.12337957,0.12233545 0 0 1 0.12338,0.12233 v 0.0874 a 0.12337957,0.12233545 0 0 0 0.12338,0.12234 h 0.11029 a 0.12337957,0.12233545 0 0 0 0.12338,-0.12234 v -0.0874 a 0.12337957,0.12233545 0 0 1 0.12338,-0.12233 h 0.0644 a 0.12337957,0.12233545 0 0 1 0.12338,0.12233 v 0.0773 a 0.12337957,0.12233545 0 0 1 -0.12338,0.12234 h -0.0882 a 0.12337957,0.12233545 0 0 0 -0.12338,0.12234 v 0.10935 a 0.12337957,0.12233545 0 0 0 0.12338,0.12233 h 0.0882 a 0.12337957,0.12233545 0 0 1 0.12338,0.12234 v 0.0975 a 0.12337957,0.12233545 0 0 0 0.12338,0.12235 h 0.11029 a 0.12337957,0.12233545 0 0 0 0.12337,-0.12235 v -0.0975 a 0.12337957,0.12233545 0 0 1 0.12338,-0.12234 h 0.0882 a 0.12337957,0.12233545 0 0 0 0.12338,-0.12233 v -0.10935 a 0.12337957,0.12233545 0 0 0 -0.12338,-0.12234 h -0.0882 a 0.12337957,0.12233545 0 0 1 -0.12338,-0.12234 v -0.0874 a 0.12337957,0.12233545 0 0 1 0.12338,-0.12234 z"
           id="path5289-8-7-9"
           style="font-size:2.82223px;line-height:0;font-family:'CS New Athanasius';-inkscape-font-specification:'CS New Athanasius';text-align:center;text-anchor:middle;display:inline;fill:#ff9955;stroke:#d45500;stroke-width:0.1;stroke-dasharray:none"
           sodipodi:nodetypes="ccccccccccccccccccccccccccccccccccccccccccccc" />
        <path
           d="m 120.32354,113.7537 h 0.0661 a 0.12337957,0.12233545 0 0 1 0.12338,0.12234 v 0.0874 a 0.12337957,0.12233545 0 0 0 0.12338,0.12234 h 0.11369 a 0.12337957,0.12233545 0 0 0 0.12337,-0.12234 v -0.0874 a 0.12337957,0.12233545 0 0 1 0.12338,-0.12234 h 0.0984 a 0.12337957,0.12233545 0 0 0 0.12338,-0.12233 v -0.10936 a 0.12337957,0.12233545 0 0 0 -0.12338,-0.12233 h -0.0984 a 0.12337957,0.12233545 0 0 1 -0.12338,-0.12233 v -0.0875 a 0.12337957,0.12233545 0 0 0 -0.12337,-0.12233 h -0.11369 a 0.12337957,0.12233545 0 0 0 -0.12338,0.12233 v 0.0875 a 0.12337957,0.12233545 0 0 1 -0.12338,0.12233 h -0.0661 a 0.12337957,0.12233545 0 0 1 -0.12338,-0.12233 v -0.0656 a 0.12337957,0.12233545 0 0 1 0.12338,-0.12233 h 0.0882 a 0.12337957,0.12233545 0 0 0 0.12338,-0.12233 v -0.11272 a 0.12337957,0.12233545 0 0 0 -0.12338,-0.12234 h -0.0882 a 0.12337957,0.12233545 0 0 1 -0.12338,-0.12233 v -0.0975 a 0.12337957,0.12233545 0 0 0 -0.12338,-0.12233 h -0.11028 a 0.12337957,0.12233545 0 0 0 -0.12338,0.12233 v 0.0975 a 0.12337957,0.12233545 0 0 1 -0.12338,0.12238 h -0.0882 a 0.12337957,0.12233545 0 0 0 -0.12338,0.12234 v 0.11273 a 0.12337957,0.12233545 0 0 0 0.12338,0.12234 h 0.0899 a 0.12337957,0.12233545 0 0 1 0.12338,0.12233 v 0.0756 a 0.12337957,0.12233545 0 0 1 -0.12338,0.12233 h -0.0661 a 0.12337957,0.12233545 0 0 1 -0.12338,-0.12233 v -0.0891 a 0.12337957,0.12233545 0 0 0 -0.12338,-0.12234 h -0.11029 a 0.12337957,0.12233545 0 0 0 -0.12338,0.12234 v 0.0891 a 0.12337957,0.12233545 0 0 1 -0.12338,0.12233 h -0.10179 a 0.12337957,0.12233545 0 0 0 -0.12338,0.12234 v 0.10935 a 0.12337957,0.12233545 0 0 0 0.12338,0.12234 h 0.10179 a 0.12337957,0.12233545 0 0 1 0.12338,0.12233 v 0.0874 a 0.12337957,0.12233545 0 0 0 0.12338,0.12234 h 0.11029 a 0.12337957,0.12233545 0 0 0 0.12338,-0.12234 v -0.0874 a 0.12337957,0.12233545 0 0 1 0.12338,-0.12233 h 0.0644 a 0.12337957,0.12233545 0 0 1 0.12338,0.12233 v 0.0773 a 0.12337957,0.12233545 0 0 1 -0.12338,0.12234 h -0.0882 a 0.12337957,0.12233545 0 0 0 -0.12338,0.12234 v 0.10935 a 0.12337957,0.12233545 0 0 0 0.12338,0.12233 h 0.0882 a 0.12337957,0.12233545 0 0 1 0.12338,0.12234 v 0.0975 a 0.12337957,0.12233545 0 0 0 0.12338,0.12235 h 0.11029 a 0.12337957,0.12233545 0 0 0 0.12337,-0.12235 v -0.0975 a 0.12337957,0.12233545 0 0 1 0.12338,-0.12234 h 0.0882 a 0.12337957,0.12233545 0 0 0 0.12338,-0.12233 v -0.10935 a 0.12337957,0.12233545 0 0 0 -0.12338,-0.12234 h -0.0882 a 0.12337957,0.12233545 0 0 1 -0.12338,-0.12234 v -0.0874 a 0.12337957,0.12233545 0 0 1 0.12338,-0.12234 z"
           id="path5289-8-53-2"
           style="font-size:2.82223px;line-height:0;font-family:'CS New Athanasius';-inkscape-font-specification:'CS New Athanasius';text-align:center;text-anchor:middle;display:inline;fill:#ff9955;stroke:#d45500;stroke-width:0.1;stroke-dasharray:none"
           sodipodi:nodetypes="ccccccccccccccccccccccccccccccccccccccccccccc" />
        <path
           d="m 116.37387,113.7537 h 0.0661 a 0.12337957,0.12233545 0 0 1 0.12338,0.12234 v 0.0874 a 0.12337957,0.12233545 0 0 0 0.12338,0.12234 h 0.11369 a 0.12337957,0.12233545 0 0 0 0.12337,-0.12234 v -0.0874 a 0.12337957,0.12233545 0 0 1 0.12338,-0.12234 h 0.0984 a 0.12337957,0.12233545 0 0 0 0.12338,-0.12233 v -0.10936 a 0.12337957,0.12233545 0 0 0 -0.12338,-0.12233 h -0.0984 a 0.12337957,0.12233545 0 0 1 -0.12338,-0.12233 v -0.0875 a 0.12337957,0.12233545 0 0 0 -0.12337,-0.12233 h -0.11369 a 0.12337957,0.12233545 0 0 0 -0.12338,0.12233 v 0.0875 a 0.12337957,0.12233545 0 0 1 -0.12338,0.12233 h -0.0661 a 0.12337957,0.12233545 0 0 1 -0.12338,-0.12233 v -0.0656 a 0.12337957,0.12233545 0 0 1 0.12338,-0.12233 h 0.0882 a 0.12337957,0.12233545 0 0 0 0.12338,-0.12233 v -0.11272 a 0.12337957,0.12233545 0 0 0 -0.12338,-0.12234 h -0.0882 a 0.12337957,0.12233545 0 0 1 -0.12338,-0.12233 v -0.0975 a 0.12337957,0.12233545 0 0 0 -0.12338,-0.12233 h -0.11028 a 0.12337957,0.12233545 0 0 0 -0.12338,0.12233 v 0.0975 a 0.12337957,0.12233545 0 0 1 -0.12338,0.12238 h -0.0882 a 0.12337957,0.12233545 0 0 0 -0.12338,0.12234 v 0.11273 a 0.12337957,0.12233545 0 0 0 0.12338,0.12234 h 0.0899 a 0.12337957,0.12233545 0 0 1 0.12338,0.12233 v 0.0756 a 0.12337957,0.12233545 0 0 1 -0.12338,0.12233 h -0.0661 a 0.12337957,0.12233545 0 0 1 -0.12338,-0.12233 v -0.0891 a 0.12337957,0.12233545 0 0 0 -0.12338,-0.12234 h -0.11029 a 0.12337957,0.12233545 0 0 0 -0.12338,0.12234 v 0.0891 a 0.12337957,0.12233545 0 0 1 -0.12338,0.12233 h -0.10179 a 0.12337957,0.12233545 0 0 0 -0.12338,0.12234 v 0.10935 a 0.12337957,0.12233545 0 0 0 0.12338,0.12234 h 0.10179 a 0.12337957,0.12233545 0 0 1 0.12338,0.12233 v 0.0874 a 0.12337957,0.12233545 0 0 0 0.12338,0.12234 h 0.11029 a 0.12337957,0.12233545 0 0 0 0.12338,-0.12234 v -0.0874 a 0.12337957,0.12233545 0 0 1 0.12338,-0.12233 h 0.0644 a 0.12337957,0.12233545 0 0 1 0.12338,0.12233 v 0.0773 a 0.12337957,0.12233545 0 0 1 -0.12338,0.12234 h -0.0882 a 0.12337957,0.12233545 0 0 0 -0.12338,0.12234 v 0.10935 a 0.12337957,0.12233545 0 0 0 0.12338,0.12233 h 0.0882 a 0.12337957,0.12233545 0 0 1 0.12338,0.12234 v 0.0975 a 0.12337957,0.12233545 0 0 0 0.12338,0.12235 h 0.11029 a 0.12337957,0.12233545 0 0 0 0.12337,-0.12235 v -0.0975 a 0.12337957,0.12233545 0 0 1 0.12338,-0.12234 h 0.0882 a 0.12337957,0.12233545 0 0 0 0.12338,-0.12233 v -0.10935 a 0.12337957,0.12233545 0 0 0 -0.12338,-0.12234 h -0.0882 a 0.12337957,0.12233545 0 0 1 -0.12338,-0.12234 v -0.0874 a 0.12337957,0.12233545 0 0 1 0.12338,-0.12234 z"
           id="path5289-8-72-6"
           style="font-size:2.82223px;line-height:0;font-family:'CS New Athanasius';-inkscape-font-specification:'CS New Athanasius';text-align:center;text-anchor:middle;display:inline;fill:#ff9955;stroke:#d45500;stroke-width:0.1;stroke-dasharray:none"
           sodipodi:nodetypes="ccccccccccccccccccccccccccccccccccccccccccccc" />
        <path
           d="m 118.8906,108.12769 h 0.18504 a 0.34546173,0.34253844 0 0 1 0.34547,0.34254 v 0.24481 a 0.34546173,0.34253844 0 0 0 0.34546,0.34254 h 0.3183 a 0.34546173,0.34253844 0 0 0 0.34547,-0.34254 v -0.24481 a 0.34546173,0.34253844 0 0 1 0.34546,-0.34254 h 0.27547 a 0.34546173,0.34253844 0 0 0 0.34546,-0.34254 v -0.3062 a 0.34546173,0.34253844 0 0 0 -0.34546,-0.34253 h -0.27547 a 0.34546173,0.34253844 0 0 1 -0.34546,-0.34253 v -0.24486 a 0.34546173,0.34253844 0 0 0 -0.34547,-0.34254 h -0.3183 a 0.34546173,0.34253844 0 0 0 -0.34546,0.34254 v 0.24486 a 0.34546173,0.34253844 0 0 1 -0.34547,0.34253 h -0.18504 a 0.34546173,0.34253844 0 0 1 -0.34546,-0.34253 v -0.18347 a 0.34546173,0.34253844 0 0 1 0.34546,-0.34254 h 0.24691 a 0.34546173,0.34253844 0 0 0 0.34547,-0.34254 v -0.31564 a 0.34546173,0.34253844 0 0 0 -0.34547,-0.34255 h -0.24691 a 0.34546173,0.34253844 0 0 1 -0.34546,-0.34254 v -0.27314 a 0.34546173,0.34253844 0 0 0 -0.34545,-0.34253 h -0.30881 a 0.34546173,0.34253844 0 0 0 -0.34546,0.34253 v 0.27314 a 0.34546173,0.34253844 0 0 1 -0.34547,0.34254 h -0.2469 a 0.34546173,0.34253844 0 0 0 -0.34546,0.34255 v 0.31564 a 0.34546173,0.34253844 0 0 0 0.34546,0.34254 h 0.25168 a 0.34546173,0.34253844 0 0 1 0.34546,0.34254 v 0.21179 a 0.34546173,0.34253844 0 0 1 -0.34546,0.34254 h -0.18503 a 0.34546173,0.34253844 0 0 1 -0.34547,-0.34254 v -0.24954 a 0.34546173,0.34253844 0 0 0 -0.34546,-0.34254 h -0.30881 a 0.34546173,0.34253844 0 0 0 -0.34546,0.34254 v 0.24954 a 0.34546173,0.34253844 0 0 1 -0.34545,0.34254 h -0.28502 a 0.34546173,0.34253844 0 0 0 -0.34546,0.34254 v 0.30619 a 0.34546173,0.34253844 0 0 0 0.34546,0.34254 h 0.28502 a 0.34546173,0.34253844 0 0 1 0.34545,0.34254 v 0.24481 a 0.34546173,0.34253844 0 0 0 0.34546,0.34253 h 0.30881 a 0.34546173,0.34253844 0 0 0 0.34546,-0.34253 v -0.24481 a 0.34546173,0.34253844 0 0 1 0.34547,-0.34254 h 0.18025 a 0.34546173,0.34253844 0 0 1 0.34547,0.34254 v 0.21652 a 0.34546173,0.34253844 0 0 1 -0.34547,0.34254 h -0.2469 a 0.34546173,0.34253844 0 0 0 -0.34546,0.34254 v 0.30619 a 0.34546173,0.34253844 0 0 0 0.34546,0.34254 h 0.2469 a 0.34546173,0.34253844 0 0 1 0.34547,0.34254 v 0.27313 a 0.34546173,0.34253844 0 0 0 0.34546,0.34255 h 0.30881 a 0.34546173,0.34253844 0 0 0 0.34545,-0.34255 v -0.27313 a 0.34546173,0.34253844 0 0 1 0.34546,-0.34254 h 0.24691 a 0.34546173,0.34253844 0 0 0 0.34547,-0.34254 v -0.30619 a 0.34546173,0.34253844 0 0 0 -0.34547,-0.34254 h -0.24691 a 0.34546173,0.34253844 0 0 1 -0.34546,-0.34254 v -0.24482 a 0.34546173,0.34253844 0 0 1 0.34546,-0.34254 z"
           id="path5289-4"
           style="font-size:2.82223px;line-height:0;font-family:'CS New Athanasius';-inkscape-font-specification:'CS New Athanasius';text-align:center;text-anchor:middle;display:inline;fill:#ff9955;stroke:#d45500;stroke-width:0.1;stroke-dasharray:none"
           sodipodi:nodetypes="ccccccccccccccccccccccccccccccccccccccccccccc" />
        <path
           d="m 112.38212,105.8475 h 0.0661 a 0.12337957,0.12233545 0 0 1 0.12338,0.12234 v 0.0874 a 0.12337957,0.12233545 0 0 0 0.12338,0.12234 h 0.11369 a 0.12337957,0.12233545 0 0 0 0.12337,-0.12234 v -0.0874 a 0.12337957,0.12233545 0 0 1 0.12338,-0.12234 h 0.0984 a 0.12337957,0.12233545 0 0 0 0.12338,-0.12233 v -0.10936 a 0.12337957,0.12233545 0 0 0 -0.12338,-0.12233 h -0.0984 a 0.12337957,0.12233545 0 0 1 -0.12338,-0.12233 v -0.0875 a 0.12337957,0.12233545 0 0 0 -0.12337,-0.12233 h -0.11369 a 0.12337957,0.12233545 0 0 0 -0.12338,0.12233 v 0.0875 a 0.12337957,0.12233545 0 0 1 -0.12338,0.12233 h -0.0661 a 0.12337957,0.12233545 0 0 1 -0.12338,-0.12233 v -0.0656 a 0.12337957,0.12233545 0 0 1 0.12338,-0.12233 h 0.0882 a 0.12337957,0.12233545 0 0 0 0.12338,-0.12233 v -0.11272 a 0.12337957,0.12233545 0 0 0 -0.12338,-0.12234 h -0.0882 a 0.12337957,0.12233545 0 0 1 -0.12338,-0.12233 v -0.0975 a 0.12337957,0.12233545 0 0 0 -0.12338,-0.12233 h -0.11028 a 0.12337957,0.12233545 0 0 0 -0.12338,0.12233 v 0.0975 a 0.12337957,0.12233545 0 0 1 -0.12338,0.12238 h -0.0882 a 0.12337957,0.12233545 0 0 0 -0.12338,0.12234 v 0.11273 a 0.12337957,0.12233545 0 0 0 0.12338,0.12234 h 0.0899 a 0.12337957,0.12233545 0 0 1 0.12338,0.12233 v 0.0756 a 0.12337957,0.12233545 0 0 1 -0.12338,0.12233 h -0.0661 a 0.12337957,0.12233545 0 0 1 -0.12338,-0.12233 v -0.0891 a 0.12337957,0.12233545 0 0 0 -0.12338,-0.12234 h -0.11029 a 0.12337957,0.12233545 0 0 0 -0.12338,0.12234 v 0.0891 a 0.12337957,0.12233545 0 0 1 -0.12338,0.12233 h -0.10179 a 0.12337957,0.12233545 0 0 0 -0.12338,0.12234 v 0.10935 a 0.12337957,0.12233545 0 0 0 0.12338,0.12234 h 0.10179 a 0.12337957,0.12233545 0 0 1 0.12338,0.12233 v 0.0874 a 0.12337957,0.12233545 0 0 0 0.12338,0.12234 h 0.11029 a 0.12337957,0.12233545 0 0 0 0.12338,-0.12234 v -0.0874 a 0.12337957,0.12233545 0 0 1 0.12338,-0.12233 h 0.0644 a 0.12337957,0.12233545 0 0 1 0.12338,0.12233 v 0.0773 a 0.12337957,0.12233545 0 0 1 -0.12338,0.12234 h -0.0882 a 0.12337957,0.12233545 0 0 0 -0.12338,0.12234 v 0.10935 a 0.12337957,0.12233545 0 0 0 0.12338,0.12233 h 0.0882 a 0.12337957,0.12233545 0 0 1 0.12338,0.12234 v 0.0975 a 0.12337957,0.12233545 0 0 0 0.12338,0.12235 h 0.11029 a 0.12337957,0.12233545 0 0 0 0.12337,-0.12235 v -0.0975 a 0.12337957,0.12233545 0 0 1 0.12338,-0.12234 h 0.0882 a 0.12337957,0.12233545 0 0 0 0.12338,-0.12233 v -0.10935 a 0.12337957,0.12233545 0 0 0 -0.12338,-0.12234 h -0.0882 a 0.12337957,0.12233545 0 0 1 -0.12338,-0.12234 v -0.0874 a 0.12337957,0.12233545 0 0 1 0.12338,-0.12234 z"
           id="path5289-8-74"
           style="font-size:2.82223px;line-height:0;font-family:'CS New Athanasius';-inkscape-font-specification:'CS New Athanasius';text-align:center;text-anchor:middle;display:inline;fill:#ff9955;stroke:#d45500;stroke-width:0.1;stroke-dasharray:none"
           sodipodi:nodetypes="ccccccccccccccccccccccccccccccccccccccccccccc" />
        <path
           d="m 113.2075,102.95181 0.024,0.024 a 0.06333,0.06279406 45 0 1 3.8e-4,0.0892 l -0.0317,0.0318 a 0.06333,0.06279406 45 0 0 3.8e-4,0.0892 l 0.0412,0.0412 a 0.06333,0.06279406 45 0 0 0.0892,3.7e-4 l 0.0317,-0.0317 a 0.06333,0.06279406 45 0 1 0.0892,3.8e-4 l 0.0357,0.0358 a 0.06333,0.06279406 45 0 0 0.0892,3.8e-4 l 0.0397,-0.0397 a 0.06333,0.06279406 45 0 0 -3.8e-4,-0.0892 l -0.0357,-0.0357 a 0.06333,0.06279406 45 0 1 -3.8e-4,-0.0892 l 0.0318,-0.0318 a 0.06333,0.06279406 45 0 0 -3.9e-4,-0.0892 l -0.0412,-0.0413 a 0.06333,0.06279406 45 0 0 -0.0892,-3.8e-4 l -0.0318,0.0318 a 0.06333,0.06279406 45 0 1 -0.0892,-3.8e-4 l -0.024,-0.024 a 0.06333,0.06279406 45 0 1 -3.7e-4,-0.0892 l 0.0237,-0.0237 a 0.06333,0.06279406 45 0 1 0.0892,3.7e-4 l 0.032,0.0321 a 0.06333,0.06279406 45 0 0 0.0892,3.8e-4 l 0.0409,-0.0409 a 0.06333,0.06279406 45 0 0 -3.8e-4,-0.0892 l -0.032,-0.0321 a 0.06333,0.06279406 45 0 1 -3.8e-4,-0.0892 l 0.0354,-0.0354 a 0.06333,0.06279406 45 0 0 -3.9e-4,-0.0892 l -0.0401,-0.0401 a 0.06333,0.06279406 45 0 0 -0.0892,-3.9e-4 l -0.0354,0.0354 a 0.06333,0.06279406 45 0 1 -0.0892,-3.6e-4 l -0.032,-0.0321 a 0.06333,0.06279406 45 0 0 -0.0892,-3.8e-4 l -0.0409,0.0409 a 0.06333,0.06279406 45 0 0 3.8e-4,0.0892 l 0.0327,0.0327 a 0.06333,0.06279406 45 0 1 3.9e-4,0.0892 l -0.0275,0.0275 a 0.06333,0.06279406 45 0 1 -0.0892,-3.9e-4 l -0.024,-0.024 a 0.06333,0.06279406 45 0 1 -3.8e-4,-0.0892 l 0.0323,-0.0323 a 0.06333,0.06279406 45 0 0 -3.8e-4,-0.0892 l -0.0401,-0.0401 a 0.06333,0.06279406 45 0 0 -0.0892,-3.8e-4 l -0.0323,0.0323 a 0.06333,0.06279406 45 0 1 -0.0892,-3.9e-4 l -0.0369,-0.037 a 0.06333,0.06279406 45 0 0 -0.0892,-3.8e-4 l -0.0397,0.0397 a 0.06333,0.06279406 45 0 0 3.8e-4,0.0892 l 0.0369,0.037 a 0.06333,0.06279406 45 0 1 3.9e-4,0.0892 l -0.0317,0.0318 a 0.06333,0.06279406 45 0 0 3.7e-4,0.0892 l 0.0401,0.0401 a 0.06333,0.06279406 45 0 0 0.0892,3.8e-4 l 0.0318,-0.0318 a 0.06333,0.06279406 45 0 1 0.0892,3.8e-4 l 0.0234,0.0233 a 0.06333,0.06279406 45 0 1 3.8e-4,0.0892 l -0.0281,0.0281 a 0.06333,0.06279406 45 0 1 -0.0892,-3.7e-4 l -0.032,-0.0321 a 0.06333,0.06279406 45 0 0 -0.0892,-3.8e-4 l -0.0397,0.0397 a 0.06333,0.06279406 45 0 0 3.8e-4,0.0892 l 0.032,0.0321 a 0.06333,0.06279406 45 0 1 3.8e-4,0.0892 l -0.0354,0.0354 a 0.06333,0.06279406 45 0 0 3.8e-4,0.0892 l 0.0401,0.0401 a 0.06333,0.06279406 45 0 0 0.0892,3.7e-4 l 0.0354,-0.0354 a 0.06333,0.06279406 45 0 1 0.0892,3.7e-4 l 0.032,0.0321 a 0.06333,0.06279406 45 0 0 0.0892,3.8e-4 l 0.0397,-0.0397 a 0.06333,0.06279406 45 0 0 -3.7e-4,-0.0892 l -0.032,-0.0321 a 0.06333,0.06279406 45 0 1 -3.8e-4,-0.0892 l 0.0317,-0.0317 a 0.06333,0.06279406 45 0 1 0.0892,3.8e-4 z"
           id="path5289-8-77-91"
           style="font-size:2.82223px;line-height:0;font-family:'CS New Athanasius';-inkscape-font-specification:'CS New Athanasius';text-align:center;text-anchor:middle;display:inline;fill:#ff9955;stroke:#d45500;stroke-width:0.1;stroke-dasharray:none"
           sodipodi:nodetypes="ccccccccccccccccccccccccccccccccccccccccccccc" />
        <path
           d="m 122.98344,102.95181 0.024,0.024 a 0.06333,0.06279406 45 0 1 3.8e-4,0.0892 l -0.0317,0.0318 a 0.06333,0.06279406 45 0 0 3.8e-4,0.0892 l 0.0412,0.0412 a 0.06333,0.06279406 45 0 0 0.0892,3.7e-4 l 0.0317,-0.0317 a 0.06333,0.06279406 45 0 1 0.0892,3.8e-4 l 0.0357,0.0358 a 0.06333,0.06279406 45 0 0 0.0892,3.8e-4 l 0.0397,-0.0397 a 0.06333,0.06279406 45 0 0 -3.8e-4,-0.0892 l -0.0357,-0.0357 a 0.06333,0.06279406 45 0 1 -3.8e-4,-0.0892 l 0.0318,-0.0318 a 0.06333,0.06279406 45 0 0 -3.9e-4,-0.0892 l -0.0412,-0.0413 a 0.06333,0.06279406 45 0 0 -0.0892,-3.8e-4 l -0.0318,0.0318 a 0.06333,0.06279406 45 0 1 -0.0892,-3.8e-4 l -0.024,-0.024 a 0.06333,0.06279406 45 0 1 -3.7e-4,-0.0892 l 0.0237,-0.0237 a 0.06333,0.06279406 45 0 1 0.0892,3.7e-4 l 0.032,0.0321 a 0.06333,0.06279406 45 0 0 0.0892,3.8e-4 l 0.0409,-0.0409 a 0.06333,0.06279406 45 0 0 -3.8e-4,-0.0892 l -0.032,-0.0321 a 0.06333,0.06279406 45 0 1 -3.8e-4,-0.0892 l 0.0354,-0.0354 a 0.06333,0.06279406 45 0 0 -3.9e-4,-0.0892 l -0.0401,-0.0401 a 0.06333,0.06279406 45 0 0 -0.0892,-3.9e-4 l -0.0354,0.0354 a 0.06333,0.06279406 45 0 1 -0.0892,-3.6e-4 l -0.032,-0.0321 a 0.06333,0.06279406 45 0 0 -0.0892,-3.8e-4 l -0.0409,0.0409 a 0.06333,0.06279406 45 0 0 3.8e-4,0.0892 l 0.0327,0.0327 a 0.06333,0.06279406 45 0 1 3.9e-4,0.0892 l -0.0275,0.0275 a 0.06333,0.06279406 45 0 1 -0.0892,-3.9e-4 l -0.024,-0.024 a 0.06333,0.06279406 45 0 1 -3.8e-4,-0.0892 l 0.0323,-0.0323 a 0.06333,0.06279406 45 0 0 -3.8e-4,-0.0892 l -0.0401,-0.0401 a 0.06333,0.06279406 45 0 0 -0.0892,-3.8e-4 l -0.0323,0.0323 a 0.06333,0.06279406 45 0 1 -0.0892,-3.9e-4 l -0.0369,-0.037 a 0.06333,0.06279406 45 0 0 -0.0892,-3.8e-4 l -0.0397,0.0397 a 0.06333,0.06279406 45 0 0 3.8e-4,0.0892 l 0.0369,0.037 a 0.06333,0.06279406 45 0 1 3.9e-4,0.0892 l -0.0317,0.0318 a 0.06333,0.06279406 45 0 0 3.7e-4,0.0892 l 0.0401,0.0401 a 0.06333,0.06279406 45 0 0 0.0892,3.8e-4 l 0.0318,-0.0318 a 0.06333,0.06279406 45 0 1 0.0892,3.8e-4 l 0.0234,0.0233 a 0.06333,0.06279406 45 0 1 3.8e-4,0.0892 l -0.0281,0.0281 a 0.06333,0.06279406 45 0 1 -0.0892,-3.7e-4 l -0.032,-0.0321 a 0.06333,0.06279406 45 0 0 -0.0892,-3.8e-4 l -0.0397,0.0397 a 0.06333,0.06279406 45 0 0 3.8e-4,0.0892 l 0.032,0.0321 a 0.06333,0.06279406 45 0 1 3.8e-4,0.0892 l -0.0354,0.0354 a 0.06333,0.06279406 45 0 0 3.8e-4,0.0892 l 0.0401,0.0401 a 0.06333,0.06279406 45 0 0 0.0892,3.7e-4 l 0.0354,-0.0354 a 0.06333,0.06279406 45 0 1 0.0892,3.7e-4 l 0.032,0.0321 a 0.06333,0.06279406 45 0 0 0.0892,3.8e-4 l 0.0397,-0.0397 a 0.06333,0.06279406 45 0 0 -3.7e-4,-0.0892 l -0.032,-0.0321 a 0.06333,0.06279406 45 0 1 -3.8e-4,-0.0892 l 0.0317,-0.0317 a 0.06333,0.06279406 45 0 1 0.0892,3.8e-4 z"
           id="path5289-8-77-9-3"
           style="font-size:2.82223px;line-height:0;font-family:'CS New Athanasius';-inkscape-font-specification:'CS New Athanasius';text-align:center;text-anchor:middle;display:inline;fill:#ff9955;stroke:#d45500;stroke-width:0.1;stroke-dasharray:none"
           sodipodi:nodetypes="ccccccccccccccccccccccccccccccccccccccccccccc" />
        <path
           d="m 122.98344,112.75085 0.024,0.024 a 0.06333,0.06279406 45 0 1 3.8e-4,0.0892 l -0.0317,0.0318 a 0.06333,0.06279406 45 0 0 3.8e-4,0.0892 l 0.0412,0.0412 a 0.06333,0.06279406 45 0 0 0.0892,3.7e-4 l 0.0317,-0.0317 a 0.06333,0.06279406 45 0 1 0.0892,3.8e-4 l 0.0357,0.0358 a 0.06333,0.06279406 45 0 0 0.0892,3.8e-4 l 0.0397,-0.0397 a 0.06333,0.06279406 45 0 0 -3.8e-4,-0.0892 l -0.0357,-0.0357 a 0.06333,0.06279406 45 0 1 -3.8e-4,-0.0892 l 0.0318,-0.0318 a 0.06333,0.06279406 45 0 0 -3.9e-4,-0.0892 l -0.0412,-0.0413 a 0.06333,0.06279406 45 0 0 -0.0892,-3.8e-4 l -0.0318,0.0318 a 0.06333,0.06279406 45 0 1 -0.0892,-3.8e-4 l -0.024,-0.024 a 0.06333,0.06279406 45 0 1 -3.7e-4,-0.0892 l 0.0237,-0.0237 a 0.06333,0.06279406 45 0 1 0.0892,3.7e-4 l 0.032,0.0321 a 0.06333,0.06279406 45 0 0 0.0892,3.8e-4 l 0.0409,-0.0409 a 0.06333,0.06279406 45 0 0 -3.8e-4,-0.0892 l -0.032,-0.0321 a 0.06333,0.06279406 45 0 1 -3.8e-4,-0.0892 l 0.0354,-0.0354 a 0.06333,0.06279406 45 0 0 -3.9e-4,-0.0892 l -0.0401,-0.0401 a 0.06333,0.06279406 45 0 0 -0.0892,-3.9e-4 l -0.0354,0.0354 a 0.06333,0.06279406 45 0 1 -0.0892,-3.6e-4 l -0.032,-0.0321 a 0.06333,0.06279406 45 0 0 -0.0892,-3.8e-4 l -0.0409,0.0409 a 0.06333,0.06279406 45 0 0 3.8e-4,0.0892 l 0.0327,0.0327 a 0.06333,0.06279406 45 0 1 3.9e-4,0.0892 l -0.0275,0.0275 a 0.06333,0.06279406 45 0 1 -0.0892,-3.9e-4 l -0.024,-0.024 a 0.06333,0.06279406 45 0 1 -3.8e-4,-0.0892 l 0.0323,-0.0323 a 0.06333,0.06279406 45 0 0 -3.8e-4,-0.0892 l -0.0401,-0.0401 a 0.06333,0.06279406 45 0 0 -0.0892,-3.8e-4 l -0.0323,0.0323 a 0.06333,0.06279406 45 0 1 -0.0892,-3.9e-4 l -0.0369,-0.037 a 0.06333,0.06279406 45 0 0 -0.0892,-3.8e-4 l -0.0397,0.0397 a 0.06333,0.06279406 45 0 0 3.8e-4,0.0892 l 0.0369,0.037 a 0.06333,0.06279406 45 0 1 3.9e-4,0.0892 l -0.0317,0.0318 a 0.06333,0.06279406 45 0 0 3.7e-4,0.0892 l 0.0401,0.0401 a 0.06333,0.06279406 45 0 0 0.0892,3.8e-4 l 0.0318,-0.0318 a 0.06333,0.06279406 45 0 1 0.0892,3.8e-4 l 0.0234,0.0233 a 0.06333,0.06279406 45 0 1 3.8e-4,0.0892 l -0.0281,0.0281 a 0.06333,0.06279406 45 0 1 -0.0892,-3.7e-4 l -0.032,-0.0321 a 0.06333,0.06279406 45 0 0 -0.0892,-3.8e-4 l -0.0397,0.0397 a 0.06333,0.06279406 45 0 0 3.8e-4,0.0892 l 0.032,0.0321 a 0.06333,0.06279406 45 0 1 3.8e-4,0.0892 l -0.0354,0.0354 a 0.06333,0.06279406 45 0 0 3.8e-4,0.0892 l 0.0401,0.0401 a 0.06333,0.06279406 45 0 0 0.0892,3.7e-4 l 0.0354,-0.0354 a 0.06333,0.06279406 45 0 1 0.0892,3.7e-4 l 0.032,0.0321 a 0.06333,0.06279406 45 0 0 0.0892,3.8e-4 l 0.0397,-0.0397 a 0.06333,0.06279406 45 0 0 -3.7e-4,-0.0892 l -0.032,-0.0321 a 0.06333,0.06279406 45 0 1 -3.8e-4,-0.0892 l 0.0317,-0.0317 a 0.06333,0.06279406 45 0 1 0.0892,3.8e-4 z"
           id="path5289-8-77-7-9"
           style="font-size:2.82223px;line-height:0;font-family:'CS New Athanasius';-inkscape-font-specification:'CS New Athanasius';text-align:center;text-anchor:middle;display:inline;fill:#ff9955;stroke:#d45500;stroke-width:0.1;stroke-dasharray:none"
           sodipodi:nodetypes="ccccccccccccccccccccccccccccccccccccccccccccc" />
        <path
           d="m 113.2075,112.75085 0.024,0.024 a 0.06333,0.06279406 45 0 1 3.8e-4,0.0892 l -0.0317,0.0318 a 0.06333,0.06279406 45 0 0 3.8e-4,0.0892 l 0.0412,0.0412 a 0.06333,0.06279406 45 0 0 0.0892,3.7e-4 l 0.0317,-0.0317 a 0.06333,0.06279406 45 0 1 0.0892,3.8e-4 l 0.0357,0.0358 a 0.06333,0.06279406 45 0 0 0.0892,3.8e-4 l 0.0397,-0.0397 a 0.06333,0.06279406 45 0 0 -3.8e-4,-0.0892 l -0.0357,-0.0357 a 0.06333,0.06279406 45 0 1 -3.8e-4,-0.0892 l 0.0318,-0.0318 a 0.06333,0.06279406 45 0 0 -3.9e-4,-0.0892 l -0.0412,-0.0413 a 0.06333,0.06279406 45 0 0 -0.0892,-3.8e-4 l -0.0318,0.0318 a 0.06333,0.06279406 45 0 1 -0.0892,-3.8e-4 l -0.024,-0.024 a 0.06333,0.06279406 45 0 1 -3.7e-4,-0.0892 l 0.0237,-0.0237 a 0.06333,0.06279406 45 0 1 0.0892,3.7e-4 l 0.032,0.0321 a 0.06333,0.06279406 45 0 0 0.0892,3.8e-4 l 0.0409,-0.0409 a 0.06333,0.06279406 45 0 0 -3.8e-4,-0.0892 l -0.032,-0.0321 a 0.06333,0.06279406 45 0 1 -3.8e-4,-0.0892 l 0.0354,-0.0354 a 0.06333,0.06279406 45 0 0 -3.9e-4,-0.0892 l -0.0401,-0.0401 a 0.06333,0.06279406 45 0 0 -0.0892,-3.9e-4 l -0.0354,0.0354 a 0.06333,0.06279406 45 0 1 -0.0892,-3.6e-4 l -0.032,-0.0321 a 0.06333,0.06279406 45 0 0 -0.0892,-3.8e-4 l -0.0409,0.0409 a 0.06333,0.06279406 45 0 0 3.8e-4,0.0892 l 0.0327,0.0327 a 0.06333,0.06279406 45 0 1 3.9e-4,0.0892 l -0.0275,0.0275 a 0.06333,0.06279406 45 0 1 -0.0892,-3.9e-4 l -0.024,-0.024 a 0.06333,0.06279406 45 0 1 -3.8e-4,-0.0892 l 0.0323,-0.0323 a 0.06333,0.06279406 45 0 0 -3.8e-4,-0.0892 l -0.0401,-0.0401 a 0.06333,0.06279406 45 0 0 -0.0892,-3.8e-4 l -0.0323,0.0323 a 0.06333,0.06279406 45 0 1 -0.0892,-3.9e-4 l -0.0369,-0.037 a 0.06333,0.06279406 45 0 0 -0.0892,-3.8e-4 l -0.0397,0.0397 a 0.06333,0.06279406 45 0 0 3.8e-4,0.0892 l 0.0369,0.037 a 0.06333,0.06279406 45 0 1 3.9e-4,0.0892 l -0.0317,0.0318 a 0.06333,0.06279406 45 0 0 3.7e-4,0.0892 l 0.0401,0.0401 a 0.06333,0.06279406 45 0 0 0.0892,3.8e-4 l 0.0318,-0.0318 a 0.06333,0.06279406 45 0 1 0.0892,3.8e-4 l 0.0234,0.0233 a 0.06333,0.06279406 45 0 1 3.8e-4,0.0892 l -0.0281,0.0281 a 0.06333,0.06279406 45 0 1 -0.0892,-3.7e-4 l -0.032,-0.0321 a 0.06333,0.06279406 45 0 0 -0.0892,-3.8e-4 l -0.0397,0.0397 a 0.06333,0.06279406 45 0 0 3.8e-4,0.0892 l 0.032,0.0321 a 0.06333,0.06279406 45 0 1 3.8e-4,0.0892 l -0.0354,0.0354 a 0.06333,0.06279406 45 0 0 3.8e-4,0.0892 l 0.0401,0.0401 a 0.06333,0.06279406 45 0 0 0.0892,3.7e-4 l 0.0354,-0.0354 a 0.06333,0.06279406 45 0 1 0.0892,3.7e-4 l 0.032,0.0321 a 0.06333,0.06279406 45 0 0 0.0892,3.8e-4 l 0.0397,-0.0397 a 0.06333,0.06279406 45 0 0 -3.7e-4,-0.0892 l -0.032,-0.0321 a 0.06333,0.06279406 45 0 1 -3.8e-4,-0.0892 l 0.0317,-0.0317 a 0.06333,0.06279406 45 0 1 0.0892,3.8e-4 z"
           id="path5289-8-77-90-9"
           style="font-size:2.82223px;line-height:0;font-family:'CS New Athanasius';-inkscape-font-specification:'CS New Athanasius';text-align:center;text-anchor:middle;display:inline;fill:#ff9955;stroke:#d45500;stroke-width:0.1;stroke-dasharray:none"
           sodipodi:nodetypes="ccccccccccccccccccccccccccccccccccccccccccccc" />
      </g>
    </g>
  </g>
</svg>
